<?xml version="1.0" encoding="utf-8"?>
<svg version="1.1" id="Layer_1" xmlns="http://www.w3.org/2000/svg" xmlns:xlink="http://www.w3.org/1999/xlink" x="0px"
	y="0px" viewBox="0 0 3883.45 2276.06" style="enable-background:new 0 0 3883.45 2276.06;" xml:space="preserve">
	<style type="text/css">
		.st0 {
			fill: #FFFFFF;
		}

		.st1 {
			opacity: 0.55;
		}

		.st2 {
			fill: #FFFFFF;
		}

		.st3 {
			opacity: 0.3;
		}

		.st4 {
			fill: #999999;
		}
	</style>
	<g>
		<g>
			<path class="st0" d="M3692.49,1065.19c-23.24,32.2-48.93,62.7-77.14,91.28c-11.31,11.47-22.89,22.67-34.62,33.52
			c-22.36,20.62-45.36,40.14-68.87,58.48c-74.46,58.41-156.24,106.79-242.44,145.75c-208.07,94.07-382.17,198.58-558.1,329.24
			c-26.85,19.91-53.73,40.47-80.86,61.73c-14.67,11.53-29.05,23.24-43.18,35.31c-34.57,29.11-68.01,59.52-100.89,90.38
			c-248.62,233.32-630.87,349.62-844.11,87.77c-243.6-325.89,26.91-597.94,339.4-771.3c143.99-79.77,281.28-171.5,405.44-279.61
			c94.09-81.97,181.66-169.48,265.08-261.95c74.44-82.35,142.48-170.33,207.13-260.63c338.78-473.63,966.86-365.9,979.87,170.72
			C3843.25,764.7,3790.41,929.56,3692.49,1065.19z" />
		</g>
		<g class="st1">
			<path class="st2" d="M1660.07,2019.15c219.58,155.82,542.92,41,762.37-164.88c32.95-30.81,66.4-61.25,100.86-90.42
			c14.21-12.07,28.55-23.77,43.26-35.21c27.16-21.25,53.95-41.88,80.86-61.75c175.94-130.67,350-235.18,558.13-329.25
			c86.15-38.99,167.89-87.4,242.34-145.76c21.88-17.1,43.39-35.21,64.26-54.33c-29.43-53.07,27.42-141.1,110.42-120.86
			c2.14-2.64,4.15-5.41,6.04-8.05c97.84-135.7,150.66-300.57,146.64-469.34c-3.4-141.99-49.93-253.91-122.74-333.02
			c108.78,77.72,182.36,209.52,186.76,389.61c4.02,168.77-48.92,333.65-146.77,469.34c-23.27,32.19-48.92,62.63-77.09,91.18
			c-11.32,11.57-23.01,22.76-34.71,33.58c-22.39,20.62-45.27,40.12-68.79,58.48c-74.45,58.35-156.32,106.77-242.47,145.76
			c-208.14,94.07-382.19,198.58-558.13,329.25c-26.79,19.87-53.7,40.5-80.86,61.75c-14.59,11.44-29.05,23.14-43.14,35.21
			c-34.58,29.18-68.04,59.61-100.86,90.42C2244.61,2137.87,1876.25,2254.07,1660.07,2019.15z" />
		</g>
		<g class="st3">
			<path class="st4" d="M1688.11,2054.49c-15.22-13.96-29.93-29.3-43.77-46.41c-243.6-325.85,26.91-597.87,339.43-771.3
			c144-79.73,281.33-171.54,405.46-279.57c94.07-82,181.6-169.53,265.11-261.96c74.45-82.37,142.49-170.41,207.13-260.71
			c260.33-363.83,691.31-384.58,882.98-131.17c-209.14-192.29-592.97-147.9-832.42,186.76c-64.64,90.3-132.68,178.33-207.13,260.7
			c-83.51,92.44-171.04,179.97-265.11,261.96c-112.93,98.35-236.81,183.11-366.72,257.81l-7.29,113.19l-91.93-56.09
			C1691.51,1499.75,1471.67,1753.79,1688.11,2054.49z" />
		</g>
		<g>
			<path class="st4"
				d="M1504.04,1747.09c0-26.92,2.88-53.82,8.64-80.69c46.13-215.02,268.9-378.34,447.66-477.49
			c153.37-85.06,283.5-174.81,397.86-274.4c88.67-77.21,174.17-161.67,261.37-258.22c65.67-72.69,132.39-156.68,203.96-256.74
			c181.32-253.53,469.84-372.6,717.93-296.31c208.09,63.99,335.84,247.74,341.74,491.53l0,0c5.41,218.79-80.89,434.8-236.49,592.65
			c-32.53,33.01-68.77,65.21-107.71,95.72c-75.21,58.93-159.81,109.8-251.47,151.24c-225.84,102.08-420.1,220.97-629.9,385.51
			c-53.35,41.84-103.45,87.78-141.14,123.14c-179.08,167.99-399.55,260.68-589.77,247.93c-127.8-8.57-237.98-65.44-318.64-164.48
			c-0.38-0.47-0.76-0.95-1.13-1.45C1538.49,1933.39,1504.04,1840.21,1504.04,1747.09z M3795.21,596.9
			c-4.94-204.1-109.47-357.19-279.61-409.52c-176.3-54.22-436.52,6.2-620.46,263.37c-73.53,102.81-142.3,189.35-210.23,264.55
			c-89.58,99.17-177.54,186.05-268.89,265.59c-119.06,103.68-254.14,196.91-412.96,285c-162.81,90.3-365.1,236.28-404.29,418.97
			c-20.09,93.63,6.21,190.09,78.18,286.72c65.69,80.3,151.72,124.56,255.7,131.53c163.81,10.97,364.46-74.97,523.65-224.3
			c39.01-36.59,90.97-84.23,147.04-128.2c215.58-169.07,415.43-291.35,647.96-396.46c85.24-38.53,163.78-85.74,233.43-140.31
			c35.99-28.2,69.4-57.88,99.31-88.22C3722.96,984.67,3799.86,792,3795.21,596.9L3795.21,596.9z M3839.21,595.84v0.14V595.84z" />
		</g>
		<g>
			<path class="st4"
				d="M2043.03,1338.1c0-0.58,0.01-1.18,0.03-1.76c10.83-291.11,129.19-525.04,333.28-658.72
			c208.28-136.41,483.51-151.03,777.28-41.83l191.87-128.6c21.36-14.31,50.27-8.6,64.58,12.75c14.33,21.36,8.59,50.27-12.75,64.58
			l-211.89,142.01c-12.68,8.5-28.72,10.24-42.92,4.67c-273.46-107.29-527.44-98.66-715.17,24.29
			c-178.15,116.68-281.58,324.19-291.26,584.29c-0.95,25.69-22.55,45.74-48.24,44.79C2062.75,1383.64,2043.03,1363,2043.03,1338.1z" />
		</g>
		<g>
			<path class="st4" d="M2373.71,1742.61c0-4.62,0.7-9.32,2.15-13.96c7.7-24.53,33.83-38.17,58.35-30.47
			c225.68,70.86,426.36,31.63,565.08-110.48c188.07-192.68,233.69-539.99,116.17-884.82c-8.28-24.33,4.71-50.78,29.05-59.07
			c24.33-8.29,50.78,4.71,59.07,29.05c128.71,377.73,74.67,762.33-137.68,979.88c-164.46,168.5-398.71,216.18-659.57,134.27
			C2386.44,1780.76,2373.71,1762.4,2373.71,1742.61z" />
		</g>
		<g>
			<ellipse transform="matrix(0.8759 -0.4826 0.4826 0.8759 155.1145 1694.6932)" class="st4" cx="3371.41" cy="545.86"
				rx="81.51" ry="81.51" />
		</g>
		<g>
			<ellipse transform="matrix(0.9895 -0.1444 0.1444 0.9895 -171.2816 315.6746)" class="st4" cx="2089.51" cy="1338.05"
				rx="72.52" ry="72.52" />
		</g>
		<g>
			<ellipse transform="matrix(0.0658 -0.9978 0.9978 0.0658 527.6881 4039.5334)" class="st4" cx="2421.23" cy="1737.95"
				rx="72.52" ry="72.52" />
		</g>
	</g>
	<g>
		<g>
			<path class="st0" d="M1275.48,153.93c-34.1,20.34-66.73,43.28-97.66,68.89c-12.41,10.27-24.58,20.83-36.41,31.56
			c-22.49,20.48-43.95,41.69-64.26,63.51c-64.68,69.09-120,146.34-166.32,228.81c-111.84,199.08-231.13,363.41-376.63,527.28
			c-22.18,25.02-45,50-68.54,75.17c-12.77,13.61-25.68,26.91-38.94,39.94c-32.01,31.9-65.22,62.56-98.83,92.63
			c-254.1,227.34-403.27,598-161.01,833.25c303.42,271.08,598.01,25.31,797.95-270.89c92.02-136.49,195.36-265.26,313.89-379.53
			c89.86-86.59,184.67-166.2,284.06-241.25c88.53-66.98,182.1-127.1,277.69-183.62c501.35-296.21,448.77-931.29-84.67-991.02
			C1587.97,29.94,1419.12,68.21,1275.48,153.93z" />
		</g>
		<g class="st1">
			<path class="st2" d="M148.01,2095.48c-136.09-232.33,6.48-544.42,230.69-745.1c33.57-30.14,66.8-60.81,98.87-92.6
			c13.27-13.1,26.17-26.37,38.85-40.03c23.54-25.21,46.42-50.1,68.56-75.18c145.5-163.88,264.79-328.17,376.64-527.31
			c46.35-82.42,101.7-159.64,166.33-228.72c18.95-20.31,38.86-40.15,59.72-59.28c50.3,33.94,142.96-15.01,130.02-99.47
			c2.82-1.9,5.75-3.66,8.54-5.31c143.71-85.64,312.56-123.89,480.34-105.17c141.15,15.76,248.6,71.87,321.05,151.3
			c-67.94-115.14-192.83-199.92-371.85-220c-167.78-18.72-336.64,19.66-480.35,105.3c-34.1,20.37-66.66,43.28-97.55,68.85
			c-12.51,10.27-24.68,20.94-36.48,31.65c-22.5,20.5-43.91,41.61-64.25,63.43c-64.62,69.08-119.99,146.42-166.34,228.84
			c-111.85,199.15-231.13,363.43-376.64,527.31c-22.13,24.95-45.02,49.97-68.56,75.18c-12.67,13.54-25.58,26.92-38.84,39.9
			c-32.08,31.91-65.31,62.58-98.87,92.6C80.69,1502.82-67.18,1859.65,148.01,2095.48z" />
		</g>
		<g class="st3">
			<path class="st4" d="M115.25,2064.47c12.58,16.38,26.58,32.37,42.42,47.64c303.38,271.07,597.94,25.3,797.95-270.92
			c91.98-136.5,195.41-265.31,313.84-379.55c89.88-86.57,184.71-166.13,284.07-241.27c88.55-66.99,182.18-127.09,277.77-183.62
			c385.13-227.63,443.37-655.17,207.63-868.18c173.33,225.11,95.65,603.6-258.6,812.98c-95.59,56.53-189.22,116.63-277.77,183.62
			c-99.36,75.13-194.19,154.7-284.07,241.27c-107.81,103.93-203.05,219.95-288.79,342.86l-113.39-2.6l47.86,96.47
			C668.17,2109.43,395.94,2306.29,115.25,2064.47z" />
		</g>
		<g>
			<path class="st4" d="M137.53,2147.86c-0.46-0.41-0.91-0.83-1.34-1.25C44.55,2057.63-2.5,1942.91,0.1,1814.85
			c3.88-190.6,115.43-402.15,298.39-565.91c38.5-34.47,88.64-80.37,134.97-129.87c182.2-194.66,317.57-377.82,438.95-593.9
			c49.26-87.69,107.32-167.55,172.58-237.33c33.79-36.13,69.02-69.42,104.74-98.95c170.81-141.24,393.52-208.39,611-183.93l0,0
			c242.35,27.12,414.27,170.4,459.88,383.28c54.38,253.8-89.39,530.84-357.75,689.38c-105.92,62.58-195.4,121.72-273.54,180.81
			c-103.78,78.46-195.37,156.27-280.01,237.87c-109.18,105.24-209.94,227.06-308.04,372.43
			c-114.36,169.44-296.47,377.13-514.69,404.34c-27.27,3.4-54.32,3.92-81.14,1.58C312.67,2266.51,222.85,2224.07,137.53,2147.86z
			 M1750.94,92.42c-193.95-21.64-392.59,38.17-545.12,164.29c-32.83,27.15-65.31,57.85-96.54,91.24
			c-60.44,64.64-114.31,138.76-160.12,220.32c-124.98,222.49-264.2,410.92-451.42,610.94c-48.7,52.02-100.68,99.64-140.53,135.31
			C194.57,1460.1,91.46,1652.49,88.12,1816.64c-2.12,104.18,34.47,193.75,108.74,266.19c89.99,80.12,183.79,114.72,278.82,102.87
			c185.41-23.12,348.47-211.92,452.61-366.24c101.6-150.54,206.25-276.98,319.91-386.55c87.2-84.07,181.41-164.12,288.02-244.72
			c80.83-61.12,173.03-122.09,281.86-186.38c272.23-160.82,355.09-414.79,316.45-595.15
			C2097.23,232.61,1953.83,115.14,1750.94,92.42L1750.94,92.42z M1755.7,48.67l0.14,0.01L1755.7,48.67z" />
		</g>
		<g>
			<path class="st4"
				d="M859.85,1773.33c0.58,0.05,1.17,0.09,1.76,0.12c290.94,14.59,534.3-82.94,685.26-274.6
			c154.04-195.6,192.59-468.51,109.41-770.67l144.83-179.94c16.12-20.03,12.95-49.33-7.07-65.45
			c-20.03-16.14-49.33-12.94-65.45,7.07l-159.94,198.7c-9.57,11.89-12.7,27.71-8.39,42.35c83.05,281.77,52.32,534.03-86.53,710.33
			c-131.76,167.3-347.49,252.25-607.45,239.22c-25.68-1.29-47.53,18.48-48.82,44.16C816.19,1749.72,835.04,1771.16,859.85,1773.33z" />
		</g>
		<g>
			<path class="st4" d="M485.69,1408.66c4.6,0.4,9.34,0.12,14.09-0.93c25.11-5.53,40.97-30.37,35.44-55.48
			c-50.92-231,5.65-427.49,159.31-553.3c208.34-170.56,558.3-185.74,891.58-38.62c23.51,10.37,51-0.26,61.38-23.79
			c10.38-23.52-0.27-51-23.79-61.38c-365.08-161.14-752.92-140.82-988.15,51.76c-182.19,149.15-250.11,378.35-191.25,645.36
			C448.8,1392.65,465.98,1406.93,485.69,1408.66z" />
		</g>
		<g>
			<ellipse transform="matrix(0.5571 -0.8305 0.8305 0.5571 350.6493 1695.5555)" class="st4" cx="1764.85" cy="519.06"
				rx="81.51" ry="81.51" />
		</g>
		<g>
			<ellipse transform="matrix(0.2301 -0.9732 0.9732 0.2301 -1015.5257 2170.489)" class="st4" cx="863.95" cy="1727.04"
				rx="72.52" ry="72.52" />
		</g>
		<g>
			<ellipse transform="matrix(0.0214 -0.9998 0.9998 0.0214 -877.5091 1826.9585)" class="st4" cx="494.48" cy="1361.72"
				rx="72.52" ry="72.52" />
		</g>
	</g>
</svg>