<?xml version="1.0" encoding="utf-8"?>
<!-- Generator: Adobe Illustrator 25.4.1, SVG Export Plug-In . SVG Version: 6.00 Build 0)  -->
<svg version="1.1" id="flip_flop" xmlns="http://www.w3.org/2000/svg" xmlns:xlink="http://www.w3.org/1999/xlink" x="0px" y="0px"
	 viewBox="0 0 178.5 196.8" style="enable-background:new 0 0 178.5 196.8;" xml:space="preserve">
<style type="text/css">
	.st0{fill:#B2D233;}
	.st1{fill:#00983C;}
	.st2{fill:#EE3A1C;}
	.st3{fill:#A9AD3E;}
	.st4{fill:#006B2A;}
	.st5{fill:#005722;}
	.st6{fill:#096C37;}
</style>
<g>
	<g>
		<path class="st0" d="M7.7,101.7c14.3,54.8,2.5,95.8,41.6,95c53.5-1.1,13.4-60.9,22.2-102.4c4-19,5.1-35.3,3.9-50.5
			C73.2,16.4,69.9-2.4,39.5,0.2c-13.2,1.2-24.4,9.8-31,21c-5.3,8.9-7.9,19.3-8.4,29.6c-0.5,9.5,0.8,19.1,2.5,28.4
			C4,86.8,5.7,94.3,7.7,101.7z"/>
		<g>
			<g>
				<path class="st1" d="M60.8,175.9c2.7,7,0,14.6-5.9,16.8l-9.7-25.5C51.2,165,58.1,168.8,60.8,175.9z"/>
				<path class="st2" d="M59.1,176.5c2.2,5.9,0,12.2-5,14.1L46,169.3C51,167.4,56.8,170.6,59.1,176.5z"/>
				<g>
					<path d="M55.2,187.5c0.6,0.3,1.1,0.2,1.3-0.3c0.2-0.5,0.1-1-0.6-1.2c-0.6-0.3-1.6,0.2-1.6,0.1
						C54.4,186.1,54.6,187.1,55.2,187.5z"/>
				</g>
				<g>
					<path d="M56.8,184.7c0.7,0.1,1.1-0.3,1.1-0.7c0-0.5-0.3-0.9-1-0.9c-0.7,0-1.4,0.7-1.4,0.7C55.6,183.8,56.2,184.6,56.8,184.7z"
						/>
				</g>
				<g>
					<path d="M57.2,181.5c0.7-0.1,1-0.5,0.9-1c-0.1-0.5-0.5-0.8-1.2-0.7c-0.7,0.1-1.2,1-1.2,1C55.7,180.9,56.5,181.5,57.2,181.5z"/>
				</g>
				<g>
					<path d="M56.5,178.1c0.6-0.2,0.9-0.7,0.7-1.1c-0.2-0.5-0.7-0.7-1.3-0.4c-0.6,0.3-1,1.3-1,1.2C54.9,177.8,55.8,178.3,56.5,178.1
						z"/>
				</g>
				<g>
					<path d="M55.1,174.9c0.6-0.3,0.7-0.9,0.4-1.3c-0.3-0.4-0.8-0.5-1.3-0.1c-0.5,0.4-0.7,1.4-0.7,1.4
						C53.5,175,54.5,175.2,55.1,174.9z"/>
				</g>
				<g>
					<path d="M52.9,172.4c0.5-0.5,0.5-1,0.1-1.3c-0.4-0.3-0.9-0.3-1.3,0.2c-0.4,0.5-0.3,1.6-0.4,1.6
						C51.4,172.8,52.4,172.9,52.9,172.4z"/>
				</g>
				<g>
					<path d="M50.3,171c0.3-0.6,0.1-1.1-0.4-1.3c-0.5-0.2-1,0.1-1.2,0.7C48.5,171,49,172,49,172C49,172,50,171.6,50.3,171z"/>
				</g>
			</g>
			<g>
				<path class="st1" d="M41.2,180.7c-3.4,4.5-9.3,5.8-13,2.9l12.4-16.2C44.3,170.2,44.6,176.2,41.2,180.7z"/>
				<path class="st2" d="M40.1,179.8c-2.9,3.8-7.8,4.8-10.9,2.4l10.4-13.6C42.7,171.1,43,176.1,40.1,179.8z"/>
				<g>
					<path d="M31.6,181.7c0,0.5,0.3,0.8,0.7,0.7c0.4,0,0.6-0.4,0.6-0.9c-0.1-0.5-0.7-1-0.7-1C32.2,180.6,31.6,181.2,31.6,181.7z"/>
				</g>
				<g>
					<path d="M34,181.7c0.2,0.5,0.6,0.6,0.9,0.4c0.3-0.2,0.4-0.6,0.2-1c-0.3-0.4-1-0.6-1-0.6C34.1,180.5,33.8,181.2,34,181.7z"/>
				</g>
				<g>
					<path d="M36.2,180.6c0.3,0.4,0.7,0.4,1,0.2c0.3-0.2,0.3-0.6,0-1c-0.3-0.4-1.1-0.4-1.1-0.4C36,179.4,35.9,180.2,36.2,180.6z"/>
				</g>
				<g>
					<path d="M38.1,178.8c0.4,0.3,0.8,0.3,1,0c0.2-0.3,0.2-0.7-0.3-1c-0.4-0.3-1.2-0.1-1.2-0.1C37.6,177.7,37.7,178.5,38.1,178.8z"
						/>
				</g>
				<g>
					<path d="M39.5,176.6c0.4,0.2,0.8,0.1,1-0.2c0.2-0.3,0-0.7-0.5-0.9c-0.5-0.2-1.2,0.1-1.2,0.1C38.9,175.7,39.1,176.4,39.5,176.6z
						"/>
				</g>
				<g>
					<path d="M40.3,174.3c0.5,0.1,0.8-0.1,0.9-0.4c0.1-0.4-0.2-0.7-0.6-0.8c-0.5-0.1-1.1,0.4-1.1,0.4
						C39.4,173.5,39.8,174.2,40.3,174.3z"/>
				</g>
				<g>
					<path d="M40.1,172.1c0.5-0.1,0.7-0.4,0.7-0.8c-0.1-0.4-0.4-0.6-0.9-0.5c-0.5,0.1-0.9,0.8-0.9,0.8
						C39,171.6,39.6,172.1,40.1,172.1z"/>
				</g>
			</g>
			<g>
				<path class="st1" d="M25,151.6c2.4-8.1,9.8-13,16.6-11l-8.5,29.3C26.3,167.9,22.7,159.7,25,151.6z"/>
				<path class="st2" d="M27,152.2c2-6.8,8.2-10.9,14-9.3l-7.2,24.6C28.1,165.8,25,159,27,152.2z"/>
				<g>
					<path d="M37.9,145c-0.3-0.7-0.9-0.9-1.4-0.6c-0.5,0.3-0.7,0.8-0.3,1.5c0.4,0.6,1.5,0.9,1.5,1C37.7,146.8,38.2,145.7,37.9,145z"
						/>
				</g>
				<g>
					<path d="M34.5,146.4c-0.5-0.5-1.1-0.5-1.5-0.1c-0.4,0.4-0.3,1,0.3,1.5c0.6,0.5,1.8,0.3,1.8,0.3
						C35.1,148.1,35.1,146.9,34.5,146.4z"/>
				</g>
				<g>
					<path d="M32.1,149.1c-0.6-0.4-1.2-0.2-1.5,0.2c-0.3,0.5-0.1,1.1,0.6,1.4c0.7,0.3,1.8-0.1,1.8-0.1
						C32.9,150.6,32.7,149.5,32.1,149.1z"/>
				</g>
				<g>
					<path d="M30.4,152.6c-0.7-0.3-1.2,0-1.4,0.5c-0.2,0.5,0.2,1,0.9,1.2c0.7,0.2,1.7-0.5,1.7-0.4C31.6,153.9,31.1,152.8,30.4,152.6
						z"/>
				</g>
				<g>
					<path d="M29.5,156.3c-0.7-0.1-1.2,0.3-1.2,0.8c0,0.5,0.4,1,1.1,1c0.7,0,1.6-0.8,1.6-0.8C31,157.4,30.3,156.5,29.5,156.3z"/>
				</g>
				<g>
					<path d="M29.7,160c-0.7,0.1-1.1,0.6-1,1.1c0.1,0.5,0.6,0.9,1.3,0.7c0.7-0.2,1.4-1.2,1.4-1.2C31.4,160.7,30.5,159.9,29.7,160z"
						/>
				</g>
				<g>
					<path d="M31.1,163.1c-0.7,0.4-0.8,1-0.5,1.4c0.3,0.5,0.9,0.6,1.5,0.2c0.6-0.4,0.8-1.6,0.8-1.6
						C32.9,163.1,31.8,162.7,31.1,163.1z"/>
				</g>
			</g>
			<g>
				<path class="st1" d="M58.1,138.8c4.1,3.8,10.1,4.1,13.3,0.6l-15-13.8C53.2,129.1,54,135,58.1,138.8z"/>
				<path class="st2" d="M59,137.8c3.5,3.2,8.5,3.4,11.2,0.5l-12.6-11.6C55,129.6,55.6,134.6,59,137.8z"/>
				<g>
					<path d="M67.7,138.1c0.1,0.5-0.2,0.8-0.6,0.9c-0.4,0-0.7-0.2-0.7-0.7c0-0.5,0.6-1.1,0.5-1.1C67,137.2,67.7,137.6,67.7,138.1z"
						/>
				</g>
				<g>
					<path d="M65.4,138.5c-0.1,0.5-0.5,0.7-0.8,0.6c-0.4-0.1-0.5-0.5-0.4-0.9c0.2-0.5,0.9-0.8,0.9-0.8
						C65.1,137.4,65.5,138,65.4,138.5z"/>
				</g>
				<g>
					<path d="M63,137.8c-0.2,0.4-0.6,0.6-0.9,0.4c-0.3-0.2-0.4-0.6-0.1-1c0.3-0.4,1-0.6,1-0.6C63,136.6,63.2,137.4,63,137.8z"/>
				</g>
				<g>
					<path d="M60.8,136.4c-0.3,0.4-0.7,0.4-1,0.2c-0.3-0.2-0.3-0.6,0.1-1c0.4-0.3,1.1-0.3,1.1-0.3C61.1,135.2,61.1,136,60.8,136.4z"
						/>
				</g>
				<g>
					<path d="M59,134.5c-0.4,0.3-0.8,0.3-1,0c-0.2-0.3-0.1-0.7,0.3-1c0.4-0.3,1.2-0.1,1.2-0.1C59.5,133.4,59.4,134.2,59,134.5z"/>
				</g>
				<g>
					<path d="M57.9,132.4c-0.5,0.2-0.8,0.1-1-0.3c-0.1-0.3,0-0.7,0.5-0.9c0.5-0.2,1.2,0.2,1.2,0.2C58.6,131.4,58.3,132.1,57.9,132.4
						z"/>
				</g>
				<g>
					<path d="M57.6,130.1c-0.5,0-0.8-0.3-0.8-0.7c0-0.4,0.3-0.7,0.8-0.6c0.5,0.1,1,0.7,1,0.7C58.7,129.5,58.1,130.1,57.6,130.1z"/>
				</g>
			</g>
			<g>
				<path class="st1" d="M51.9,161.6c-5.9-4.9-7.3-12.8-3.2-17.8L70,161.4C65.8,166.4,57.7,166.4,51.9,161.6z"/>
				<path class="st2" d="M53.1,160.1c-4.9-4.1-6.1-10.8-2.7-14.9L68.2,160C64.8,164.1,58,164.2,53.1,160.1z"/>
				<g>
					<path d="M51,148.5c-0.7,0-1.1,0.4-1,0.9c0,0.5,0.4,0.9,1.1,0.8c0.7-0.1,1.3-0.9,1.3-0.9C52.4,149.3,51.7,148.5,51,148.5z"/>
				</g>
				<g>
					<path d="M50.9,151.8c-0.6,0.3-0.8,0.8-0.6,1.2c0.2,0.5,0.7,0.6,1.3,0.3c0.6-0.3,0.9-1.4,0.9-1.4
						C52.5,152,51.6,151.5,50.9,151.8z"/>
				</g>
				<g>
					<path d="M52.3,154.8c-0.6,0.4-0.6,0.9-0.3,1.3c0.3,0.4,0.8,0.4,1.4,0c0.5-0.5,0.6-1.5,0.6-1.5
						C53.9,154.6,52.8,154.4,52.3,154.8z"/>
				</g>
				<g>
					<path d="M54.6,157.5c-0.5,0.5-0.4,1-0.1,1.4c0.4,0.3,0.9,0.2,1.3-0.3c0.4-0.6,0.2-1.6,0.3-1.6C56.1,156.9,55.1,157,54.6,157.5z
						"/>
				</g>
				<g>
					<path d="M57.4,159.6c-0.3,0.6-0.2,1.1,0.2,1.3c0.4,0.2,1,0,1.2-0.6c0.3-0.6-0.1-1.6-0.1-1.6C58.8,158.7,57.8,159,57.4,159.6z"
						/>
				</g>
				<g>
					<path d="M60.5,160.7c-0.2,0.6,0.1,1.1,0.5,1.3c0.5,0.1,1-0.2,1.1-0.8c0.1-0.7-0.5-1.6-0.5-1.6C61.7,159.6,60.8,160,60.5,160.7z
						"/>
				</g>
				<g>
					<path d="M63.6,160.6c0.1,0.7,0.5,1,1,0.9c0.5-0.1,0.8-0.5,0.7-1.2c-0.2-0.7-1.1-1.2-1.1-1.2C64.2,159.1,63.5,159.9,63.6,160.6z
						"/>
				</g>
			</g>
			<g>
				<path class="st1" d="M50.6,121c2.7,7,0,14.6-5.9,16.8L35,112.3C40.9,110.1,47.9,113.9,50.6,121z"/>
				<path class="st2" d="M48.8,121.6c2.2,5.9,0,12.2-5,14.1l-8.1-21.4C40.7,112.5,46.6,115.7,48.8,121.6z"/>
				<g>
					<path d="M44.9,132.6c0.6,0.3,1.1,0.2,1.3-0.3c0.2-0.5,0.1-1-0.6-1.2c-0.6-0.3-1.6,0.2-1.6,0.1
						C44.1,131.2,44.4,132.2,44.9,132.6z"/>
				</g>
				<g>
					<path d="M46.6,129.8c0.7,0.1,1.1-0.3,1.1-0.7c0-0.5-0.3-0.9-1-0.9c-0.7,0-1.4,0.7-1.4,0.7C45.3,128.9,45.9,129.7,46.6,129.8z"
						/>
				</g>
				<g>
					<path d="M46.9,126.6c0.7-0.1,1-0.5,0.9-1c-0.1-0.5-0.5-0.8-1.2-0.7c-0.7,0.1-1.2,1-1.2,1C45.5,126,46.3,126.6,46.9,126.6z"/>
				</g>
				<g>
					<path d="M46.2,123.2c0.6-0.2,0.9-0.7,0.7-1.1c-0.2-0.5-0.7-0.7-1.3-0.4c-0.6,0.3-1,1.3-1,1.2C44.7,122.9,45.6,123.4,46.2,123.2
						z"/>
				</g>
				<g>
					<path d="M44.8,120c0.6-0.3,0.7-0.9,0.4-1.3c-0.3-0.4-0.8-0.5-1.3-0.1c-0.5,0.4-0.7,1.4-0.7,1.4C43.2,120.1,44.2,120.3,44.8,120
						z"/>
				</g>
				<g>
					<path d="M42.7,117.5c0.5-0.5,0.5-1,0.1-1.3c-0.4-0.3-0.9-0.3-1.3,0.2c-0.4,0.5-0.3,1.6-0.4,1.6C41.1,117.9,42.2,118,42.7,117.5
						z"/>
				</g>
				<g>
					<path d="M40,116.1c0.3-0.6,0.1-1.1-0.4-1.3c-0.5-0.2-1,0.1-1.2,0.7c-0.2,0.6,0.3,1.6,0.3,1.6C38.8,117.1,39.8,116.7,40,116.1z"
						/>
				</g>
			</g>
			<g>
				<path class="st1" d="M29.5,129.4c-3.4,4.5-9.3,5.8-13,2.9L28.9,116C32.6,118.9,32.9,124.9,29.5,129.4z"/>
				<path class="st2" d="M28.4,128.5c-2.9,3.8-7.8,4.8-10.9,2.4l10.4-13.6C31,119.7,31.3,124.8,28.4,128.5z"/>
				<g>
					<path d="M19.9,130.4c0,0.5,0.3,0.8,0.7,0.7c0.4,0,0.6-0.4,0.6-0.9c-0.1-0.5-0.7-1-0.7-1C20.5,129.3,19.9,129.9,19.9,130.4z"/>
				</g>
				<g>
					<path d="M22.3,130.3c0.2,0.5,0.6,0.6,0.9,0.4c0.3-0.2,0.4-0.6,0.2-1c-0.3-0.4-1-0.6-1-0.6C22.4,129.1,22.1,129.9,22.3,130.3z"
						/>
				</g>
				<g>
					<path d="M24.5,129.3c0.3,0.4,0.7,0.4,1,0.2c0.3-0.2,0.3-0.6,0-1c-0.3-0.4-1.1-0.4-1.1-0.4C24.3,128.1,24.2,128.9,24.5,129.3z"
						/>
				</g>
				<g>
					<path d="M26.4,127.5c0.4,0.3,0.8,0.3,1,0c0.2-0.3,0.2-0.7-0.3-1c-0.4-0.3-1.2-0.1-1.2-0.1C26,126.4,26,127.1,26.4,127.5z"/>
				</g>
				<g>
					<path d="M27.9,125.3c0.4,0.2,0.8,0.1,1-0.2c0.2-0.3,0-0.7-0.5-0.9c-0.5-0.2-1.2,0.1-1.2,0.1C27.2,124.3,27.4,125.1,27.9,125.3z
						"/>
				</g>
				<g>
					<path d="M28.6,123c0.5,0.1,0.8-0.1,0.9-0.4c0.1-0.4-0.2-0.7-0.6-0.8c-0.5-0.1-1.1,0.4-1.1,0.4C27.7,122.2,28.1,122.8,28.6,123z
						"/>
				</g>
				<g>
					<path d="M28.5,120.7c0.5-0.1,0.7-0.4,0.7-0.8c-0.1-0.4-0.4-0.6-0.9-0.5c-0.5,0.1-0.9,0.8-0.9,0.8
						C27.3,120.3,28,120.8,28.5,120.7z"/>
				</g>
			</g>
			<g>
				<path class="st1" d="M12,96.5c2.4-8.1,9.8-13,16.6-11l-8.5,29.3C13.2,112.8,9.6,104.6,12,96.5z"/>
				<path class="st2" d="M14,97.1c2-6.8,8.2-10.9,14-9.3l-7.2,24.6C15,110.8,12,103.9,14,97.1z"/>
				<g>
					<path d="M24.8,90c-0.3-0.7-0.9-0.9-1.4-0.6c-0.5,0.3-0.7,0.8-0.3,1.5c0.4,0.6,1.5,0.9,1.5,1C24.6,91.8,25.1,90.6,24.8,90z"/>
				</g>
				<g>
					<path d="M21.5,91.3c-0.5-0.5-1.1-0.5-1.5-0.1c-0.4,0.4-0.3,1,0.3,1.5C20.8,93.1,22,93,22,93C22,93,22,91.8,21.5,91.3z"/>
				</g>
				<g>
					<path d="M19,94c-0.6-0.4-1.2-0.2-1.5,0.2c-0.3,0.5-0.1,1.1,0.6,1.4c0.7,0.3,1.8-0.1,1.8-0.1C19.9,95.5,19.6,94.4,19,94z"/>
				</g>
				<g>
					<path d="M17.3,97.5c-0.7-0.3-1.2,0-1.4,0.5c-0.2,0.5,0.2,1,0.9,1.2c0.7,0.2,1.7-0.5,1.7-0.4C18.5,98.8,18,97.8,17.3,97.5z"/>
				</g>
				<g>
					<path d="M16.4,101.3c-0.7-0.1-1.2,0.3-1.2,0.8c0,0.5,0.4,1,1.1,1c0.7,0,1.6-0.8,1.6-0.8C17.9,102.3,17.2,101.4,16.4,101.3z"/>
				</g>
				<g>
					<path d="M16.7,104.9c-0.7,0.1-1.1,0.6-1,1.1c0.1,0.5,0.6,0.9,1.3,0.7c0.7-0.2,1.4-1.2,1.4-1.2
						C18.3,105.6,17.4,104.9,16.7,104.9z"/>
				</g>
				<g>
					<path d="M18.1,108c-0.7,0.4-0.8,1-0.5,1.4c0.3,0.5,0.9,0.6,1.5,0.2c0.6-0.4,0.8-1.6,0.8-1.6C19.9,108,18.7,107.6,18.1,108z"/>
				</g>
			</g>
			<g>
				<path class="st1" d="M45,83.7c4.1,3.8,10.1,4.1,13.3,0.6l-15-13.8C40.2,74,40.9,79.9,45,83.7z"/>
				<path class="st2" d="M46,82.7c3.5,3.2,8.5,3.4,11.2,0.5L44.6,71.6C41.9,74.5,42.5,79.5,46,82.7z"/>
				<g>
					<path d="M54.7,83.1c0.1,0.5-0.2,0.8-0.6,0.9c-0.4,0-0.7-0.2-0.7-0.7c0-0.5,0.6-1.1,0.5-1.1C53.9,82.1,54.6,82.6,54.7,83.1z"/>
				</g>
				<g>
					<path d="M52.3,83.4c-0.1,0.5-0.5,0.7-0.8,0.6c-0.4-0.1-0.5-0.5-0.4-0.9c0.2-0.5,0.9-0.8,0.9-0.8C52,82.3,52.4,83,52.3,83.4z"/>
				</g>
				<g>
					<path d="M49.9,82.8c-0.2,0.4-0.6,0.6-0.9,0.4c-0.3-0.2-0.4-0.6-0.1-1c0.3-0.4,1-0.6,1-0.6C49.9,81.6,50.2,82.3,49.9,82.8z"/>
				</g>
				<g>
					<path d="M47.8,81.3c-0.3,0.4-0.7,0.4-1,0.2c-0.3-0.2-0.3-0.6,0.1-1c0.4-0.3,1.1-0.3,1.1-0.3C48,80.2,48.1,80.9,47.8,81.3z"/>
				</g>
				<g>
					<path d="M46,79.5c-0.4,0.3-0.8,0.3-1,0c-0.2-0.3-0.1-0.7,0.3-1c0.4-0.3,1.2-0.1,1.2-0.1C46.5,78.4,46.4,79.1,46,79.5z"/>
				</g>
				<g>
					<path d="M44.8,77.3c-0.5,0.2-0.8,0.1-1-0.3c-0.1-0.3,0-0.7,0.5-0.9c0.5-0.2,1.2,0.2,1.2,0.2C45.5,76.3,45.3,77.1,44.8,77.3z"/>
				</g>
				<g>
					<path d="M44.6,75.1c-0.5,0-0.8-0.3-0.8-0.7c0-0.4,0.3-0.7,0.8-0.6c0.5,0.1,1,0.7,1,0.7C45.6,74.4,45.1,75,44.6,75.1z"/>
				</g>
			</g>
			<g>
				<path class="st1" d="M42.6,106.2c-5.9-4.9-7.3-12.8-3.2-17.8l21.3,17.6C56.6,111,48.5,111.1,42.6,106.2z"/>
				<path class="st2" d="M43.8,104.8c-4.9-4.1-6.1-10.8-2.7-14.9L59,104.6C55.6,108.8,48.8,108.9,43.8,104.8z"/>
				<g>
					<path d="M41.8,93.2c-0.7,0-1.1,0.4-1,0.9c0,0.5,0.4,0.9,1.1,0.8c0.7-0.1,1.3-0.9,1.3-0.9C43.2,94,42.5,93.2,41.8,93.2z"/>
				</g>
				<g>
					<path d="M41.7,96.4c-0.6,0.3-0.8,0.8-0.6,1.2c0.2,0.5,0.7,0.6,1.3,0.3c0.6-0.3,0.9-1.4,0.9-1.4C43.3,96.6,42.3,96.2,41.7,96.4z
						"/>
				</g>
				<g>
					<path d="M43,99.5c-0.6,0.4-0.6,0.9-0.3,1.3c0.3,0.4,0.8,0.4,1.4,0c0.5-0.5,0.6-1.5,0.6-1.5C44.7,99.3,43.6,99.1,43,99.5z"/>
				</g>
				<g>
					<path d="M45.4,102.1c-0.5,0.5-0.4,1-0.1,1.4c0.4,0.3,0.9,0.2,1.3-0.3c0.4-0.6,0.2-1.6,0.3-1.6
						C46.9,101.6,45.8,101.6,45.4,102.1z"/>
				</g>
				<g>
					<path d="M48.2,104.2c-0.3,0.6-0.2,1.1,0.2,1.3c0.4,0.2,1,0,1.2-0.6c0.3-0.6-0.1-1.6-0.1-1.6C49.6,103.4,48.5,103.6,48.2,104.2z
						"/>
				</g>
				<g>
					<path d="M51.3,105.3c-0.2,0.6,0.1,1.1,0.5,1.3c0.5,0.1,1-0.2,1.1-0.8c0.1-0.7-0.5-1.6-0.5-1.6
						C52.5,104.2,51.5,104.7,51.3,105.3z"/>
				</g>
				<g>
					<path d="M54.4,105.3c0.1,0.7,0.5,1,1,0.9c0.5-0.1,0.8-0.5,0.7-1.2c-0.2-0.7-1.1-1.2-1.1-1.2C55,103.8,54.3,104.6,54.4,105.3z"
						/>
				</g>
			</g>
			<g>
				<path class="st1" d="M34.6,64.5c2.7,7,0,14.6-5.9,16.8L19,55.8C24.9,53.6,31.9,57.5,34.6,64.5z"/>
				<path class="st2" d="M32.9,65.2c2.2,5.9,0,12.2-5,14.1l-8.1-21.4C24.8,56,30.6,59.3,32.9,65.2z"/>
				<g>
					<path d="M29,76.1c0.6,0.3,1.1,0.2,1.3-0.3c0.2-0.5,0.1-1-0.6-1.2c-0.6-0.3-1.6,0.2-1.6,0.1C28.1,74.7,28.4,75.8,29,76.1z"/>
				</g>
				<g>
					<path d="M30.6,73.4c0.7,0.1,1.1-0.3,1.1-0.7c0-0.5-0.3-0.9-1-0.9c-0.7,0-1.4,0.7-1.4,0.7C29.3,72.4,30,73.3,30.6,73.4z"/>
				</g>
				<g>
					<path d="M31,70.1c0.7-0.1,1-0.5,0.9-1c-0.1-0.5-0.5-0.8-1.2-0.7c-0.7,0.1-1.2,1-1.2,1C29.5,69.5,30.3,70.2,31,70.1z"/>
				</g>
				<g>
					<path d="M30.3,66.7c0.6-0.2,0.9-0.7,0.7-1.1c-0.2-0.5-0.7-0.7-1.3-0.4c-0.6,0.3-1,1.3-1,1.2C28.7,66.4,29.6,66.9,30.3,66.7z"/>
				</g>
				<g>
					<path d="M28.8,63.5c0.6-0.3,0.7-0.9,0.4-1.3c-0.3-0.4-0.8-0.5-1.3-0.1c-0.5,0.4-0.7,1.4-0.7,1.4C27.2,63.6,28.3,63.9,28.8,63.5
						z"/>
				</g>
				<g>
					<path d="M26.7,61c0.5-0.5,0.5-1,0.1-1.3c-0.4-0.3-0.9-0.3-1.3,0.2c-0.4,0.5-0.3,1.6-0.4,1.6C25.2,61.4,26.2,61.5,26.7,61z"/>
				</g>
				<g>
					<path d="M24.1,59.6c0.3-0.6,0.1-1.1-0.4-1.3c-0.5-0.2-1,0.1-1.2,0.7c-0.2,0.6,0.3,1.6,0.3,1.6C22.8,60.6,23.8,60.2,24.1,59.6z"
						/>
				</g>
			</g>
			<g>
				<path class="st1" d="M29.1,27.3c4.1,3.8,10.1,4.1,13.3,0.6L27.4,14C24.2,17.5,24.9,23.4,29.1,27.3z"/>
				<path class="st2" d="M30,26.2c3.5,3.2,8.5,3.4,11.2,0.5L28.6,15.1C25.9,18.1,26.5,23,30,26.2z"/>
				<g>
					<path d="M38.7,26.6c0.1,0.5-0.2,0.8-0.6,0.9c-0.4,0-0.7-0.2-0.7-0.7c0-0.5,0.6-1.1,0.5-1.1C38,25.6,38.6,26.1,38.7,26.6z"/>
				</g>
				<g>
					<path d="M36.3,27c-0.1,0.5-0.5,0.7-0.8,0.6c-0.4-0.1-0.5-0.5-0.4-0.9c0.2-0.5,0.9-0.8,0.9-0.8C36,25.8,36.4,26.5,36.3,27z"/>
				</g>
				<g>
					<path d="M34,26.3c-0.2,0.4-0.6,0.6-0.9,0.4c-0.3-0.2-0.4-0.6-0.1-1c0.3-0.4,1-0.6,1-0.6C33.9,25.1,34.2,25.8,34,26.3z"/>
				</g>
				<g>
					<path d="M31.8,24.9c-0.3,0.4-0.7,0.4-1,0.2c-0.3-0.2-0.3-0.6,0.1-1c0.4-0.3,1.1-0.3,1.1-0.3C32,23.7,32.1,24.5,31.8,24.9z"/>
				</g>
				<g>
					<path d="M30,23c-0.4,0.3-0.8,0.3-1,0c-0.2-0.3-0.1-0.7,0.3-1c0.4-0.3,1.2-0.1,1.2-0.1C30.5,21.9,30.4,22.7,30,23z"/>
				</g>
				<g>
					<path d="M28.9,20.8c-0.5,0.2-0.8,0.1-1-0.3c-0.1-0.3,0-0.7,0.5-0.9c0.5-0.1,1.2,0.2,1.2,0.2C29.6,19.9,29.3,20.6,28.9,20.8z"/>
				</g>
				<g>
					<path d="M28.6,18.6c-0.5,0-0.8-0.3-0.8-0.7c0-0.4,0.3-0.7,0.8-0.6c0.5,0.1,1,0.7,1,0.7C29.6,18,29.1,18.6,28.6,18.6z"/>
				</g>
			</g>
			<g>
				<path class="st1" d="M26.7,49.8c-5.9-4.9-7.3-12.8-3.2-17.8l21.3,17.6C40.6,54.6,32.5,54.6,26.7,49.8z"/>
				<path class="st2" d="M27.9,48.3c-4.9-4.1-6.1-10.8-2.7-14.9L43,48.2C39.6,52.3,32.8,52.4,27.9,48.3z"/>
				<g>
					<path d="M25.8,36.7c-0.7,0-1.1,0.4-1,0.9c0,0.5,0.4,0.9,1.1,0.8c0.7-0.1,1.3-0.9,1.3-0.9C27.2,37.5,26.5,36.7,25.8,36.7z"/>
				</g>
				<g>
					<path d="M25.7,40c-0.6,0.3-0.8,0.8-0.6,1.2c0.2,0.5,0.7,0.6,1.3,0.3c0.6-0.3,0.9-1.4,0.9-1.4C27.3,40.2,26.4,39.7,25.7,40z"/>
				</g>
				<g>
					<path d="M27.1,43c-0.6,0.4-0.6,0.9-0.3,1.3c0.3,0.4,0.8,0.4,1.4,0c0.5-0.5,0.6-1.5,0.6-1.5C28.7,42.8,27.6,42.6,27.1,43z"/>
				</g>
				<g>
					<path d="M29.4,45.7c-0.5,0.5-0.4,1-0.1,1.4c0.4,0.3,0.9,0.2,1.3-0.3c0.4-0.6,0.2-1.6,0.3-1.6C30.9,45.1,29.9,45.2,29.4,45.7z"
						/>
				</g>
				<g>
					<path d="M32.2,47.7c-0.3,0.6-0.2,1.1,0.2,1.3c0.4,0.2,1,0,1.2-0.6c0.3-0.6-0.1-1.6-0.1-1.6C33.6,46.9,32.6,47.2,32.2,47.7z"/>
				</g>
				<g>
					<path d="M35.3,48.9c-0.2,0.6,0.1,1.1,0.5,1.3c0.5,0.1,1-0.2,1.1-0.8c0.1-0.7-0.5-1.6-0.5-1.6C36.5,47.7,35.6,48.2,35.3,48.9z"
						/>
				</g>
				<g>
					<path d="M38.4,48.8c0.1,0.7,0.5,1,1,0.9c0.5-0.1,0.8-0.5,0.7-1.2C40,47.9,39,47.3,39,47.3C39,47.3,38.3,48.1,38.4,48.8z"/>
				</g>
			</g>
			<g>
				<path class="st1" d="M55.5,66.4c2.4-8.1,9.8-13,16.6-11l-8.5,29.3C56.8,82.6,53.2,74.5,55.5,66.4z"/>
				<path class="st2" d="M57.5,67c2-6.8,8.2-10.9,14-9.3l-7.2,24.6C58.6,80.6,55.6,73.8,57.5,67z"/>
				<g>
					<path d="M68.4,59.8c-0.3-0.7-0.9-0.9-1.4-0.6c-0.5,0.3-0.7,0.8-0.3,1.5c0.4,0.6,1.5,0.9,1.5,1C68.2,61.6,68.7,60.5,68.4,59.8z"
						/>
				</g>
				<g>
					<path d="M65.1,61.1c-0.5-0.5-1.1-0.5-1.5-0.1c-0.4,0.4-0.3,1,0.3,1.5c0.6,0.5,1.8,0.3,1.8,0.3C65.6,62.9,65.6,61.7,65.1,61.1z"
						/>
				</g>
				<g>
					<path d="M62.6,63.8c-0.6-0.4-1.2-0.2-1.5,0.2c-0.3,0.5-0.1,1.1,0.6,1.4c0.7,0.3,1.8-0.1,1.8-0.1C63.5,65.4,63.2,64.2,62.6,63.8
						z"/>
				</g>
				<g>
					<path d="M60.9,67.3c-0.7-0.3-1.2,0-1.4,0.5c-0.2,0.5,0.2,1,0.9,1.2c0.7,0.2,1.7-0.5,1.7-0.4C62.1,68.7,61.6,67.6,60.9,67.3z"/>
				</g>
				<g>
					<path d="M60,71.1c-0.7-0.1-1.2,0.3-1.2,0.8c0,0.5,0.4,1,1.1,1c0.7,0,1.6-0.8,1.6-0.8C61.5,72.2,60.8,71.2,60,71.1z"/>
				</g>
				<g>
					<path d="M60.3,74.8c-0.7,0.1-1.1,0.6-1,1.1c0.1,0.5,0.6,0.9,1.3,0.7c0.7-0.2,1.4-1.2,1.4-1.2C61.9,75.5,61,74.7,60.3,74.8z"/>
				</g>
				<g>
					<path d="M61.6,77.9c-0.7,0.4-0.8,1-0.5,1.4c0.3,0.5,0.9,0.6,1.5,0.2c0.6-0.4,0.8-1.6,0.8-1.6C63.5,77.9,62.3,77.5,61.6,77.9z"
						/>
				</g>
			</g>
			<g>
				<polygon class="st1" points="40.1,196 40.1,196 39.3,194 				"/>
				<path class="st1" d="M37.3,188.6l0.8,2.1c4.6-1.8,10,0.9,12.6,6.1c0.7,0,1.3-0.1,2-0.1C49.7,190,43,186.4,37.3,188.6z"/>
				<path class="st2" d="M38,190.6L38,190.6l1.3,3.4l0.8,2c2.7,0.6,5.7,0.8,9.2,0.7c0.5,0,0.9,0,1.4-0.1
					C48.1,191.6,42.7,188.9,38,190.6z M42.3,192.3c-0.3,0.6-1.3,1-1.3,1c0,0-0.5-0.9-0.3-1.6c0.2-0.6,0.7-0.9,1.2-0.7
					C42.4,191.2,42.6,191.7,42.3,192.3z M45,193.8c-0.5,0.4-1.6,0.4-1.5,0.4c0,0-0.1-1,0.4-1.6c0.4-0.5,1-0.5,1.3-0.2
					C45.5,192.8,45.5,193.3,45,193.8z M47.1,196.3c-0.6,0.3-1.6,0.1-1.6,0.1c0,0,0.2-1,0.7-1.4c0.5-0.4,1.1-0.3,1.3,0.1
					C47.8,195.4,47.7,195.9,47.1,196.3z"/>
				<path d="M46.2,194.9c-0.5,0.4-0.7,1.4-0.7,1.4c0,0,1,0.3,1.6-0.1c0.6-0.3,0.7-0.9,0.4-1.3C47.3,194.6,46.8,194.5,46.2,194.9z"/>
				<path d="M43.8,192.6c-0.4,0.5-0.3,1.6-0.4,1.6c0,0,1,0,1.5-0.4c0.5-0.5,0.5-1,0.1-1.3C44.8,192.1,44.2,192.1,43.8,192.6z"/>
				<path d="M41.9,191c-0.5-0.2-1,0.1-1.2,0.7c-0.2,0.6,0.3,1.6,0.3,1.6c0,0,1-0.4,1.3-1C42.6,191.7,42.4,191.2,41.9,191z"/>
				<path class="st1" d="M69.9,185.9c0.9,0.8,1.9,1.4,2.9,1.9c0.4-0.5,0.8-1,1.1-1.6c-1-0.5-1.9-1.1-2.8-1.8
					c-4.9-4.1-6.1-10.8-2.7-14.9l8.8,7.3v0l-10.5-8.7C62.6,173.1,64.1,181.1,69.9,185.9z"/>
				<path class="st2" d="M71.1,184.5c0.9,0.7,1.8,1.3,2.8,1.8c1.7-2.7,2.7-5.9,3.3-9.5l-8.8-7.3C65,173.7,66.2,180.4,71.1,184.5z
					 M72.7,181.8c0.5-0.5,1.5-0.5,1.5-0.5c0,0,0.1,1-0.3,1.6c-0.4,0.5-0.9,0.6-1.3,0.3C72.2,182.9,72.2,182.3,72.7,181.8z M72,179
					c0,0-0.1,1.1-0.6,1.5c-0.5,0.4-1.1,0.4-1.4,0c-0.3-0.4-0.2-0.9,0.3-1.3C70.9,178.8,72,179,72,179z M69.7,177.7
					c-0.6,0.3-1.1,0.2-1.3-0.3c-0.2-0.5,0-1,0.6-1.2c0.6-0.2,1.6,0.2,1.6,0.2C70.6,176.3,70.3,177.3,69.7,177.7z M70.5,173.7
					c0,0-0.7,0.8-1.3,0.9c-0.7,0.1-1.1-0.3-1.1-0.8c0-0.5,0.4-0.9,1-0.9C69.8,172.9,70.5,173.7,70.5,173.7z"/>
				<path d="M68.1,173.8c0,0.5,0.4,0.9,1.1,0.8c0.7-0.1,1.3-0.9,1.3-0.9c0,0-0.8-0.8-1.4-0.8C68.4,172.9,68,173.3,68.1,173.8z"/>
				<path d="M69,176.1c-0.6,0.3-0.8,0.8-0.6,1.2c0.2,0.5,0.7,0.6,1.3,0.3c0.6-0.3,0.9-1.4,0.9-1.4C70.6,176.3,69.6,175.9,69,176.1z"
					/>
				<path d="M70,180.5c0.3,0.4,0.8,0.4,1.4,0c0.5-0.5,0.6-1.5,0.6-1.5c0,0-1-0.2-1.6,0.2C69.8,179.6,69.7,180.1,70,180.5z"/>
				<path d="M73.9,182.9c0.4-0.6,0.2-1.6,0.3-1.6c0,0-1.1,0.1-1.5,0.5c-0.5,0.5-0.4,1-0.1,1.4C73,183.5,73.5,183.4,73.9,182.9z"/>
				<path class="st1" d="M30.4,173.4l-1.7-1.4c-2,2.4-5.1,3.4-8.3,3.1c0.2,0.7,0.4,1.4,0.6,2.1C24.7,177.4,28.2,176.1,30.4,173.4z"
					/>
				<path class="st2" d="M28.7,172L28.7,172l-10.9-9c0.7,4.4,1.5,8.5,2.6,12.1C23.6,175.4,26.7,174.4,28.7,172z M25.1,173.5
					c-0.5,0.1-1-0.3-1-0.9c-0.1-0.7,0.7-1.5,0.6-1.5c0,0,0.9,0.6,1.1,1.2C25.9,173,25.6,173.5,25.1,173.5z M21,172.7
					c0.2-0.6,1.2-1.1,1.2-1.1c0,0,0.6,0.9,0.5,1.6c-0.1,0.7-0.6,1-1.1,0.8C21,173.8,20.8,173.3,21,172.7z"/>
				<path d="M22.6,173.1c0.1-0.7-0.5-1.6-0.5-1.6c0,0-0.9,0.5-1.2,1.1c-0.2,0.6,0.1,1.1,0.5,1.3C22,174,22.5,173.8,22.6,173.1z"/>
				<path d="M24.7,171.1c0,0-0.7,0.8-0.6,1.5c0.1,0.7,0.5,1,1,0.9c0.5-0.1,0.8-0.5,0.7-1.2C25.6,171.7,24.7,171.1,24.7,171.1z"/>
				<path class="st1" d="M13.5,72.9c3.4-4.5,3.1-10.5-0.7-13.3L1.7,74.2v0l10.2-13.3c3.2,2.4,3.4,7.4,0.6,11.2
					C9.7,75.7,5,76.8,1.8,74.7c0.1,0.7,0.2,1.4,0.3,2C5.8,78.2,10.6,76.8,13.5,72.9z"/>
				<path class="st2" d="M12.4,72c2.9-3.8,2.6-8.8-0.6-11.2L1.7,74.2c0,0.2,0.1,0.3,0.1,0.5C5,76.8,9.7,75.7,12.4,72z M13.5,66.1
					c-0.1,0.4-0.4,0.6-0.9,0.4c-0.5-0.1-0.9-0.8-0.9-0.8c0,0,0.6-0.5,1.1-0.4C13.4,65.4,13.6,65.7,13.5,66.1z M12.2,63
					c0.5-0.1,0.8,0.1,0.9,0.5c0.1,0.4-0.2,0.7-0.7,0.8c-0.5,0.1-1.1-0.4-1.1-0.4C11.4,63.8,11.8,63.1,12.2,63z M12.4,67.7
					c0.5,0.2,0.6,0.6,0.5,0.9c-0.2,0.3-0.5,0.5-1,0.2c-0.4-0.2-0.7-1-0.7-1C11.2,67.9,11.9,67.6,12.4,67.7z M11.2,70
					c0.4,0.3,0.5,0.7,0.3,1c-0.2,0.3-0.6,0.3-1,0c-0.4-0.3-0.4-1.1-0.4-1.1C10,69.9,10.8,69.8,11.2,70z M8.4,71.6c0,0,0.8,0,1.1,0.4
					c0.3,0.4,0.3,0.8,0,1c-0.3,0.2-0.7,0.2-1-0.2C8.3,72.4,8.4,71.6,8.4,71.6z M6.4,72.7c0,0,0.8,0.2,1,0.6c0.3,0.4,0.1,0.8-0.2,1
					c-0.3,0.2-0.7,0-0.9-0.4C6.2,73.4,6.4,72.7,6.4,72.7z M4.7,74.6c-0.4,0-0.7-0.2-0.7-0.7c0-0.5,0.6-1.1,0.6-1.1
					c0,0,0.6,0.5,0.7,1C5.3,74.3,5,74.6,4.7,74.6z"/>
				<path d="M4.5,72.8c0,0-0.6,0.6-0.6,1.1c0,0.5,0.3,0.8,0.7,0.7c0.4,0,0.6-0.4,0.6-0.9C5.1,73.3,4.5,72.8,4.5,72.8z"/>
				<path d="M7.3,74.3c0.3-0.2,0.4-0.6,0.2-1c-0.3-0.4-1-0.6-1-0.6c0,0-0.3,0.7-0.1,1.2C6.6,74.3,6.9,74.5,7.3,74.3z"/>
				<path d="M9.5,73c0.3-0.2,0.3-0.6,0-1c-0.3-0.4-1.1-0.4-1.1-0.4c0,0-0.1,0.8,0.2,1.2C8.8,73.2,9.2,73.2,9.5,73z"/>
				<path d="M11.4,71c0.2-0.3,0.2-0.7-0.3-1c-0.4-0.3-1.2-0.1-1.2-0.1c0,0,0.1,0.8,0.4,1.1C10.8,71.3,11.2,71.3,11.4,71z"/>
				<path d="M11.9,68.8c0.4,0.2,0.8,0.1,1-0.2c0.2-0.3,0-0.7-0.5-0.9c-0.5-0.2-1.2,0.1-1.2,0.1C11.2,67.9,11.4,68.6,11.9,68.8z"/>
				<path d="M11.8,65.7c0,0,0.4,0.7,0.9,0.8c0.5,0.1,0.8-0.1,0.9-0.4c0.1-0.4-0.2-0.7-0.6-0.8C12.4,65.2,11.8,65.7,11.8,65.7z"/>
				<path d="M13.1,63.5c-0.1-0.4-0.4-0.6-0.9-0.5c-0.5,0.1-0.9,0.8-0.9,0.8c0,0,0.6,0.5,1.1,0.4C13,64.2,13.2,63.9,13.1,63.5z"/>
				<path class="st1" d="M4.8,56c-1.9-0.6-3.5-1.7-4.7-3.2c0,1.1,0,2.2,0,3.4c1.2,1,2.5,1.8,4.1,2.2L4.8,56z"/>
				<path class="st1" d="M11.9,31.4l-3.5,12L12.6,29c-2.8-0.8-5.7-0.5-8.2,0.8C4,30.9,3.6,32,3.2,33.1C5.8,31.2,9,30.5,11.9,31.4z"
					/>
				<path class="st2" d="M4.8,56L4.8,56l3.7-12.6l3.5-12c-3-0.9-6.1-0.2-8.7,1.7c-0.4,1.4-0.9,2.8-1.2,4.3c0.3-0.1,0.6,0,1,0.2
					c0.6,0.4,0.9,1.5,0.9,1.5c0,0-1.1,0.4-1.8,0.1C2,39,1.8,38.9,1.7,38.8c-0.2,0.7-0.3,1.5-0.4,2.2c0,0,0.1,0,0.1,0
					c0.7,0.3,1.2,1.3,1.2,1.3c0,0-0.9,0.5-1.6,0.5c-0.1,0.7-0.2,1.4-0.3,2.1c0.7,0.2,1.3,1,1.3,1c0,0-0.8,0.7-1.5,0.8
					c-0.1,0.7-0.1,1.3-0.2,2c0.1-0.1,0.3-0.1,0.4-0.1c0.7-0.1,1.7,0.7,1.7,0.7c0,0-0.6,1-1.4,1.2c-0.3,0.1-0.6,0-0.8-0.1
					c0,0.2,0,0.4,0,0.6c0,0.7,0,1.3-0.1,2C1.3,54.3,2.9,55.4,4.8,56z M7.5,32.8c0.5-0.3,1.1,0,1.4,0.6c0.3,0.7-0.2,1.8-0.2,1.8
					c0,0-1.2-0.3-1.5-1C6.7,33.7,6.9,33.1,7.5,32.8z M4,34.7c0.4-0.4,1-0.4,1.5,0.1C6,35.4,6,36.5,6,36.5c0,0-1.2,0.1-1.8-0.3
					C3.7,35.7,3.6,35.1,4,34.7z M2.1,51.5c0.7-0.3,1.8,0,1.8,0c0,0-0.2,1.2-0.8,1.6c-0.6,0.4-1.2,0.3-1.5-0.2
					C1.3,52.5,1.4,51.9,2.1,51.5z"/>
				<path d="M8.7,35.3c0,0,0.5-1.1,0.2-1.8c-0.3-0.7-0.9-0.9-1.4-0.6c-0.5,0.3-0.7,0.8-0.3,1.5C7.5,35,8.7,35.3,8.7,35.3z"/>
				<path d="M6,36.5c0,0,0-1.2-0.5-1.7C5,34.3,4.4,34.3,4,34.7c-0.4,0.4-0.3,1,0.3,1.5C4.9,36.7,6,36.5,6,36.5z"/>
				<path d="M2.1,39.1c0.7,0.3,1.8-0.1,1.8-0.1c0,0-0.3-1.1-0.9-1.5c-0.4-0.2-0.7-0.3-1-0.2c-0.1,0.5-0.2,1-0.3,1.5
					C1.8,38.9,2,39,2.1,39.1z"/>
				<path d="M2.6,42.3c0,0-0.5-1-1.2-1.3c0,0-0.1,0-0.1,0c-0.1,0.6-0.2,1.2-0.3,1.8C1.7,42.9,2.6,42.3,2.6,42.3z"/>
				<path d="M0.6,44.8c-0.1,0.6-0.1,1.2-0.2,1.8c0.7-0.1,1.5-0.8,1.5-0.8C1.9,45.8,1.3,45.1,0.6,44.8z"/>
				<path d="M1,50.3c0.7-0.2,1.4-1.2,1.4-1.2c0,0-0.9-0.7-1.7-0.7c-0.2,0-0.3,0.1-0.4,0.1c0,0.5-0.1,1.1-0.1,1.6
					C0.4,50.3,0.6,50.4,1,50.3z"/>
				<path d="M3.1,53.1c0.6-0.4,0.8-1.6,0.8-1.6c0,0-1.1-0.3-1.8,0c-0.7,0.4-0.8,1-0.5,1.4C1.9,53.5,2.5,53.6,3.1,53.1z"/>
				<path class="st1" d="M14.8,24.2l0.8,2.1c6-2.3,8.6-9.8,5.9-16.8c-0.2-0.6-0.5-1.2-0.8-1.8c-0.5,0.4-1,0.8-1.5,1.2
					c0.2,0.4,0.4,0.9,0.6,1.3C22,16,19.8,22.3,14.8,24.2z"/>
				<path class="st2" d="M14.8,24.2c5-1.9,7.2-8.2,5-14.1c-0.2-0.5-0.4-0.9-0.6-1.3c-0.5,0.4-1.1,0.9-1.6,1.4
					c0.1,0.1,0.2,0.2,0.3,0.4c0.2,0.5-0.1,0.9-0.7,1.1c-0.3,0.1-0.8,0-1.1-0.1c-1.5,1.5-2.9,3.1-4.3,4.8L14.8,24.2L14.8,24.2z
					 M17.7,13.4c0.7-0.1,1.1,0.2,1.2,0.7c0.1,0.5-0.3,0.9-0.9,1c-0.7,0-1.5-0.6-1.5-0.6C16.4,14.4,17,13.6,17.7,13.4z M17.7,16.6
					c0.7,0,1,0.4,1,0.9c0,0.5-0.5,0.8-1.1,0.7c-0.7-0.1-1.3-0.9-1.3-0.9C16.3,17.4,17,16.6,17.7,16.6z M16.7,19.5
					c0.6,0.3,0.8,0.8,0.6,1.2c-0.2,0.5-0.8,0.6-1.3,0.3c-0.6-0.3-0.8-1.4-0.8-1.4C15.1,19.7,16,19.3,16.7,19.5z"/>
				<path d="M15.9,21c0.6,0.3,1.1,0.2,1.3-0.3c0.2-0.5,0.1-1-0.6-1.2c-0.6-0.3-1.6,0.2-1.6,0.1C15.1,19.7,15.3,20.7,15.9,21z"/>
				<path d="M17.6,18.3c0.7,0.1,1.1-0.3,1.1-0.7c0-0.5-0.3-0.9-1-0.9c-0.7,0-1.4,0.7-1.4,0.7C16.3,17.3,16.9,18.2,17.6,18.3z"/>
				<path d="M18.8,14.1c-0.1-0.5-0.5-0.8-1.2-0.7c-0.7,0.1-1.2,1-1.2,1c0,0,0.8,0.7,1.5,0.6C18.6,15,18.9,14.6,18.8,14.1z"/>
				<path d="M17.2,11.6c0.6-0.2,0.9-0.7,0.7-1.1c-0.1-0.2-0.2-0.3-0.3-0.4c-0.5,0.5-1,0.9-1.5,1.4C16.4,11.6,16.8,11.7,17.2,11.6z"
					/>
				<path class="st1" d="M67.3,153l-1,1.3c2.8,2.1,6.7,2,10-0.1c-0.1-0.5-0.2-1-0.2-1.5C73.2,154.7,69.8,154.9,67.3,153z"/>
				<path class="st2" d="M67.3,153c2.5,1.9,5.9,1.6,8.7-0.3c-0.5-3-1-6-1.6-9.1L67.3,153L67.3,153z M70.5,153.2
					c-0.4,0-0.7-0.2-0.7-0.7c0-0.5,0.6-1.1,0.6-1.1c0,0,0.6,0.5,0.7,1C71.1,152.9,70.8,153.2,70.5,153.2z M73.1,152.9
					c-0.3,0.2-0.7,0-0.9-0.4c-0.2-0.5,0.1-1.2,0.1-1.2c0,0,0.8,0.2,1,0.6C73.5,152.3,73.4,152.7,73.1,152.9z M75.3,151.6
					c-0.3,0.2-0.7,0.2-1-0.2c-0.3-0.4-0.2-1.2-0.2-1.2c0,0,0.8,0,1.1,0.4C75.6,150.9,75.6,151.4,75.3,151.6z"/>
				<path d="M70.3,151.4c0,0-0.6,0.6-0.6,1.1c0,0.5,0.3,0.8,0.7,0.7c0.4,0,0.6-0.4,0.6-0.9C71,151.9,70.3,151.4,70.3,151.4z"/>
				<path d="M72.2,151.3c0,0-0.3,0.7-0.1,1.2c0.2,0.5,0.6,0.6,0.9,0.4c0.3-0.2,0.4-0.6,0.2-1C73,151.5,72.2,151.3,72.2,151.3z"/>
				<path d="M74.4,151.4c0.3,0.4,0.7,0.4,1,0.2c0.3-0.2,0.3-0.6,0-1c-0.3-0.4-1.1-0.4-1.1-0.4C74.2,150.2,74.1,151,74.4,151.4z"/>
				<path class="st1" d="M66.6,113.9l-1.2-1.1c-3.2,3.5-2.5,9.4,1.7,13.3c1.5,1.4,3.2,2.3,4.9,2.7c-0.1-0.5-0.2-1-0.2-1.6
					c-1.3-0.4-2.6-1.1-3.8-2.2C64.5,121.9,63.8,116.9,66.6,113.9z"/>
				<path class="st2" d="M66.6,113.9c-2.7,2.9-2.1,7.9,1.4,11.1c1.1,1,2.4,1.8,3.8,2.2c-0.1-0.6-0.2-1.1-0.2-1.7
					c-0.2,0.1-0.3,0-0.5,0c-0.3-0.2-0.4-0.6-0.1-1c0.1-0.1,0.3-0.3,0.4-0.4c-0.3-2.2-0.5-4.3-0.7-6.5L66.6,113.9L66.6,113.9z
					 M66.6,116.1c0.5,0.1,1,0.7,1,0.7c0,0-0.5,0.6-1,0.6c-0.5,0-0.8-0.3-0.8-0.7C65.8,116.4,66.1,116.1,66.6,116.1z M65.8,119.4
					c-0.1-0.3,0-0.7,0.5-0.9c0.5-0.2,1.2,0.2,1.2,0.2c0,0-0.3,0.7-0.7,1C66.3,119.9,66,119.7,65.8,119.4z M67.9,121.8
					c-0.4,0.3-0.8,0.3-1,0c-0.2-0.3-0.1-0.7,0.3-1c0.4-0.3,1.2-0.1,1.2-0.1C68.4,120.7,68.3,121.5,67.9,121.8z M69.7,123.7
					c-0.3,0.4-0.7,0.4-1,0.2c-0.3-0.2-0.3-0.6,0.1-1c0.4-0.3,1.1-0.3,1.1-0.3C70,122.5,70,123.3,69.7,123.7z"/>
				<path d="M70.8,124.5c-0.3,0.4-0.2,0.8,0.1,1c0.2,0.1,0.3,0.1,0.5,0c-0.1-0.5-0.1-0.9-0.2-1.4C71.1,124.2,70.9,124.4,70.8,124.5z
					"/>
				<path d="M70,122.5c0,0-0.8,0-1.1,0.3c-0.4,0.3-0.4,0.8-0.1,1c0.3,0.2,0.7,0.2,1-0.2C70,123.3,70,122.5,70,122.5z"/>
				<path d="M67.2,120.8c-0.4,0.3-0.5,0.7-0.3,1c0.2,0.3,0.6,0.4,1,0c0.4-0.3,0.5-1.1,0.5-1.1C68.4,120.7,67.7,120.6,67.2,120.8z"/>
				<path d="M67.5,118.7c0,0-0.7-0.3-1.2-0.2c-0.5,0.2-0.6,0.5-0.5,0.9c0.1,0.3,0.5,0.5,1,0.3C67.2,119.4,67.5,118.7,67.5,118.7z"/>
				<path d="M66.5,117.4c0.5,0,1-0.6,1-0.6c0,0-0.5-0.6-1-0.7c-0.5,0-0.8,0.2-0.8,0.6C65.7,117.1,66,117.4,66.5,117.4z"/>
				<path class="st1" d="M63.7,105.2c2,1.6,4.2,2.7,6.4,3.2c0-0.7,0-1.3,0-2c-1.8-0.5-3.6-1.3-5.2-2.7C60,99.7,58.8,93,62.2,88.8
					l8.9,7.3l0,0l-10.6-8.8C56.4,92.4,57.8,100.4,63.7,105.2z"/>
				<path class="st2" d="M64.9,103.8c1.6,1.3,3.4,2.2,5.2,2.7c0-0.6,0-1.2,0.1-1.9c-0.2,0.1-0.5,0.1-0.7,0c-0.4-0.2-0.6-0.8-0.2-1.3
					c0.2-0.4,0.7-0.6,1-0.7c0.2-2.1,0.4-4.2,0.8-6.3l-8.9-7.3C58.8,93,60,99.7,64.9,103.8z M66.4,101.1c0.5-0.5,1.5-0.5,1.5-0.5
					c0,0,0.1,1-0.3,1.6c-0.4,0.5-0.9,0.6-1.3,0.3C66,102.2,65.9,101.6,66.4,101.1z M65.7,98.3c0,0-0.1,1.1-0.6,1.5
					c-0.5,0.4-1.1,0.4-1.4,0c-0.3-0.4-0.2-0.9,0.3-1.3C64.7,98.1,65.7,98.3,65.7,98.3z M63.5,97c-0.6,0.3-1.1,0.2-1.3-0.3
					c-0.2-0.5,0-1,0.6-1.2c0.6-0.2,1.6,0.2,1.6,0.2C64.4,95.6,64.1,96.6,63.5,97z M64.3,93c0,0-0.7,0.8-1.3,0.9
					c-0.7,0.1-1.1-0.3-1.1-0.8c0-0.5,0.4-0.9,1-0.9C63.5,92.2,64.3,93,64.3,93z"/>
				<path d="M61.8,93.1c0,0.5,0.4,0.9,1.1,0.8c0.7-0.1,1.3-0.9,1.3-0.9c0,0-0.8-0.8-1.4-0.8C62.2,92.2,61.8,92.6,61.8,93.1z"/>
				<path d="M62.7,95.4c-0.6,0.3-0.8,0.8-0.6,1.2c0.2,0.5,0.7,0.6,1.3,0.3c0.6-0.3,0.9-1.4,0.9-1.4C64.4,95.6,63.4,95.2,62.7,95.4z"
					/>
				<path d="M63.8,99.8c0.3,0.4,0.8,0.4,1.4,0c0.5-0.5,0.6-1.5,0.6-1.5c0,0-1-0.2-1.6,0.2C63.5,98.9,63.4,99.4,63.8,99.8z"/>
				<path d="M67.7,102.2c0.4-0.6,0.2-1.6,0.3-1.6c0,0-1.1,0.1-1.5,0.5c-0.5,0.5-0.4,1-0.1,1.4C66.7,102.8,67.3,102.7,67.7,102.2z"/>
				<path d="M69.2,103.2c-0.3,0.6-0.2,1.1,0.2,1.3c0.2,0.1,0.5,0.1,0.7,0c0-0.7,0.1-1.4,0.1-2.1C70,102.6,69.5,102.8,69.2,103.2z"/>
				<path class="st1" d="M47.1,22.7L51,9.5l-3.2,10.8C42.1,18.7,39.1,11.8,41,5c0.6-1.9,1.4-3.6,2.6-5c-0.9,0-1.8,0.1-2.7,0.1
					c-0.8,1.3-1.4,2.7-1.9,4.3C36.7,12.5,40.3,20.7,47.1,22.7z"/>
				<path class="st2" d="M47.8,20.3L51,9.5l2.5-8.7c-1.4-0.3-2.9-0.5-4.5-0.7c0.1,0.4,0.1,0.7,0.1,0.7c0,0-1.2,0.1-1.8-0.3
					C47.1,0.4,47,0.2,46.9,0c-1.1,0-2.2,0-3.3,0c-1.1,1.4-2,3.1-2.6,5C39.1,11.8,42.1,18.7,47.8,20.3z M44,14.7
					c-0.7,0.2-1.2-0.2-1.3-0.7c-0.1-0.5,0.3-1,1-1.1c0.7-0.1,1.7,0.7,1.7,0.7C45.4,13.5,44.8,14.5,44,14.7z M46.2,17.5
					c-0.6,0.4-1.2,0.3-1.5-0.2c-0.3-0.5-0.2-1.1,0.5-1.4c0.7-0.3,1.8,0,1.8,0C46.9,15.9,46.8,17.1,46.2,17.5z M44.6,2.1
					c0.3-0.5,0.8-0.6,1.5-0.2c0.6,0.4,0.9,1.5,0.9,1.5c0,0-1.1,0.4-1.8,0.1C44.5,3.2,44.3,2.6,44.6,2.1z M43,5.9
					c0.2-0.5,0.7-0.8,1.4-0.5c0.7,0.3,1.2,1.3,1.2,1.3c0,0-1,0.6-1.7,0.4C43.1,7,42.8,6.5,43,5.9z M43.5,9.2c0.7,0.1,1.5,1,1.5,1
					c0,0-0.8,0.8-1.6,0.8c-0.8,0-1.2-0.4-1.1-1C42.3,9.5,42.8,9.1,43.5,9.2z"/>
				<path d="M49.1,0.9c0,0,0-0.3-0.1-0.7c-0.7-0.1-1.4-0.1-2.1-0.1c0.1,0.2,0.2,0.4,0.4,0.5C47.9,1,49.1,0.9,49.1,0.9z"/>
				<path d="M45.2,3.5C45.9,3.8,47,3.4,47,3.4c0,0-0.3-1.1-0.9-1.5c-0.6-0.4-1.2-0.2-1.5,0.2C44.3,2.6,44.5,3.2,45.2,3.5z"/>
				<path d="M43.9,7.1c0.7,0.2,1.7-0.5,1.7-0.4c0,0-0.5-1-1.2-1.3c-0.7-0.3-1.2,0-1.4,0.5C42.8,6.5,43.1,7,43.9,7.1z"/>
				<path d="M43.4,11c0.7,0,1.6-0.8,1.6-0.8c0,0-0.7-0.9-1.5-1c-0.7-0.1-1.2,0.3-1.2,0.8C42.2,10.6,42.6,11,43.4,11z"/>
				<path d="M45.4,13.5c0,0-0.9-0.7-1.7-0.7c-0.7,0.1-1.1,0.6-1,1.1c0.1,0.5,0.6,0.9,1.3,0.7C44.8,14.5,45.4,13.5,45.4,13.5z"/>
				<path d="M45.1,15.9c-0.7,0.4-0.8,1-0.5,1.4c0.3,0.5,0.9,0.6,1.5,0.2c0.6-0.4,0.8-1.6,0.8-1.6C46.9,15.9,45.8,15.5,45.1,15.9z"/>
			</g>
			<g>
				<path class="st1" d="M58,25.7c4.1,3.8,10.1,4.1,13.3,0.6l-15-13.8C53.1,16,53.9,21.9,58,25.7z"/>
				<path class="st2" d="M59,24.7c3.5,3.2,8.5,3.4,11.2,0.5L57.6,13.6C54.9,16.5,55.5,21.5,59,24.7z"/>
				<g>
					<path d="M67.6,25c0.1,0.5-0.2,0.8-0.6,0.9c-0.4,0-0.7-0.2-0.7-0.7c0-0.5,0.6-1.1,0.5-1.1C66.9,24.1,67.6,24.5,67.6,25z"/>
				</g>
				<g>
					<path d="M65.3,25.4c-0.1,0.5-0.5,0.7-0.8,0.6c-0.4-0.1-0.5-0.5-0.4-0.9c0.2-0.5,0.9-0.8,0.9-0.8C65,24.3,65.4,24.9,65.3,25.4z"
						/>
				</g>
				<g>
					<path d="M62.9,24.7c-0.2,0.4-0.6,0.6-0.9,0.4c-0.3-0.2-0.4-0.6-0.1-1c0.3-0.4,1-0.6,1-0.6C62.9,23.5,63.1,24.3,62.9,24.7z"/>
				</g>
				<g>
					<path d="M60.7,23.3c-0.3,0.4-0.7,0.4-1,0.2c-0.3-0.2-0.3-0.6,0.1-1c0.4-0.3,1.1-0.3,1.1-0.3C61,22.1,61.1,22.9,60.7,23.3z"/>
				</g>
				<g>
					<path d="M58.9,21.4c-0.4,0.3-0.8,0.3-1,0c-0.2-0.3-0.1-0.7,0.3-1c0.4-0.3,1.2-0.1,1.2-0.1C59.4,20.3,59.3,21.1,58.9,21.4z"/>
				</g>
				<g>
					<path d="M57.8,19.3c-0.5,0.2-0.8,0.1-1-0.3c-0.1-0.3,0-0.7,0.5-0.9c0.5-0.2,1.2,0.2,1.2,0.2C58.5,18.3,58.3,19,57.8,19.3z"/>
				</g>
				<g>
					<path d="M57.6,17c-0.5,0-0.8-0.3-0.8-0.7c0-0.4,0.3-0.7,0.8-0.6c0.5,0.1,1,0.7,1,0.7C58.6,16.4,58.1,17,57.6,17z"/>
				</g>
			</g>
			<g>
				<path class="st1" d="M55.6,48.2c-5.9-4.9-7.3-12.8-3.2-17.8L73.7,48C69.6,53,61.5,53.1,55.6,48.2z"/>
				<path class="st2" d="M56.8,46.8c-4.9-4.1-6.1-10.8-2.7-14.9L72,46.6C68.5,50.8,61.7,50.8,56.8,46.8z"/>
				<g>
					<path d="M54.8,35.2c-0.7,0-1.1,0.4-1,0.9c0,0.5,0.4,0.9,1.1,0.8c0.7-0.1,1.3-0.9,1.3-0.9C56.2,36,55.4,35.2,54.8,35.2z"/>
				</g>
				<g>
					<path d="M54.7,38.4c-0.6,0.3-0.8,0.8-0.6,1.2c0.2,0.5,0.7,0.6,1.3,0.3c0.6-0.3,0.9-1.4,0.9-1.4C56.3,38.6,55.3,38.2,54.7,38.4z
						"/>
				</g>
				<g>
					<path d="M56,41.5c-0.6,0.4-0.6,0.9-0.3,1.3c0.3,0.4,0.8,0.4,1.4,0c0.5-0.5,0.6-1.5,0.6-1.5C57.6,41.3,56.6,41.1,56,41.5z"/>
				</g>
				<g>
					<path d="M58.3,44.1c-0.5,0.5-0.4,1-0.1,1.4c0.4,0.3,0.9,0.2,1.3-0.3c0.4-0.6,0.2-1.6,0.3-1.6C59.9,43.6,58.8,43.6,58.3,44.1z"
						/>
				</g>
				<g>
					<path d="M61.2,46.2c-0.3,0.6-0.2,1.1,0.2,1.3c0.4,0.2,1,0,1.2-0.6c0.3-0.6-0.1-1.6-0.1-1.6C62.5,45.3,61.5,45.6,61.2,46.2z"/>
				</g>
				<g>
					<path d="M64.3,47.3c-0.2,0.6,0.1,1.1,0.5,1.3c0.5,0.1,1-0.2,1.1-0.8c0.1-0.7-0.5-1.6-0.5-1.6C65.5,46.2,64.5,46.7,64.3,47.3z"
						/>
				</g>
				<g>
					<path d="M67.3,47.3c0.1,0.7,0.5,1,1,0.9c0.5-0.1,0.8-0.5,0.7-1.2c-0.2-0.7-1.1-1.2-1.1-1.2C68,45.8,67.3,46.6,67.3,47.3z"/>
				</g>
			</g>
		</g>
		<g>
			<g>
				<g>
					<path class="st3" d="M39.7,30.9c0.2,2.3,2.2,3.9,4.4,3.7s3.9-2.2,3.7-4.4s-2.2-3.9-4.4-3.7C41.2,26.6,39.5,28.6,39.7,30.9z"/>
					<path class="st3" d="M40.5,31.2c0.1,1.6,1.6,2.9,3.2,2.7c1.6-0.1,2.9-1.6,2.7-3.2c-0.1-1.6-1.6-2.9-3.2-2.7
						S40.4,29.6,40.5,31.2z"/>
					<path class="st3" d="M41.4,46.9c0.1,0,0.2-0.1,0.4-0.2c1-0.6,1.5-1.9,1.1-2.9c-0.9-2.7-2.7-7.5,1.4-11.1c0.9-0.8,1.1-2.1,0.6-3
						c-0.6-0.9-1.7-0.9-2.6-0.1c-4.6,4.1-5.1,9.8-2.9,16.3C39.7,46.8,40.5,47.2,41.4,46.9z"/>
				</g>
				<g>
					<path class="st4" d="M39.7,30.9c0.2,2.3,2.2,3.9,4.4,3.7s3.9-2.2,3.7-4.4s-2.2-3.9-4.4-3.7C41.2,26.6,39.5,28.6,39.7,30.9z"/>
					<path class="st5" d="M40.5,31.2c0.1,1.6,1.6,2.9,3.2,2.7c1.6-0.1,2.9-1.6,2.7-3.2c-0.1-1.6-1.6-2.9-3.2-2.7
						S40.4,29.6,40.5,31.2z"/>
					<path class="st1" d="M41.4,46.9c0.1,0,0.2-0.1,0.4-0.2c1-0.6,1.5-1.9,1.1-2.9c-0.9-2.7-2.7-7.5,1.4-11.1c0.9-0.8,1.1-2.1,0.6-3
						c-0.6-0.9-1.7-0.9-2.6-0.1c-4.6,4.1-5.1,9.8-2.9,16.3C39.7,46.8,40.5,47.2,41.4,46.9z"/>
				</g>
			</g>
			<path class="st5" d="M5.6,128.3c0,0.5,0.1,0.9,0.2,1.4c0.2,0.6,0.4,1.2,0.7,1.8c0.4,0.8,0.9,1.7,1.4,2.5c0.5,0.9,1.1,1.7,1.8,2.5
				c0.6,0.8,1.3,1.7,2,2.5c0.6,0.8,1.3,1.5,2,2.3c0.6,0.7,1.2,1.3,1.9,1.9c0.5,0.5,1,1,1.5,1.4c0.2,0.1,0.3,0.3,0.5,0.4
				c2.9,2.2,5.5,3.3,7.8,1.6c1.8-1.3,0.5-5.5-3.4-9.7c-3-3.2-7.7-8.8-10.2-12c-2.5-3.2-5.1-7.5-5.7-10c0-0.1-0.1-0.4-0.2-0.2
				c-0.1,0.3-0.1,0.6-0.1,0.9c0,0.6-0.1,1.2-0.1,1.8c0,0.8,0,1.5-0.1,2.3c0,0.9,0,1.7,0,2.6c0,0.8,0,1.7,0,2.5c0,0.7,0,1.5,0,2.2
				c0,0.3,0,0.6,0,0.9C5.6,127.9,5.6,128.1,5.6,128.3z"/>
			
				<ellipse transform="matrix(0.9962 -8.715257e-02 8.715257e-02 0.9962 -12.3812 2.3809)" class="st4" cx="21.1" cy="143" rx="3" ry="2.3"/>
			<path class="st5" d="M80.7,123.7c0,0.5,0,0.9-0.1,1.4c-0.1,0.6-0.3,1.2-0.5,1.8c-0.3,0.9-0.7,1.7-1.1,2.5
				c-0.4,0.9-0.9,1.8-1.4,2.7c-0.5,0.9-1.1,1.8-1.6,2.6c-0.5,0.8-1.1,1.6-1.7,2.4c-0.5,0.7-1,1.4-1.6,2.1c-0.4,0.5-0.9,1-1.3,1.5
				c-0.1,0.1-0.3,0.3-0.4,0.4c-2.6,2.5-4.9,3.8-7.2,2.3c-1.8-1.1-1-5.4,2.3-9.8c2.5-3.4,6.5-9.4,8.6-12.8c2.1-3.4,4.1-7.9,4.4-10.4
				c0-0.1,0-0.4,0.1-0.2c0.1,0.2,0.2,0.6,0.2,0.9c0.1,0.6,0.2,1.2,0.3,1.7c0.1,0.8,0.2,1.5,0.3,2.3c0.1,0.8,0.2,1.7,0.3,2.5
				c0.1,0.8,0.2,1.7,0.2,2.5c0.1,0.7,0.1,1.4,0.2,2.2c0,0.3,0,0.6,0.1,0.9C80.7,123.4,80.7,123.5,80.7,123.7z"/>
			<path class="st4" d="M64.4,139.6c0,1.3,1.3,2.3,2.9,2.2s2.9-1,2.9-2.3c0-1.3-1.3-2.3-2.9-2.2C65.7,137.4,64.4,138.4,64.4,139.6z"
				/>
			<path class="st6" d="M82.2,103.6c-0.3-3-0.8-5.8-1.4-8.4c-0.9-4-2.1-7.7-3.4-11c-2.7-7.1-6.6-13.6-11.2-20.1
				C63.9,60.7,48,40.8,40.2,40.4c-8,1.1-22.5,22.8-24.7,26.4c-4.1,7.1-8.6,14-10.6,21.4c-1,3.4-1.8,7.2-2.4,11.4
				c-0.4,2.7-0.6,5.5-0.6,8.6c0.2,11.9,3.7,20.9,3.7,20.9s-0.3-10,2.3-21.5c0.1-0.6,0.2-1.2,0.4-1.7c0.5-2.2,1.4-4.6,2.4-7.1
				c3.3-8,8.7-16.7,13.3-24.1C29.7,65.9,37.7,54,41,52.9c3.4,1.4,11.9,12,17.9,19.9c5.1,6.8,10.1,15,14.1,22.6
				c1.2,2.3,2.2,4.6,3,6.8c0.2,0.5,0.3,1,0.5,1.6c3.6,11,4.2,21.3,4.2,21.3S83.1,115.3,82.2,103.6z"/>
		</g>
	</g>
	<g>
		<path class="st0" d="M170.8,101.7c-14.3,54.8-2.5,95.8-41.6,95c-53.5-1.1-13.4-60.9-22.2-102.4c-4-19-5.1-35.3-3.9-50.5
			c2.1-27.5,5.4-46.3,35.8-43.6c13.2,1.2,24.4,9.8,31,21c5.3,8.9,7.9,19.3,8.4,29.6c0.5,9.5-0.8,19.1-2.5,28.4
			C174.5,86.8,172.8,94.3,170.8,101.7z"/>
		<g>
			<g>
				<path class="st1" d="M117.7,175.9c-2.7,7,0,14.6,5.9,16.8l9.7-25.5C127.4,165,120.4,168.8,117.7,175.9z"/>
				<path class="st2" d="M119.4,176.5c-2.2,5.9,0,12.2,5,14.1l8.1-21.4C127.5,167.4,121.7,170.6,119.4,176.5z"/>
				<g>
					<path d="M123.3,187.5c-0.6,0.3-1.1,0.2-1.3-0.3c-0.2-0.5-0.1-1,0.6-1.2c0.6-0.3,1.6,0.2,1.6,0.1
						C124.2,186.1,123.9,187.1,123.3,187.5z"/>
				</g>
				<g>
					<path d="M121.7,184.7c-0.7,0.1-1.1-0.3-1.1-0.7c0-0.5,0.3-0.9,1-0.9c0.7,0,1.4,0.7,1.4,0.7C123,183.8,122.3,184.6,121.7,184.7z
						"/>
				</g>
				<g>
					<path d="M121.3,181.5c-0.7-0.1-1-0.5-0.9-1c0.1-0.5,0.5-0.8,1.2-0.7c0.7,0.1,1.2,1,1.2,1C122.8,180.9,122,181.5,121.3,181.5z"
						/>
				</g>
				<g>
					<path d="M122,178.1c-0.6-0.2-0.9-0.7-0.7-1.1c0.2-0.5,0.7-0.7,1.3-0.4c0.6,0.3,1,1.3,1,1.2C123.6,177.8,122.7,178.3,122,178.1z
						"/>
				</g>
				<g>
					<path d="M123.5,174.9c-0.6-0.3-0.7-0.9-0.4-1.3c0.3-0.4,0.8-0.5,1.3-0.1c0.5,0.4,0.7,1.4,0.7,1.4
						C125,175,124,175.2,123.5,174.9z"/>
				</g>
				<g>
					<path d="M125.6,172.4c-0.5-0.5-0.5-1-0.1-1.3c0.4-0.3,0.9-0.3,1.3,0.2c0.4,0.5,0.3,1.6,0.4,1.6
						C127.1,172.8,126.1,172.9,125.6,172.4z"/>
				</g>
				<g>
					<path d="M128.2,171c-0.3-0.6-0.1-1.1,0.4-1.3c0.5-0.2,1,0.1,1.2,0.7c0.2,0.6-0.3,1.6-0.3,1.6C129.5,172,128.5,171.6,128.2,171z
						"/>
				</g>
			</g>
			<g>
				<path class="st1" d="M137.3,180.7c3.4,4.5,9.3,5.8,13,2.9L138,167.3C134.2,170.2,133.9,176.2,137.3,180.7z"/>
				<path class="st2" d="M138.4,179.8c2.9,3.8,7.8,4.8,10.9,2.4L139,168.7C135.8,171.1,135.6,176.1,138.4,179.8z"/>
				<g>
					<path d="M146.9,181.7c0,0.5-0.3,0.8-0.7,0.7c-0.4,0-0.6-0.4-0.6-0.9c0.1-0.5,0.7-1,0.7-1C146.4,180.6,146.9,181.2,146.9,181.7z
						"/>
				</g>
				<g>
					<path d="M144.5,181.7c-0.2,0.5-0.6,0.6-0.9,0.4c-0.3-0.2-0.4-0.6-0.2-1c0.3-0.4,1-0.6,1-0.6
						C144.4,180.5,144.7,181.2,144.5,181.7z"/>
				</g>
				<g>
					<path d="M142.3,180.6c-0.3,0.4-0.7,0.4-1,0.2c-0.3-0.2-0.3-0.6,0-1c0.3-0.4,1.1-0.4,1.1-0.4
						C142.5,179.4,142.6,180.2,142.3,180.6z"/>
				</g>
				<g>
					<path d="M140.4,178.8c-0.4,0.3-0.8,0.3-1,0c-0.2-0.3-0.2-0.7,0.3-1c0.4-0.3,1.2-0.1,1.2-0.1
						C140.9,177.7,140.8,178.5,140.4,178.8z"/>
				</g>
				<g>
					<path d="M139,176.6c-0.4,0.2-0.8,0.1-1-0.2c-0.2-0.3,0-0.7,0.5-0.9c0.5-0.2,1.2,0.1,1.2,0.1C139.6,175.7,139.4,176.4,139,176.6
						z"/>
				</g>
				<g>
					<path d="M138.2,174.3c-0.5,0.1-0.8-0.1-0.9-0.4c-0.1-0.4,0.2-0.7,0.6-0.8c0.5-0.1,1.1,0.4,1.1,0.4
						C139.1,173.5,138.7,174.2,138.2,174.3z"/>
				</g>
				<g>
					<path d="M138.4,172.1c-0.5-0.1-0.7-0.4-0.7-0.8c0.1-0.4,0.4-0.6,0.9-0.5c0.5,0.1,0.9,0.8,0.9,0.8
						C139.5,171.6,138.9,172.1,138.4,172.1z"/>
				</g>
			</g>
			<g>
				<path class="st1" d="M153.5,151.6c-2.4-8.1-9.8-13-16.6-11l8.5,29.3C152.2,167.9,155.8,159.7,153.5,151.6z"/>
				<path class="st2" d="M151.5,152.2c-2-6.8-8.2-10.9-14-9.3l7.2,24.6C150.4,165.8,153.5,159,151.5,152.2z"/>
				<g>
					<path d="M140.6,145c0.3-0.7,0.9-0.9,1.4-0.6c0.5,0.3,0.7,0.8,0.3,1.5c-0.4,0.6-1.5,0.9-1.5,1
						C140.8,146.8,140.4,145.7,140.6,145z"/>
				</g>
				<g>
					<path d="M144,146.4c0.5-0.5,1.1-0.5,1.5-0.1c0.4,0.4,0.3,1-0.3,1.5c-0.6,0.5-1.8,0.3-1.8,0.3
						C143.5,148.1,143.5,146.9,144,146.4z"/>
				</g>
				<g>
					<path d="M146.5,149.1c0.6-0.4,1.2-0.2,1.5,0.2c0.3,0.5,0.1,1.1-0.6,1.4c-0.7,0.3-1.8-0.1-1.8-0.1
						C145.6,150.6,145.8,149.5,146.5,149.1z"/>
				</g>
				<g>
					<path d="M148.1,152.6c0.7-0.3,1.2,0,1.4,0.5c0.2,0.5-0.2,1-0.9,1.2c-0.7,0.2-1.7-0.5-1.7-0.4
						C146.9,153.9,147.4,152.8,148.1,152.6z"/>
				</g>
				<g>
					<path d="M149,156.3c0.7-0.1,1.2,0.3,1.2,0.8c0,0.5-0.4,1-1.1,1c-0.7,0-1.6-0.8-1.6-0.8C147.5,157.4,148.3,156.5,149,156.3z"/>
				</g>
				<g>
					<path d="M148.8,160c0.7,0.1,1.1,0.6,1,1.1c-0.1,0.5-0.6,0.9-1.3,0.7c-0.7-0.2-1.4-1.2-1.4-1.2C147.1,160.7,148,159.9,148.8,160
						z"/>
				</g>
				<g>
					<path d="M147.4,163.1c0.7,0.4,0.8,1,0.5,1.4c-0.3,0.5-0.9,0.6-1.5,0.2c-0.6-0.4-0.8-1.6-0.8-1.6
						C145.6,163.1,146.7,162.7,147.4,163.1z"/>
				</g>
			</g>
			<g>
				<path class="st1" d="M120.4,138.8c-4.1,3.8-10.1,4.1-13.3,0.6l15-13.8C125.3,129.1,124.6,135,120.4,138.8z"/>
				<path class="st2" d="M119.5,137.8c-3.5,3.2-8.5,3.4-11.2,0.5l12.6-11.6C123.6,129.6,122.9,134.6,119.5,137.8z"/>
				<g>
					<path d="M110.8,138.1c-0.1,0.5,0.2,0.8,0.6,0.9c0.4,0,0.7-0.2,0.7-0.7c0-0.5-0.6-1.1-0.5-1.1
						C111.5,137.2,110.9,137.6,110.8,138.1z"/>
				</g>
				<g>
					<path d="M113.2,138.5c0.1,0.5,0.5,0.7,0.8,0.6c0.4-0.1,0.5-0.5,0.4-0.9c-0.2-0.5-0.9-0.8-0.9-0.8
						C113.5,137.4,113,138,113.2,138.5z"/>
				</g>
				<g>
					<path d="M115.5,137.8c0.2,0.4,0.6,0.6,0.9,0.4c0.3-0.2,0.4-0.6,0.1-1c-0.3-0.4-1-0.6-1-0.6
						C115.5,136.6,115.3,137.4,115.5,137.8z"/>
				</g>
				<g>
					<path d="M117.7,136.4c0.3,0.4,0.7,0.4,1,0.2c0.3-0.2,0.3-0.6-0.1-1c-0.4-0.3-1.1-0.3-1.1-0.3
						C117.4,135.2,117.4,136,117.7,136.4z"/>
				</g>
				<g>
					<path d="M119.5,134.5c0.4,0.3,0.8,0.3,1,0c0.2-0.3,0.1-0.7-0.3-1c-0.4-0.3-1.2-0.1-1.2-0.1C119,133.4,119.1,134.2,119.5,134.5z
						"/>
				</g>
				<g>
					<path d="M120.6,132.4c0.5,0.2,0.8,0.1,1-0.3c0.1-0.3,0-0.7-0.5-0.9c-0.5-0.2-1.2,0.2-1.2,0.2
						C119.9,131.4,120.2,132.1,120.6,132.4z"/>
				</g>
				<g>
					<path d="M120.9,130.1c0.5,0,0.8-0.3,0.8-0.7c0-0.4-0.3-0.7-0.8-0.6c-0.5,0.1-1,0.7-1,0.7C119.8,129.5,120.4,130.1,120.9,130.1z
						"/>
				</g>
			</g>
			<g>
				<path class="st1" d="M126.7,161.6c5.9-4.9,7.3-12.8,3.2-17.8l-21.3,17.6C112.7,166.4,120.8,166.4,126.7,161.6z"/>
				<path class="st2" d="M125.5,160.1c4.9-4.1,6.1-10.8,2.7-14.9L110.3,160C113.7,164.1,120.5,164.2,125.5,160.1z"/>
				<g>
					<path d="M127.5,148.5c0.7,0,1.1,0.4,1,0.9c0,0.5-0.4,0.9-1.1,0.8c-0.7-0.1-1.3-0.9-1.3-0.9
						C126.1,149.3,126.8,148.5,127.5,148.5z"/>
				</g>
				<g>
					<path d="M127.6,151.8c0.6,0.3,0.8,0.8,0.6,1.2c-0.2,0.5-0.7,0.6-1.3,0.3c-0.6-0.3-0.9-1.4-0.9-1.4
						C126,152,127,151.5,127.6,151.8z"/>
				</g>
				<g>
					<path d="M126.3,154.8c0.6,0.4,0.6,0.9,0.3,1.3c-0.3,0.4-0.8,0.4-1.4,0c-0.5-0.5-0.6-1.5-0.6-1.5
						C124.6,154.6,125.7,154.4,126.3,154.8z"/>
				</g>
				<g>
					<path d="M123.9,157.5c0.5,0.5,0.4,1,0.1,1.4c-0.4,0.3-0.9,0.2-1.3-0.3c-0.4-0.6-0.2-1.6-0.3-1.6
						C122.4,156.9,123.5,157,123.9,157.5z"/>
				</g>
				<g>
					<path d="M121.1,159.6c0.3,0.6,0.2,1.1-0.2,1.3c-0.4,0.2-1,0-1.2-0.6c-0.3-0.6,0.1-1.6,0.1-1.6
						C119.7,158.7,120.7,159,121.1,159.6z"/>
				</g>
				<g>
					<path d="M118,160.7c0.2,0.6-0.1,1.1-0.5,1.3c-0.5,0.1-1-0.2-1.1-0.8c-0.1-0.7,0.5-1.6,0.5-1.6C116.8,159.6,117.8,160,118,160.7
						z"/>
				</g>
				<g>
					<path d="M114.9,160.6c-0.1,0.7-0.5,1-1,0.9c-0.5-0.1-0.8-0.5-0.7-1.2c0.2-0.7,1.1-1.2,1.1-1.2
						C114.3,159.1,115,159.9,114.9,160.6z"/>
				</g>
			</g>
			<g>
				<path class="st1" d="M127.9,121c-2.7,7,0,14.6,5.9,16.8l9.7-25.5C137.6,110.1,130.6,113.9,127.9,121z"/>
				<path class="st2" d="M129.7,121.6c-2.2,5.9,0,12.2,5,14.1l8.1-21.4C137.8,112.5,131.9,115.7,129.7,121.6z"/>
				<g>
					<path d="M133.6,132.6c-0.6,0.3-1.1,0.2-1.3-0.3c-0.2-0.5-0.1-1,0.6-1.2c0.6-0.3,1.6,0.2,1.6,0.1
						C134.4,131.2,134.2,132.2,133.6,132.6z"/>
				</g>
				<g>
					<path d="M131.9,129.8c-0.7,0.1-1.1-0.3-1.1-0.7c0-0.5,0.3-0.9,1-0.9c0.7,0,1.4,0.7,1.4,0.7
						C133.2,128.9,132.6,129.7,131.9,129.8z"/>
				</g>
				<g>
					<path d="M131.6,126.6c-0.7-0.1-1-0.5-0.9-1c0.1-0.5,0.5-0.8,1.2-0.7c0.7,0.1,1.2,1,1.2,1C133.1,126,132.3,126.6,131.6,126.6z"
						/>
				</g>
				<g>
					<path d="M132.3,123.2c-0.6-0.2-0.9-0.7-0.7-1.1c0.2-0.5,0.7-0.7,1.3-0.4c0.6,0.3,1,1.3,1,1.2
						C133.8,122.9,132.9,123.4,132.3,123.2z"/>
				</g>
				<g>
					<path d="M133.7,120c-0.6-0.3-0.7-0.9-0.4-1.3c0.3-0.4,0.8-0.5,1.3-0.1c0.5,0.4,0.7,1.4,0.7,1.4
						C135.3,120.1,134.3,120.3,133.7,120z"/>
				</g>
				<g>
					<path d="M135.8,117.5c-0.5-0.5-0.5-1-0.1-1.3c0.4-0.3,0.9-0.3,1.3,0.2c0.4,0.5,0.3,1.6,0.4,1.6
						C137.4,117.9,136.3,118,135.8,117.5z"/>
				</g>
				<g>
					<path d="M138.5,116.1c-0.3-0.6-0.1-1.1,0.4-1.3c0.5-0.2,1,0.1,1.2,0.7c0.2,0.6-0.3,1.6-0.3,1.6
						C139.8,117.1,138.8,116.7,138.5,116.1z"/>
				</g>
			</g>
			<g>
				<path class="st1" d="M149,129.4c3.4,4.5,9.3,5.8,13,2.9L149.7,116C145.9,118.9,145.6,124.9,149,129.4z"/>
				<path class="st2" d="M150.1,128.5c2.9,3.8,7.8,4.8,10.9,2.4l-10.4-13.6C147.5,119.7,147.2,124.8,150.1,128.5z"/>
				<g>
					<path d="M158.6,130.4c0,0.5-0.3,0.8-0.7,0.7c-0.4,0-0.6-0.4-0.6-0.9c0.1-0.5,0.7-1,0.7-1C158,129.3,158.6,129.9,158.6,130.4z"
						/>
				</g>
				<g>
					<path d="M156.2,130.3c-0.2,0.5-0.6,0.6-0.9,0.4c-0.3-0.2-0.4-0.6-0.2-1c0.3-0.4,1-0.6,1-0.6
						C156.1,129.1,156.4,129.9,156.2,130.3z"/>
				</g>
				<g>
					<path d="M154,129.3c-0.3,0.4-0.7,0.4-1,0.2c-0.3-0.2-0.3-0.6,0-1c0.3-0.4,1.1-0.4,1.1-0.4C154.2,128.1,154.3,128.9,154,129.3z"
						/>
				</g>
				<g>
					<path d="M152.1,127.5c-0.4,0.3-0.8,0.3-1,0c-0.2-0.3-0.2-0.7,0.3-1c0.4-0.3,1.2-0.1,1.2-0.1
						C152.5,126.4,152.5,127.1,152.1,127.5z"/>
				</g>
				<g>
					<path d="M150.7,125.3c-0.4,0.2-0.8,0.1-1-0.2c-0.2-0.3,0-0.7,0.5-0.9c0.5-0.2,1.2,0.1,1.2,0.1
						C151.3,124.3,151.1,125.1,150.7,125.3z"/>
				</g>
				<g>
					<path d="M149.9,123c-0.5,0.1-0.8-0.1-0.9-0.4c-0.1-0.4,0.2-0.7,0.6-0.8c0.5-0.1,1.1,0.4,1.1,0.4
						C150.8,122.2,150.4,122.8,149.9,123z"/>
				</g>
				<g>
					<path d="M150,120.7c-0.5-0.1-0.7-0.4-0.7-0.8c0.1-0.4,0.4-0.6,0.9-0.5c0.5,0.1,0.9,0.8,0.9,0.8
						C151.2,120.3,150.5,120.8,150,120.7z"/>
				</g>
			</g>
			<g>
				<path class="st1" d="M166.5,96.5c-2.4-8.1-9.8-13-16.6-11l8.5,29.3C165.3,112.8,168.9,104.6,166.5,96.5z"/>
				<path class="st2" d="M164.6,97.1c-2-6.8-8.2-10.9-14-9.3l7.2,24.6C163.5,110.8,166.5,103.9,164.6,97.1z"/>
				<g>
					<path d="M153.7,90c0.3-0.7,0.9-0.9,1.4-0.6c0.5,0.3,0.7,0.8,0.3,1.5c-0.4,0.6-1.5,0.9-1.5,1C153.9,91.8,153.4,90.6,153.7,90z"
						/>
				</g>
				<g>
					<path d="M157,91.3c0.5-0.5,1.1-0.5,1.5-0.1c0.4,0.4,0.3,1-0.3,1.5c-0.6,0.5-1.8,0.3-1.8,0.3C156.5,93,156.5,91.8,157,91.3z"/>
				</g>
				<g>
					<path d="M159.5,94c0.6-0.4,1.2-0.2,1.5,0.2c0.3,0.5,0.1,1.1-0.6,1.4c-0.7,0.3-1.8-0.1-1.8-0.1C158.6,95.5,158.9,94.4,159.5,94z
						"/>
				</g>
				<g>
					<path d="M161.2,97.5c0.7-0.3,1.2,0,1.4,0.5c0.2,0.5-0.2,1-0.9,1.2c-0.7,0.2-1.7-0.5-1.7-0.4C160,98.8,160.5,97.8,161.2,97.5z"
						/>
				</g>
				<g>
					<path d="M162.1,101.3c0.7-0.1,1.2,0.3,1.2,0.8c0,0.5-0.4,1-1.1,1c-0.7,0-1.6-0.8-1.6-0.8C160.6,102.3,161.3,101.4,162.1,101.3z
						"/>
				</g>
				<g>
					<path d="M161.8,104.9c0.7,0.1,1.1,0.6,1,1.1c-0.1,0.5-0.6,0.9-1.3,0.7c-0.7-0.2-1.4-1.2-1.4-1.2
						C160.2,105.6,161.1,104.9,161.8,104.9z"/>
				</g>
				<g>
					<path d="M160.4,108c0.7,0.4,0.8,1,0.5,1.4c-0.3,0.5-0.9,0.6-1.5,0.2c-0.6-0.4-0.8-1.6-0.8-1.6C158.6,108,159.8,107.6,160.4,108
						z"/>
				</g>
			</g>
			<g>
				<path class="st1" d="M133.5,83.7c-4.1,3.8-10.1,4.1-13.3,0.6l15-13.8C138.4,74,137.6,79.9,133.5,83.7z"/>
				<path class="st2" d="M132.5,82.7c-3.5,3.2-8.5,3.4-11.2,0.5l12.6-11.6C136.6,74.5,136,79.5,132.5,82.7z"/>
				<g>
					<path d="M123.8,83.1c-0.1,0.5,0.2,0.8,0.6,0.9c0.4,0,0.7-0.2,0.7-0.7c0-0.5-0.6-1.1-0.5-1.1C124.6,82.1,123.9,82.6,123.8,83.1z
						"/>
				</g>
				<g>
					<path d="M126.2,83.4c0.1,0.5,0.5,0.7,0.8,0.6c0.4-0.1,0.5-0.5,0.4-0.9c-0.2-0.5-0.9-0.8-0.9-0.8
						C126.5,82.3,126.1,83,126.2,83.4z"/>
				</g>
				<g>
					<path d="M128.6,82.8c0.2,0.4,0.6,0.6,0.9,0.4c0.3-0.2,0.4-0.6,0.1-1c-0.3-0.4-1-0.6-1-0.6C128.6,81.6,128.4,82.3,128.6,82.8z"
						/>
				</g>
				<g>
					<path d="M130.7,81.3c0.3,0.4,0.7,0.4,1,0.2c0.3-0.2,0.3-0.6-0.1-1c-0.4-0.3-1.1-0.3-1.1-0.3C130.5,80.2,130.4,80.9,130.7,81.3z
						"/>
				</g>
				<g>
					<path d="M132.5,79.5c0.4,0.3,0.8,0.3,1,0c0.2-0.3,0.1-0.7-0.3-1c-0.4-0.3-1.2-0.1-1.2-0.1C132.1,78.4,132.2,79.1,132.5,79.5z"
						/>
				</g>
				<g>
					<path d="M133.7,77.3c0.5,0.2,0.8,0.1,1-0.3c0.1-0.3,0-0.7-0.5-0.9c-0.5-0.2-1.2,0.2-1.2,0.2C133,76.3,133.2,77.1,133.7,77.3z"
						/>
				</g>
				<g>
					<path d="M133.9,75.1c0.5,0,0.8-0.3,0.8-0.7c0-0.4-0.3-0.7-0.8-0.6c-0.5,0.1-1,0.7-1,0.7C132.9,74.4,133.4,75,133.9,75.1z"/>
				</g>
			</g>
			<g>
				<path class="st1" d="M135.9,106.2c5.9-4.9,7.3-12.8,3.2-17.8l-21.3,17.6C121.9,111,130,111.1,135.9,106.2z"/>
				<path class="st2" d="M134.7,104.8c4.9-4.1,6.1-10.8,2.7-14.9l-17.9,14.8C122.9,108.8,129.7,108.9,134.7,104.8z"/>
				<g>
					<path d="M136.7,93.2c0.7,0,1.1,0.4,1,0.9c0,0.5-0.4,0.9-1.1,0.8c-0.7-0.1-1.3-0.9-1.3-0.9C135.3,94,136,93.2,136.7,93.2z"/>
				</g>
				<g>
					<path d="M136.8,96.4c0.6,0.3,0.8,0.8,0.6,1.2c-0.2,0.5-0.7,0.6-1.3,0.3c-0.6-0.3-0.9-1.4-0.9-1.4
						C135.2,96.6,136.2,96.2,136.8,96.4z"/>
				</g>
				<g>
					<path d="M135.5,99.5c0.6,0.4,0.6,0.9,0.3,1.3c-0.3,0.4-0.8,0.4-1.4,0c-0.5-0.5-0.6-1.5-0.6-1.5
						C133.9,99.3,134.9,99.1,135.5,99.5z"/>
				</g>
				<g>
					<path d="M133.2,102.1c0.5,0.5,0.4,1,0.1,1.4c-0.4,0.3-0.9,0.2-1.3-0.3c-0.4-0.6-0.2-1.6-0.3-1.6
						C131.6,101.6,132.7,101.6,133.2,102.1z"/>
				</g>
				<g>
					<path d="M130.3,104.2c0.3,0.6,0.2,1.1-0.2,1.3c-0.4,0.2-1,0-1.2-0.6c-0.3-0.6,0.1-1.6,0.1-1.6
						C128.9,103.4,130,103.6,130.3,104.2z"/>
				</g>
				<g>
					<path d="M127.2,105.3c0.2,0.6-0.1,1.1-0.5,1.3c-0.5,0.1-1-0.2-1.1-0.8c-0.1-0.7,0.5-1.6,0.5-1.6
						C126,104.2,127,104.7,127.2,105.3z"/>
				</g>
				<g>
					<path d="M124.1,105.3c-0.1,0.7-0.5,1-1,0.9c-0.5-0.1-0.8-0.5-0.7-1.2c0.2-0.7,1.1-1.2,1.1-1.2
						C123.5,103.8,124.2,104.6,124.1,105.3z"/>
				</g>
			</g>
			<g>
				<path class="st1" d="M143.9,64.5c-2.7,7,0,14.6,5.9,16.8l9.7-25.5C153.6,53.6,146.6,57.5,143.9,64.5z"/>
				<path class="st2" d="M145.7,65.2c-2.2,5.9,0,12.2,5,14.1l8.1-21.4C153.8,56,147.9,59.3,145.7,65.2z"/>
				<g>
					<path d="M149.6,76.1c-0.6,0.3-1.1,0.2-1.3-0.3c-0.2-0.5-0.1-1,0.6-1.2c0.6-0.3,1.6,0.2,1.6,0.1
						C150.4,74.7,150.1,75.8,149.6,76.1z"/>
				</g>
				<g>
					<path d="M147.9,73.4c-0.7,0.1-1.1-0.3-1.1-0.7c0-0.5,0.3-0.9,1-0.9c0.7,0,1.4,0.7,1.4,0.7C149.2,72.4,148.5,73.3,147.9,73.4z"
						/>
				</g>
				<g>
					<path d="M147.6,70.1c-0.7-0.1-1-0.5-0.9-1c0.1-0.5,0.5-0.8,1.2-0.7c0.7,0.1,1.2,1,1.2,1C149,69.5,148.2,70.2,147.6,70.1z"/>
				</g>
				<g>
					<path d="M148.3,66.7c-0.6-0.2-0.9-0.7-0.7-1.1c0.2-0.5,0.7-0.7,1.3-0.4c0.6,0.3,1,1.3,1,1.2C149.8,66.4,148.9,66.9,148.3,66.7z
						"/>
				</g>
				<g>
					<path d="M149.7,63.5c-0.6-0.3-0.7-0.9-0.4-1.3c0.3-0.4,0.8-0.5,1.3-0.1c0.5,0.4,0.7,1.4,0.7,1.4
						C151.3,63.6,150.3,63.9,149.7,63.5z"/>
				</g>
				<g>
					<path d="M151.8,61c-0.5-0.5-0.5-1-0.1-1.3c0.4-0.3,0.9-0.3,1.3,0.2c0.4,0.5,0.3,1.6,0.4,1.6C153.4,61.4,152.3,61.5,151.8,61z"
						/>
				</g>
				<g>
					<path d="M154.5,59.6c-0.3-0.6-0.1-1.1,0.4-1.3c0.5-0.2,1,0.1,1.2,0.7c0.2,0.6-0.3,1.6-0.3,1.6
						C155.7,60.6,154.7,60.2,154.5,59.6z"/>
				</g>
			</g>
			<g>
				<path class="st1" d="M149.5,27.3c-4.1,3.8-10.1,4.1-13.3,0.6l15-13.8C154.3,17.5,153.6,23.4,149.5,27.3z"/>
				<path class="st2" d="M148.5,26.2c-3.5,3.2-8.5,3.4-11.2,0.5l12.6-11.6C152.6,18.1,152,23,148.5,26.2z"/>
				<g>
					<path d="M139.8,26.6c-0.1,0.5,0.2,0.8,0.6,0.9c0.4,0,0.7-0.2,0.7-0.7c0-0.5-0.6-1.1-0.5-1.1C140.6,25.6,139.9,26.1,139.8,26.6z
						"/>
				</g>
				<g>
					<path d="M142.2,27c0.1,0.5,0.5,0.7,0.8,0.6c0.4-0.1,0.5-0.5,0.4-0.9c-0.2-0.5-0.9-0.8-0.9-0.8C142.5,25.8,142.1,26.5,142.2,27z
						"/>
				</g>
				<g>
					<path d="M144.6,26.3c0.2,0.4,0.6,0.6,0.9,0.4c0.3-0.2,0.4-0.6,0.1-1c-0.3-0.4-1-0.6-1-0.6C144.6,25.1,144.3,25.8,144.6,26.3z"
						/>
				</g>
				<g>
					<path d="M146.7,24.9c0.3,0.4,0.7,0.4,1,0.2c0.3-0.2,0.3-0.6-0.1-1c-0.4-0.3-1.1-0.3-1.1-0.3C146.5,23.7,146.4,24.5,146.7,24.9z
						"/>
				</g>
				<g>
					<path d="M148.5,23c0.4,0.3,0.8,0.3,1,0c0.2-0.3,0.1-0.7-0.3-1c-0.4-0.3-1.2-0.1-1.2-0.1C148,21.9,148.1,22.7,148.5,23z"/>
				</g>
				<g>
					<path d="M149.7,20.8c0.5,0.2,0.8,0.1,1-0.3c0.1-0.3,0-0.7-0.5-0.9c-0.5-0.1-1.2,0.2-1.2,0.2C148.9,19.9,149.2,20.6,149.7,20.8z
						"/>
				</g>
				<g>
					<path d="M149.9,18.6c0.5,0,0.8-0.3,0.8-0.7c0-0.4-0.3-0.7-0.8-0.6c-0.5,0.1-1,0.7-1,0.7C148.9,18,149.4,18.6,149.9,18.6z"/>
				</g>
			</g>
			<g>
				<path class="st1" d="M151.9,49.8c5.9-4.9,7.3-12.8,3.2-17.8l-21.3,17.6C137.9,54.6,146,54.6,151.9,49.8z"/>
				<path class="st2" d="M150.7,48.3c4.9-4.1,6.1-10.8,2.7-14.9l-17.9,14.8C138.9,52.3,145.7,52.4,150.7,48.3z"/>
				<g>
					<path d="M152.7,36.7c0.7,0,1.1,0.4,1,0.9c0,0.5-0.4,0.9-1.1,0.8c-0.7-0.1-1.3-0.9-1.3-0.9C151.3,37.5,152,36.7,152.7,36.7z"/>
				</g>
				<g>
					<path d="M152.8,40c0.6,0.3,0.8,0.8,0.6,1.2c-0.2,0.5-0.7,0.6-1.3,0.3c-0.6-0.3-0.9-1.4-0.9-1.4C151.2,40.2,152.2,39.7,152.8,40
						z"/>
				</g>
				<g>
					<path d="M151.5,43c0.6,0.4,0.6,0.9,0.3,1.3c-0.3,0.4-0.8,0.4-1.4,0c-0.5-0.5-0.6-1.5-0.6-1.5C149.8,42.8,150.9,42.6,151.5,43z"
						/>
				</g>
				<g>
					<path d="M149.1,45.7c0.5,0.5,0.4,1,0.1,1.4c-0.4,0.3-0.9,0.2-1.3-0.3c-0.4-0.6-0.2-1.6-0.3-1.6
						C147.6,45.1,148.7,45.2,149.1,45.7z"/>
				</g>
				<g>
					<path d="M146.3,47.7c0.3,0.6,0.2,1.1-0.2,1.3c-0.4,0.2-1,0-1.2-0.6c-0.3-0.6,0.1-1.6,0.1-1.6C144.9,46.9,145.9,47.2,146.3,47.7
						z"/>
				</g>
				<g>
					<path d="M143.2,48.9c0.2,0.6-0.1,1.1-0.5,1.3c-0.5,0.1-1-0.2-1.1-0.8c-0.1-0.7,0.5-1.6,0.5-1.6C142,47.7,143,48.2,143.2,48.9z"
						/>
				</g>
				<g>
					<path d="M140.1,48.8c-0.1,0.7-0.5,1-1,0.9c-0.5-0.1-0.8-0.5-0.7-1.2c0.2-0.7,1.1-1.2,1.1-1.2C139.5,47.3,140.2,48.1,140.1,48.8
						z"/>
				</g>
			</g>
			<g>
				<path class="st1" d="M123,66.4c-2.4-8.1-9.8-13-16.6-11l8.5,29.3C121.7,82.6,125.3,74.5,123,66.4z"/>
				<path class="st2" d="M121,67c-2-6.8-8.2-10.9-14-9.3l7.2,24.6C119.9,80.6,123,73.8,121,67z"/>
				<g>
					<path d="M110.1,59.8c0.3-0.7,0.9-0.9,1.4-0.6c0.5,0.3,0.7,0.8,0.3,1.5c-0.4,0.6-1.5,0.9-1.5,1
						C110.3,61.6,109.8,60.5,110.1,59.8z"/>
				</g>
				<g>
					<path d="M113.5,61.1c0.5-0.5,1.1-0.5,1.5-0.1c0.4,0.4,0.3,1-0.3,1.5c-0.6,0.5-1.8,0.3-1.8,0.3
						C112.9,62.9,112.9,61.7,113.5,61.1z"/>
				</g>
				<g>
					<path d="M115.9,63.8c0.6-0.4,1.2-0.2,1.5,0.2c0.3,0.5,0.1,1.1-0.6,1.4c-0.7,0.3-1.8-0.1-1.8-0.1
						C115.1,65.4,115.3,64.2,115.9,63.8z"/>
				</g>
				<g>
					<path d="M117.6,67.3c0.7-0.3,1.2,0,1.4,0.5c0.2,0.5-0.2,1-0.9,1.2c-0.7,0.2-1.7-0.5-1.7-0.4C116.4,68.7,116.9,67.6,117.6,67.3z
						"/>
				</g>
				<g>
					<path d="M118.5,71.1c0.7-0.1,1.2,0.3,1.2,0.8c0,0.5-0.4,1-1.1,1c-0.7,0-1.6-0.8-1.6-0.8C117,72.2,117.7,71.2,118.5,71.1z"/>
				</g>
				<g>
					<path d="M118.3,74.8c0.7,0.1,1.1,0.6,1,1.1c-0.1,0.5-0.6,0.9-1.3,0.7c-0.7-0.2-1.4-1.2-1.4-1.2
						C116.6,75.5,117.5,74.7,118.3,74.8z"/>
				</g>
				<g>
					<path d="M116.9,77.9c0.7,0.4,0.8,1,0.5,1.4c-0.3,0.5-0.9,0.6-1.5,0.2c-0.6-0.4-0.8-1.6-0.8-1.6
						C115.1,77.9,116.2,77.5,116.9,77.9z"/>
				</g>
			</g>
			<g>
				<polygon class="st1" points="138.4,196 138.4,196 139.2,194 				"/>
				<path class="st1" d="M141.3,188.6l-0.8,2.1c-4.6-1.8-10,0.9-12.6,6.1c-0.7,0-1.3-0.1-2-0.1C128.8,190,135.5,186.4,141.3,188.6z"
					/>
				<path class="st2" d="M127.9,196.7c0.4,0,0.9,0,1.4,0.1c3.4,0.1,6.5-0.2,9.2-0.7l0.8-2l1.3-3.4l0,0
					C135.8,188.9,130.5,191.6,127.9,196.7z M136.6,191c0.5-0.2,1,0.1,1.2,0.7c0.2,0.6-0.3,1.6-0.3,1.6c0,0-1-0.4-1.3-1
					C135.9,191.7,136.1,191.2,136.6,191z M133.4,192.4c0.4-0.3,0.9-0.3,1.3,0.2c0.4,0.5,0.3,1.6,0.4,1.6c0,0-1,0-1.5-0.4
					C133,193.3,133,192.8,133.4,192.4z M131,195c0.3-0.4,0.8-0.5,1.3-0.1c0.5,0.4,0.7,1.4,0.7,1.4c0,0-1,0.3-1.6-0.1
					C130.8,195.9,130.7,195.4,131,195z"/>
				<path d="M132.3,194.9c0.5,0.4,0.7,1.4,0.7,1.4c0,0-1,0.3-1.6-0.1c-0.6-0.3-0.7-0.9-0.4-1.3C131.2,194.6,131.8,194.5,132.3,194.9
					z"/>
				<path d="M134.7,192.6c0.4,0.5,0.3,1.6,0.4,1.6c0,0-1,0-1.5-0.4c-0.5-0.5-0.5-1-0.1-1.3C133.7,192.1,134.3,192.1,134.7,192.6z"/>
				<path d="M136.6,191c0.5-0.2,1,0.1,1.2,0.7c0.2,0.6-0.3,1.6-0.3,1.6c0,0-1-0.4-1.3-1C135.9,191.7,136.1,191.2,136.6,191z"/>
				<path class="st1" d="M108.6,185.9c-0.9,0.8-1.9,1.4-2.9,1.9c-0.4-0.5-0.8-1-1.1-1.6c1-0.5,1.9-1.1,2.8-1.8
					c4.9-4.1,6.1-10.8,2.7-14.9l-8.8,7.3v0l10.5-8.7C115.9,173.1,114.5,181.1,108.6,185.9z"/>
				<path class="st2" d="M110.1,169.5l-8.8,7.3c0.5,3.6,1.6,6.7,3.3,9.5c1-0.5,1.9-1.1,2.8-1.8C112.3,180.4,113.5,173.7,110.1,169.5
					z M105.9,183.2c-0.4,0.3-0.9,0.2-1.3-0.3c-0.4-0.6-0.2-1.6-0.3-1.6c0,0,1.1,0.1,1.5,0.5C106.3,182.3,106.3,182.9,105.9,183.2z
					 M108.2,179.2c0.6,0.4,0.6,0.9,0.3,1.3c-0.3,0.4-0.8,0.4-1.4,0c-0.5-0.5-0.6-1.5-0.6-1.5C106.6,179,107.6,178.8,108.2,179.2z
					 M107.9,176.3c0,0,1-0.4,1.6-0.2c0.6,0.3,0.8,0.8,0.6,1.2c-0.2,0.5-0.7,0.6-1.3,0.3C108.2,177.3,107.9,176.3,107.9,176.3z
					 M109.4,172.9c0.7,0,1.1,0.4,1,0.9c0,0.5-0.4,0.9-1.1,0.8c-0.7-0.1-1.3-0.9-1.3-0.9C108,173.7,108.7,172.9,109.4,172.9z"/>
				<path d="M110.5,173.8c0,0.5-0.4,0.9-1.1,0.8c-0.7-0.1-1.3-0.9-1.3-0.9c0,0,0.8-0.8,1.4-0.8C110.1,172.9,110.5,173.3,110.5,173.8
					z"/>
				<path d="M109.5,176.1c0.6,0.3,0.8,0.8,0.6,1.2c-0.2,0.5-0.7,0.6-1.3,0.3c-0.6-0.3-0.9-1.4-0.9-1.4
					C107.9,176.3,108.9,175.9,109.5,176.1z"/>
				<path d="M108.5,180.5c-0.3,0.4-0.8,0.4-1.4,0c-0.5-0.5-0.6-1.5-0.6-1.5c0,0,1-0.2,1.6,0.2C108.7,179.6,108.8,180.1,108.5,180.5z
					"/>
				<path d="M104.6,182.9c-0.4-0.6-0.2-1.6-0.3-1.6c0,0,1.1,0.1,1.5,0.5c0.5,0.5,0.4,1,0.1,1.4C105.5,183.5,105,183.4,104.6,182.9z"
					/>
				<path class="st1" d="M148.1,173.4l1.7-1.4c2,2.4,5.1,3.4,8.3,3.1c-0.2,0.7-0.4,1.4-0.6,2.1C153.8,177.4,150.4,176.1,148.1,173.4
					z"/>
				<path class="st2" d="M158.1,175.1c1-3.6,1.9-7.7,2.6-12.1l-10.9,9l0,0C151.8,174.4,154.9,175.4,158.1,175.1z M152.8,172.3
					c0.2-0.7,1.1-1.2,1.1-1.2c0,0,0.7,0.8,0.6,1.5c-0.1,0.7-0.5,1-1,0.9C152.9,173.5,152.6,173,152.8,172.3z M157,173.9
					c-0.5,0.1-1-0.2-1.1-0.8c-0.1-0.7,0.5-1.6,0.5-1.6c0,0,0.9,0.5,1.2,1.1C157.7,173.3,157.5,173.8,157,173.9z"/>
				<path d="M155.9,173.1c-0.1-0.7,0.5-1.6,0.5-1.6c0,0,0.9,0.5,1.2,1.1c0.2,0.6-0.1,1.1-0.5,1.3C156.5,174,156,173.8,155.9,173.1z"
					/>
				<path d="M153.8,171.1c0,0,0.7,0.8,0.6,1.5c-0.1,0.7-0.5,1-1,0.9c-0.5-0.1-0.8-0.5-0.7-1.2C152.9,171.7,153.8,171.1,153.8,171.1z
					"/>
				<path class="st1" d="M165,72.9c-3.4-4.5-3.1-10.5,0.7-13.3l11.2,14.6v0l-10.2-13.3c-3.2,2.4-3.4,7.4-0.6,11.2
					c2.8,3.6,7.5,4.8,10.6,2.6c-0.1,0.7-0.2,1.4-0.3,2C172.7,78.2,167.9,76.8,165,72.9z"/>
				<path class="st2" d="M176.7,74.7c0-0.2,0.1-0.3,0.1-0.5l-10.2-13.3c-3.2,2.4-3.4,7.4-0.6,11.2C168.9,75.7,173.5,76.8,176.7,74.7
					z M165.6,65.3c0.5-0.1,1.1,0.4,1.1,0.4c0,0-0.4,0.7-0.9,0.8c-0.5,0.1-0.8-0.1-0.9-0.4C164.9,65.7,165.1,65.4,165.6,65.3z
					 M167.2,63.8c0,0-0.6,0.5-1.1,0.4c-0.5-0.1-0.7-0.4-0.7-0.8c0.1-0.4,0.4-0.6,0.9-0.5C166.8,63.1,167.1,63.8,167.2,63.8z
					 M167.3,67.9c0,0-0.2,0.7-0.7,1c-0.4,0.2-0.8,0.1-1-0.2c-0.2-0.3,0-0.7,0.5-0.9C166.6,67.6,167.3,67.9,167.3,67.9z M168.5,69.9
					c0,0-0.1,0.8-0.4,1.1c-0.4,0.3-0.8,0.3-1,0c-0.2-0.3-0.2-0.7,0.3-1C167.8,69.8,168.5,69.9,168.5,69.9z M170,72.8
					c-0.3,0.4-0.7,0.4-1,0.2c-0.3-0.2-0.3-0.6,0-1c0.3-0.4,1.1-0.4,1.1-0.4C170.2,71.6,170.3,72.4,170,72.8z M172.2,73.9
					c-0.2,0.5-0.6,0.6-0.9,0.4c-0.3-0.2-0.4-0.6-0.2-1c0.3-0.4,1-0.6,1-0.6C172.1,72.7,172.4,73.4,172.2,73.9z M173.3,73.8
					c0.1-0.5,0.7-1,0.7-1c0,0,0.6,0.6,0.6,1.1c0,0.5-0.3,0.8-0.7,0.7C173.5,74.6,173.2,74.3,173.3,73.8z"/>
				<path d="M174,72.8c0,0,0.6,0.6,0.6,1.1c0,0.5-0.3,0.8-0.7,0.7c-0.4,0-0.6-0.4-0.6-0.9C173.4,73.3,174,72.8,174,72.8z"/>
				<path d="M171.2,74.3c-0.3-0.2-0.4-0.6-0.2-1c0.3-0.4,1-0.6,1-0.6c0,0,0.3,0.7,0.1,1.2C172,74.3,171.6,74.5,171.2,74.3z"/>
				<path d="M169,73c-0.3-0.2-0.3-0.6,0-1c0.3-0.4,1.1-0.4,1.1-0.4c0,0,0.1,0.8-0.2,1.2C169.7,73.2,169.3,73.2,169,73z"/>
				<path d="M167.1,71c-0.2-0.3-0.2-0.7,0.3-1c0.4-0.3,1.2-0.1,1.2-0.1c0,0-0.1,0.8-0.4,1.1C167.7,71.3,167.3,71.3,167.1,71z"/>
				<path d="M166.6,68.8c-0.4,0.2-0.8,0.1-1-0.2c-0.2-0.3,0-0.7,0.5-0.9c0.5-0.2,1.2,0.1,1.2,0.1C167.3,67.9,167.1,68.6,166.6,68.8z
					"/>
				<path d="M166.8,65.7c0,0-0.4,0.7-0.9,0.8c-0.5,0.1-0.8-0.1-0.9-0.4c-0.1-0.4,0.2-0.7,0.6-0.8C166.1,65.2,166.8,65.7,166.8,65.7z
					"/>
				<path d="M165.4,63.5c0.1-0.4,0.4-0.6,0.9-0.5c0.5,0.1,0.9,0.8,0.9,0.8c0,0-0.6,0.5-1.1,0.4C165.5,64.2,165.3,63.9,165.4,63.5z"
					/>
				<path class="st1" d="M173.7,56c1.9-0.6,3.5-1.7,4.7-3.2c0,1.1,0,2.2,0,3.4c-1.2,1-2.5,1.8-4.1,2.2L173.7,56z"/>
				<path class="st1" d="M166.6,31.4l3.5,12L165.9,29c2.8-0.8,5.7-0.5,8.2,0.8c0.4,1.1,0.8,2.2,1.1,3.3
					C172.7,31.2,169.6,30.5,166.6,31.4z"/>
				<path class="st2" d="M178.5,52.7c0-0.7,0-1.3-0.1-2c0-0.2,0-0.4,0-0.6c-0.2,0.1-0.5,0.2-0.8,0.1c-0.7-0.2-1.4-1.2-1.4-1.2
					c0,0,0.9-0.7,1.7-0.7c0.2,0,0.3,0.1,0.4,0.1c-0.1-0.7-0.1-1.3-0.2-2c-0.7-0.1-1.5-0.8-1.5-0.8c0,0,0.6-0.8,1.3-1
					c-0.1-0.7-0.2-1.4-0.3-2.1c-0.7,0.1-1.6-0.5-1.6-0.5c0,0,0.5-1,1.2-1.3c0,0,0.1,0,0.1,0c-0.1-0.7-0.3-1.5-0.4-2.2
					c-0.1,0.1-0.3,0.2-0.4,0.3c-0.7,0.3-1.8-0.1-1.8-0.1c0,0,0.3-1.1,0.9-1.5c0.4-0.2,0.7-0.3,1-0.2c-0.4-1.4-0.8-2.9-1.2-4.3
					c-2.6-1.8-5.7-2.6-8.7-1.7l3.5,12l3.7,12.6h0C175.6,55.4,177.2,54.3,178.5,52.7z M171.4,34.3c-0.4,0.6-1.5,0.9-1.5,1
					c0,0-0.5-1.1-0.2-1.8c0.3-0.7,0.9-0.9,1.4-0.6C171.6,33.1,171.8,33.7,171.4,34.3z M174.2,36.2c-0.6,0.5-1.8,0.3-1.8,0.3
					c0,0,0-1.2,0.5-1.7c0.5-0.5,1.1-0.5,1.5-0.1C174.9,35.1,174.8,35.7,174.2,36.2z M176.9,53c-0.3,0.5-0.9,0.6-1.5,0.2
					c-0.6-0.4-0.8-1.6-0.8-1.6c0,0,1.1-0.3,1.8,0C177.1,51.9,177.2,52.5,176.9,53z"/>
				<path d="M169.9,35.3c0,0-0.5-1.1-0.2-1.8c0.3-0.7,0.9-0.9,1.4-0.6c0.5,0.3,0.7,0.8,0.3,1.5C171,35,169.9,35.3,169.9,35.3z"/>
				<path d="M172.5,36.5c0,0,0-1.2,0.5-1.7c0.5-0.5,1.1-0.5,1.5-0.1c0.4,0.4,0.3,1-0.3,1.5C173.7,36.7,172.5,36.5,172.5,36.5z"/>
				<path d="M176.4,39.1c-0.7,0.3-1.8-0.1-1.8-0.1c0,0,0.3-1.1,0.9-1.5c0.4-0.2,0.7-0.3,1-0.2c0.1,0.5,0.2,1,0.3,1.5
					C176.7,38.9,176.6,39,176.4,39.1z"/>
				<path d="M176,42.3c0,0,0.5-1,1.2-1.3c0,0,0.1,0,0.1,0c0.1,0.6,0.2,1.2,0.3,1.8C176.9,42.9,176,42.3,176,42.3z"/>
				<path d="M177.9,44.8c0.1,0.6,0.1,1.2,0.2,1.8c-0.7-0.1-1.5-0.8-1.5-0.8C176.6,45.8,177.2,45.1,177.9,44.8z"/>
				<path d="M177.5,50.3c-0.7-0.2-1.4-1.2-1.4-1.2c0,0,0.9-0.7,1.7-0.7c0.2,0,0.3,0.1,0.4,0.1c0,0.5,0.1,1.1,0.1,1.6
					C178.2,50.3,177.9,50.4,177.5,50.3z"/>
				<path d="M175.4,53.1c-0.6-0.4-0.8-1.6-0.8-1.6c0,0,1.1-0.3,1.8,0c0.7,0.4,0.8,1,0.5,1.4C176.6,53.5,176,53.6,175.4,53.1z"/>
				<path class="st1" d="M163.7,24.2l-0.8,2.1c-6-2.3-8.6-9.8-5.9-16.8c0.2-0.6,0.5-1.2,0.8-1.8c0.5,0.4,1,0.8,1.5,1.2
					c-0.2,0.4-0.4,0.9-0.6,1.3C156.5,16,158.7,22.3,163.7,24.2z"/>
				<path class="st2" d="M163.7,24.2l3-7.9c-1.3-1.7-2.7-3.3-4.3-4.8c-0.3,0.1-0.8,0.2-1.1,0.1c-0.6-0.2-0.9-0.7-0.7-1.1
					c0.1-0.2,0.2-0.3,0.3-0.4c-0.5-0.5-1.1-0.9-1.6-1.4c-0.2,0.4-0.4,0.9-0.6,1.3C156.5,16,158.7,22.3,163.7,24.2L163.7,24.2z
					 M162.1,14.4c0,0-0.8,0.7-1.5,0.6c-0.7-0.1-1-0.5-0.9-1c0.1-0.5,0.5-0.8,1.2-0.7C161.5,13.6,162.1,14.4,162.1,14.4z M162.3,17.4
					c0,0-0.6,0.8-1.3,0.9c-0.7,0.1-1.1-0.3-1.1-0.7c0-0.5,0.3-0.9,1-0.9C161.5,16.6,162.2,17.4,162.3,17.4z M163.5,19.7
					c0,0-0.3,1-0.8,1.4c-0.6,0.3-1.1,0.2-1.3-0.3c-0.2-0.5-0.1-1,0.6-1.2C162.5,19.3,163.5,19.7,163.5,19.7z"/>
				<path d="M162.6,21c-0.6,0.3-1.1,0.2-1.3-0.3c-0.2-0.5-0.1-1,0.6-1.2c0.6-0.3,1.6,0.2,1.6,0.1C163.4,19.7,163.2,20.7,162.6,21z"
					/>
				<path d="M161,18.3c-0.7,0.1-1.1-0.3-1.1-0.7c0-0.5,0.3-0.9,1-0.9c0.7,0,1.4,0.7,1.4,0.7C162.2,17.3,161.6,18.2,161,18.3z"/>
				<path d="M159.7,14.1c0.1-0.5,0.5-0.8,1.2-0.7c0.7,0.1,1.2,1,1.2,1c0,0-0.8,0.7-1.5,0.6C160,15,159.6,14.6,159.7,14.1z"/>
				<path d="M161.3,11.6c-0.6-0.2-0.9-0.7-0.7-1.1c0.1-0.2,0.2-0.3,0.3-0.4c0.5,0.5,1,0.9,1.5,1.4C162.1,11.6,161.7,11.7,161.3,11.6
					z"/>
				<path class="st1" d="M111.2,153l1,1.3c-2.8,2.1-6.7,2-10-0.1c0.1-0.5,0.2-1,0.2-1.5C105.3,154.7,108.7,154.9,111.2,153z"/>
				<path class="st2" d="M111.2,153l-7.2-9.4c-0.5,3.1-1.1,6.1-1.6,9.1C105.3,154.7,108.7,154.9,111.2,153L111.2,153z M107.5,152.4
					c0.1-0.5,0.7-1,0.7-1c0,0,0.6,0.6,0.6,1.1c0,0.5-0.3,0.8-0.7,0.7C107.7,153.2,107.4,152.9,107.5,152.4z M105.2,151.9
					c0.3-0.4,1-0.6,1-0.6c0,0,0.3,0.7,0.1,1.2c-0.2,0.5-0.6,0.6-0.9,0.4C105.1,152.7,105,152.3,105.2,151.9z M103.2,150.6
					c0.3-0.4,1.1-0.4,1.1-0.4c0,0,0.1,0.8-0.2,1.2c-0.3,0.4-0.7,0.4-1,0.2C102.9,151.4,102.9,150.9,103.2,150.6z"/>
				<path d="M108.2,151.4c0,0,0.6,0.6,0.6,1.1c0,0.5-0.3,0.8-0.7,0.7c-0.4,0-0.6-0.4-0.6-0.9C107.6,151.9,108.2,151.4,108.2,151.4z"
					/>
				<path d="M106.3,151.3c0,0,0.3,0.7,0.1,1.2c-0.2,0.5-0.6,0.6-0.9,0.4c-0.3-0.2-0.4-0.6-0.2-1
					C105.5,151.5,106.3,151.3,106.3,151.3z"/>
				<path d="M104.2,151.4c-0.3,0.4-0.7,0.4-1,0.2c-0.3-0.2-0.3-0.6,0-1c0.3-0.4,1.1-0.4,1.1-0.4C104.3,150.2,104.4,151,104.2,151.4z
					"/>
				<path class="st1" d="M112,113.9l1.2-1.1c3.2,3.5,2.5,9.4-1.7,13.3c-1.5,1.4-3.2,2.3-4.9,2.7c0.1-0.5,0.2-1,0.2-1.6
					c1.3-0.4,2.6-1.1,3.8-2.2C114,121.9,114.7,116.9,112,113.9z"/>
				<path class="st2" d="M112,113.9l-4,3.7c-0.2,2.2-0.4,4.3-0.7,6.5c0.2,0.1,0.3,0.2,0.4,0.4c0.3,0.4,0.2,0.8-0.1,1
					c-0.2,0.1-0.3,0.1-0.5,0c-0.1,0.6-0.2,1.1-0.2,1.7c1.3-0.4,2.6-1.1,3.8-2.2C114,121.9,114.7,116.9,112,113.9L112,113.9z
					 M112.8,116.7c0,0.4-0.3,0.7-0.8,0.7c-0.5,0-1-0.6-1-0.6c0,0,0.5-0.6,1-0.7C112.4,116.1,112.8,116.4,112.8,116.7z M111.7,119.6
					c-0.4-0.2-0.7-1-0.7-1c0,0,0.7-0.3,1.2-0.2c0.5,0.2,0.6,0.5,0.5,0.9C112.6,119.7,112.2,119.9,111.7,119.6z M110.1,120.7
					c0,0,0.8-0.2,1.2,0.1c0.4,0.3,0.5,0.7,0.3,1c-0.2,0.3-0.6,0.4-1,0C110.2,121.5,110.1,120.7,110.1,120.7z M108.5,122.5
					c0,0,0.8,0,1.1,0.3c0.4,0.3,0.4,0.8,0.1,1c-0.3,0.2-0.7,0.2-1-0.2C108.5,123.3,108.5,122.5,108.5,122.5z"/>
				<path d="M107.7,124.5c0.3,0.4,0.2,0.8-0.1,1c-0.2,0.1-0.3,0.1-0.5,0c0.1-0.5,0.1-0.9,0.2-1.4
					C107.4,124.2,107.6,124.4,107.7,124.5z"/>
				<path d="M108.5,122.5c0,0,0.8,0,1.1,0.3c0.4,0.3,0.4,0.8,0.1,1c-0.3,0.2-0.7,0.2-1-0.2C108.5,123.3,108.5,122.5,108.5,122.5z"/>
				<path d="M111.3,120.8c0.4,0.3,0.5,0.7,0.3,1c-0.2,0.3-0.6,0.4-1,0c-0.4-0.3-0.5-1.1-0.5-1.1
					C110.1,120.7,110.9,120.6,111.3,120.8z"/>
				<path d="M111,118.7c0,0,0.7-0.3,1.2-0.2c0.5,0.2,0.6,0.5,0.5,0.9c-0.1,0.3-0.5,0.5-1,0.3C111.3,119.4,111,118.7,111,118.7z"/>
				<path d="M112,117.4c-0.5,0-1-0.6-1-0.6c0,0,0.5-0.6,1-0.7c0.5,0,0.8,0.2,0.8,0.6C112.8,117.1,112.5,117.4,112,117.4z"/>
				<path class="st1" d="M114.8,105.2c-2,1.6-4.2,2.7-6.4,3.2c0-0.7,0-1.3,0-2c1.8-0.5,3.6-1.3,5.2-2.7c4.9-4.1,6.1-10.8,2.7-14.9
					l-8.9,7.3l0,0l10.6-8.8C122.1,92.4,120.7,100.4,114.8,105.2z"/>
				<path class="st2" d="M116.3,88.8l-8.9,7.3c0.4,2.1,0.6,4.2,0.8,6.3c0.3,0.1,0.8,0.4,1,0.7c0.3,0.6,0.2,1.1-0.2,1.3
					c-0.2,0.1-0.5,0.1-0.7,0c0,0.6,0,1.2,0.1,1.9c1.8-0.5,3.6-1.3,5.2-2.7C118.6,99.7,119.8,93,116.3,88.8z M112.2,102.5
					c-0.4,0.3-0.9,0.2-1.3-0.3c-0.4-0.6-0.2-1.6-0.3-1.6c0,0,1.1,0.1,1.5,0.5C112.6,101.6,112.5,102.2,112.2,102.5z M114.4,98.5
					c0.6,0.4,0.6,0.9,0.3,1.3c-0.3,0.4-0.8,0.4-1.4,0c-0.5-0.5-0.6-1.5-0.6-1.5C112.8,98.3,113.9,98.1,114.4,98.5z M114.2,95.6
					c0,0,1-0.4,1.6-0.2c0.6,0.3,0.8,0.8,0.6,1.2c-0.2,0.5-0.7,0.6-1.3,0.3C114.5,96.6,114.2,95.6,114.2,95.6z M115.7,92.2
					c0.7,0,1.1,0.4,1,0.9c0,0.5-0.4,0.9-1.1,0.8c-0.7-0.1-1.3-0.9-1.3-0.9C114.2,93,115,92.2,115.7,92.2z"/>
				<path d="M116.7,93.1c0,0.5-0.4,0.9-1.1,0.8c-0.7-0.1-1.3-0.9-1.3-0.9c0,0,0.8-0.8,1.4-0.8C116.4,92.2,116.7,92.6,116.7,93.1z"/>
				<path d="M115.8,95.4c0.6,0.3,0.8,0.8,0.6,1.2c-0.2,0.5-0.7,0.6-1.3,0.3c-0.6-0.3-0.9-1.4-0.9-1.4
					C114.2,95.6,115.1,95.2,115.8,95.4z"/>
				<path d="M114.8,99.8c-0.3,0.4-0.8,0.4-1.4,0c-0.5-0.5-0.6-1.5-0.6-1.5c0,0,1-0.2,1.6,0.2C115,98.9,115.1,99.4,114.8,99.8z"/>
				<path d="M110.8,102.2c-0.4-0.6-0.2-1.6-0.3-1.6c0,0,1.1,0.1,1.5,0.5c0.5,0.5,0.4,1,0.1,1.4C111.8,102.8,111.2,102.7,110.8,102.2
					z"/>
				<path d="M109.3,103.2c0.3,0.6,0.2,1.1-0.2,1.3c-0.2,0.1-0.5,0.1-0.7,0c0-0.7-0.1-1.4-0.1-2.1C108.5,102.6,109,102.8,109.3,103.2
					z"/>
				<path class="st1" d="M131.4,22.7l-3.8-13.2l3.2,10.8c5.7-1.7,8.8-8.5,6.8-15.3c-0.6-1.9-1.4-3.6-2.6-5c0.9,0,1.8,0.1,2.7,0.1
					c0.8,1.3,1.4,2.7,1.9,4.3C141.8,12.5,138.2,20.7,131.4,22.7z"/>
				<path class="st2" d="M137.5,5c-0.6-1.9-1.4-3.6-2.6-5c-1.1,0-2.3,0-3.3,0c-0.1,0.2-0.2,0.4-0.4,0.5c-0.6,0.5-1.8,0.3-1.8,0.3
					c0,0,0-0.3,0.1-0.7c-1.6,0.1-3.1,0.4-4.5,0.7l2.5,8.7l3.2,10.8C136.4,18.7,139.5,11.8,137.5,5z M133.1,13.5c0,0,0.9-0.7,1.7-0.7
					c0.7,0.1,1.1,0.6,1,1.1c-0.1,0.5-0.6,0.9-1.3,0.7C133.8,14.5,133.1,13.5,133.1,13.5z M131.6,15.9c0,0,1.1-0.3,1.8,0
					c0.7,0.4,0.8,1,0.5,1.4c-0.3,0.5-0.9,0.6-1.5,0.2C131.8,17.1,131.6,15.9,131.6,15.9z M133.3,3.5c-0.7,0.3-1.8-0.1-1.8-0.1
					c0,0,0.3-1.1,0.9-1.5c0.6-0.4,1.2-0.2,1.5,0.2C134.2,2.6,134,3.2,133.3,3.5z M134.6,7.1c-0.7,0.2-1.7-0.5-1.7-0.4
					c0,0,0.5-1,1.2-1.3c0.7-0.3,1.2,0,1.4,0.5C135.7,6.5,135.4,7,134.6,7.1z M136.2,10c0,0.5-0.4,1-1.1,1c-0.7,0-1.6-0.8-1.6-0.8
					c0,0,0.7-0.9,1.5-1C135.7,9.1,136.2,9.5,136.2,10z"/>
				<path d="M129.4,0.9c0,0,0-0.3,0.1-0.7c0.7-0.1,1.4-0.1,2.1-0.1c-0.1,0.2-0.2,0.4-0.4,0.5C130.6,1,129.4,0.9,129.4,0.9z"/>
				<path d="M133.3,3.5c-0.7,0.3-1.8-0.1-1.8-0.1c0,0,0.3-1.1,0.9-1.5c0.6-0.4,1.2-0.2,1.5,0.2C134.2,2.6,134,3.2,133.3,3.5z"/>
				<path d="M134.6,7.1c-0.7,0.2-1.7-0.5-1.7-0.4c0,0,0.5-1,1.2-1.3c0.7-0.3,1.2,0,1.4,0.5C135.7,6.5,135.4,7,134.6,7.1z"/>
				<path d="M135.1,11c-0.7,0-1.6-0.8-1.6-0.8c0,0,0.7-0.9,1.5-1c0.7-0.1,1.2,0.3,1.2,0.8C136.3,10.6,135.9,11,135.1,11z"/>
				<path d="M133.1,13.5c0,0,0.9-0.7,1.7-0.7c0.7,0.1,1.1,0.6,1,1.1c-0.1,0.5-0.6,0.9-1.3,0.7C133.8,14.5,133.1,13.5,133.1,13.5z"/>
				<path d="M133.4,15.9c0.7,0.4,0.8,1,0.5,1.4c-0.3,0.5-0.9,0.6-1.5,0.2c-0.6-0.4-0.8-1.6-0.8-1.6
					C131.6,15.9,132.7,15.5,133.4,15.9z"/>
			</g>
			<g>
				<path class="st1" d="M120.5,25.7c-4.1,3.8-10.1,4.1-13.3,0.6l15-13.8C125.4,16,124.6,21.9,120.5,25.7z"/>
				<path class="st2" d="M119.6,24.7c-3.5,3.2-8.5,3.4-11.2,0.5l12.6-11.6C123.7,16.5,123,21.5,119.6,24.7z"/>
				<g>
					<path d="M110.9,25c-0.1,0.5,0.2,0.8,0.6,0.9c0.4,0,0.7-0.2,0.7-0.7c0-0.5-0.6-1.1-0.5-1.1C111.6,24.1,111,24.5,110.9,25z"/>
				</g>
				<g>
					<path d="M113.2,25.4c0.1,0.5,0.5,0.7,0.8,0.6c0.4-0.1,0.5-0.5,0.4-0.9c-0.2-0.5-0.9-0.8-0.9-0.8
						C113.5,24.3,113.1,24.9,113.2,25.4z"/>
				</g>
				<g>
					<path d="M115.6,24.7c0.2,0.4,0.6,0.6,0.9,0.4c0.3-0.2,0.4-0.6,0.1-1c-0.3-0.4-1-0.6-1-0.6C115.6,23.5,115.4,24.3,115.6,24.7z"
						/>
				</g>
				<g>
					<path d="M117.8,23.3c0.3,0.4,0.7,0.4,1,0.2c0.3-0.2,0.3-0.6-0.1-1c-0.4-0.3-1.1-0.3-1.1-0.3C117.5,22.1,117.5,22.9,117.8,23.3z
						"/>
				</g>
				<g>
					<path d="M119.6,21.4c0.4,0.3,0.8,0.3,1,0c0.2-0.3,0.1-0.7-0.3-1c-0.4-0.3-1.2-0.1-1.2-0.1C119.1,20.3,119.2,21.1,119.6,21.4z"
						/>
				</g>
				<g>
					<path d="M120.7,19.3c0.5,0.2,0.8,0.1,1-0.3c0.1-0.3,0-0.7-0.5-0.9c-0.5-0.2-1.2,0.2-1.2,0.2C120,18.3,120.3,19,120.7,19.3z"/>
				</g>
				<g>
					<path d="M121,17c0.5,0,0.8-0.3,0.8-0.7c0-0.4-0.3-0.7-0.8-0.6c-0.5,0.1-1,0.7-1,0.7C119.9,16.4,120.5,17,121,17z"/>
				</g>
			</g>
			<g>
				<path class="st1" d="M122.9,48.2c5.9-4.9,7.3-12.8,3.2-17.8L104.8,48C108.9,53,117,53.1,122.9,48.2z"/>
				<path class="st2" d="M121.7,46.8c4.9-4.1,6.1-10.8,2.7-14.9l-17.9,14.8C110,50.8,116.8,50.8,121.7,46.8z"/>
				<g>
					<path d="M123.7,35.2c0.7,0,1.1,0.4,1,0.9c0,0.5-0.4,0.9-1.1,0.8c-0.7-0.1-1.3-0.9-1.3-0.9C122.3,36,123.1,35.2,123.7,35.2z"/>
				</g>
				<g>
					<path d="M123.8,38.4c0.6,0.3,0.8,0.8,0.6,1.2c-0.2,0.5-0.7,0.6-1.3,0.3c-0.6-0.3-0.9-1.4-0.9-1.4
						C122.2,38.6,123.2,38.2,123.8,38.4z"/>
				</g>
				<g>
					<path d="M122.5,41.5c0.6,0.4,0.6,0.9,0.3,1.3c-0.3,0.4-0.8,0.4-1.4,0c-0.5-0.5-0.6-1.5-0.6-1.5
						C120.9,41.3,121.9,41.1,122.5,41.5z"/>
				</g>
				<g>
					<path d="M120.2,44.1c0.5,0.5,0.4,1,0.1,1.4c-0.4,0.3-0.9,0.2-1.3-0.3c-0.4-0.6-0.2-1.6-0.3-1.6
						C118.7,43.6,119.7,43.6,120.2,44.1z"/>
				</g>
				<g>
					<path d="M117.3,46.2c0.3,0.6,0.2,1.1-0.2,1.3c-0.4,0.2-1,0-1.2-0.6c-0.3-0.6,0.1-1.6,0.1-1.6C116,45.3,117,45.6,117.3,46.2z"/>
				</g>
				<g>
					<path d="M114.2,47.3c0.2,0.6-0.1,1.1-0.5,1.3c-0.5,0.1-1-0.2-1.1-0.8c-0.1-0.7,0.5-1.6,0.5-1.6C113.1,46.2,114,46.7,114.2,47.3
						z"/>
				</g>
				<g>
					<path d="M111.2,47.3c-0.1,0.7-0.5,1-1,0.9c-0.5-0.1-0.8-0.5-0.7-1.2c0.2-0.7,1.1-1.2,1.1-1.2C110.5,45.8,111.2,46.6,111.2,47.3
						z"/>
				</g>
			</g>
		</g>
		<g>
			<g>
				<g>
					<path class="st3" d="M138.8,30.9c-0.2,2.3-2.2,3.9-4.4,3.7c-2.3-0.2-3.9-2.2-3.7-4.4c0.2-2.3,2.2-3.9,4.4-3.7
						C137.3,26.6,139,28.6,138.8,30.9z"/>
					<ellipse transform="matrix(0.2806 -0.9598 0.9598 0.2806 67.4318 151.8783)" class="st3" cx="135" cy="31" rx="3" ry="3"/>
					<path class="st3" d="M137.1,46.9c-0.1,0-0.2-0.1-0.4-0.2c-1-0.6-1.5-1.9-1.1-2.9c0.9-2.7,2.7-7.5-1.4-11.1
						c-0.9-0.8-1.1-2.1-0.6-3c0.6-0.9,1.7-0.9,2.6-0.1c4.6,4.1,5.1,9.8,2.9,16.3C138.9,46.8,138,47.2,137.1,46.9z"/>
				</g>
				<g>
					<path class="st4" d="M138.8,30.9c-0.2,2.3-2.2,3.9-4.4,3.7c-2.3-0.2-3.9-2.2-3.7-4.4c0.2-2.3,2.2-3.9,4.4-3.7
						C137.3,26.6,139,28.6,138.8,30.9z"/>
					<ellipse transform="matrix(0.2806 -0.9598 0.9598 0.2806 67.4318 151.8783)" class="st5" cx="135" cy="31" rx="3" ry="3"/>
					<path class="st1" d="M137.1,46.9c-0.1,0-0.2-0.1-0.4-0.2c-1-0.6-1.5-1.9-1.1-2.9c0.9-2.7,2.7-7.5-1.4-11.1
						c-0.9-0.8-1.1-2.1-0.6-3c0.6-0.9,1.7-0.9,2.6-0.1c4.6,4.1,5.1,9.8,2.9,16.3C138.9,46.8,138,47.2,137.1,46.9z"/>
				</g>
			</g>
			<path class="st5" d="M172.9,128.3c0,0.5-0.1,0.9-0.2,1.4c-0.2,0.6-0.4,1.2-0.7,1.8c-0.4,0.8-0.9,1.7-1.4,2.5
				c-0.5,0.9-1.1,1.7-1.8,2.5c-0.6,0.8-1.3,1.7-2,2.5c-0.6,0.8-1.3,1.5-2,2.3c-0.6,0.7-1.2,1.3-1.9,1.9c-0.5,0.5-1,1-1.5,1.4
				c-0.2,0.1-0.3,0.3-0.5,0.4c-2.9,2.2-5.5,3.3-7.8,1.6c-1.8-1.3-0.5-5.5,3.4-9.7c3-3.2,7.7-8.8,10.2-12c2.5-3.2,5.1-7.5,5.7-10
				c0-0.1,0.1-0.4,0.2-0.2c0.1,0.3,0.1,0.6,0.1,0.9c0,0.6,0.1,1.2,0.1,1.8c0,0.8,0,1.5,0.1,2.3c0,0.9,0,1.7,0,2.6c0,0.8,0,1.7,0,2.5
				c0,0.7,0,1.5,0,2.2c0,0.3,0,0.6,0,0.9C173,127.9,172.9,128.1,172.9,128.3z"/>
			<path class="st4" d="M154.4,142.7c-0.1,1.3,1.1,2.4,2.8,2.6c1.7,0.1,3.1-0.8,3.2-2c0.1-1.3-1.1-2.4-2.8-2.6
				C156,140.6,154.6,141.5,154.4,142.7z"/>
			<path class="st5" d="M97.9,123.7c0,0.5,0,0.9,0.1,1.4c0.1,0.6,0.3,1.2,0.5,1.8c0.3,0.9,0.7,1.7,1.1,2.5c0.4,0.9,0.9,1.8,1.4,2.7
				c0.5,0.9,1.1,1.8,1.6,2.6c0.5,0.8,1.1,1.6,1.7,2.4c0.5,0.7,1,1.4,1.6,2.1c0.4,0.5,0.9,1,1.3,1.5c0.1,0.1,0.3,0.3,0.4,0.4
				c2.6,2.5,4.9,3.8,7.2,2.3c1.8-1.1,1-5.4-2.3-9.8c-2.5-3.4-6.5-9.4-8.6-12.8c-2.1-3.4-4.1-7.9-4.4-10.4c0-0.1,0-0.4-0.1-0.2
				c-0.1,0.2-0.2,0.6-0.2,0.9c-0.1,0.6-0.2,1.2-0.3,1.7c-0.1,0.8-0.2,1.5-0.3,2.3c-0.1,0.8-0.2,1.7-0.3,2.5
				c-0.1,0.8-0.2,1.7-0.2,2.5c-0.1,0.7-0.1,1.4-0.2,2.2c0,0.3,0,0.6-0.1,0.9C97.9,123.4,97.9,123.5,97.9,123.7z"/>
			<path class="st4" d="M114.1,139.6c0,1.3-1.3,2.3-2.9,2.2s-2.9-1-2.9-2.3c0-1.3,1.3-2.3,2.9-2.2
				C112.8,137.4,114.1,138.4,114.1,139.6z"/>
			<path class="st6" d="M96.4,103.6c0.3-3,0.8-5.8,1.4-8.4c0.9-4,2.1-7.7,3.4-11c2.7-7.1,6.6-13.6,11.2-20.1
				c2.4-3.4,18.3-23.3,26.1-23.7c8,1.1,22.5,22.8,24.7,26.4c4.1,7.1,8.6,14,10.6,21.4c1,3.4,1.8,7.2,2.4,11.4
				c0.4,2.7,0.6,5.5,0.6,8.6c-0.2,11.9-3.7,20.9-3.7,20.9s0.3-10-2.3-21.5c-0.1-0.6-0.2-1.2-0.4-1.7c-0.5-2.2-1.4-4.6-2.4-7.1
				c-3.3-8-8.7-16.7-13.3-24.1c-5.6-8.8-13.6-20.8-16.9-21.9c-3.4,1.4-11.9,12-17.9,19.9c-5.1,6.8-10.1,15-14.1,22.6
				c-1.2,2.3-2.2,4.6-3,6.8c-0.2,0.5-0.3,1-0.5,1.6c-3.6,11-4.2,21.3-4.2,21.3S95.4,115.3,96.4,103.6z"/>
		</g>
	</g>
</g>
</svg>
