<?xml version="1.0" encoding="utf-8"?>
<!-- Generator: Adobe Illustrator 25.4.1, SVG Export Plug-In . SVG Version: 6.00 Build 0)  -->
<svg version="1.1" id="Layer_1" xmlns="http://www.w3.org/2000/svg" xmlns:xlink="http://www.w3.org/1999/xlink" x="0px" y="0px"
	 viewBox="0 0 1000 1000" style="enable-background:new 0 0 1000 1000;" xml:space="preserve">
<style type="text/css">
	.st0{fill:#F0EFEF;}
</style>
<g>
	<g>
		<path class="st0" d="M948.6,791.7l-7.3,10.7l-31.4-21.3c-7.7-5.2-18.1-3.2-23.3,4.5l-51.1,75.3c-5.2,7.7-3.2,18.1,4.5,23.3
			l127.6,86.6c7.7,5.2,18.1,3.2,23.3-4.5l9.1-13.4v-12.5l-14.9,21.9c-3,4.5-9.1,5.6-13.6,2.6l-127.6-86.6c-4.5-3-5.6-9.1-2.6-13.6
			l51.1-75.3c3-4.5,9.1-5.6,13.6-2.6l34.3,23.3l59,40.1l0.7,0.5v-8.5l-52.9-35.9l7.3-10.7c1.1-1.6,3.2-2,4.8-0.9l40.8,27.7v-8.5
			l-36.9-25C958.4,785.7,951.8,786.9,948.6,791.7z"/>
		<path class="st0" d="M901.6,850.7c-13.9,20.5-8.5,48.5,12,62.5c20.5,13.9,48.5,8.5,62.5-12c13.9-20.5,8.5-48.5-12-62.5
			C943.5,824.8,915.5,830.2,901.6,850.7z M970.2,897.3c-11.8,17.3-35.4,21.9-52.7,10.1c-17.3-11.8-21.9-35.4-10.1-52.7
			c11.8-17.3,35.4-21.9,52.7-10.1C977.4,856.3,982,879.9,970.2,897.3z"/>
		<path class="st0" d="M953.3,854.6c-11.8-8-27.9-4.9-35.9,6.9s-4.9,27.9,6.9,35.9s27.9,4.9,35.9-6.9
			C968.2,878.7,965.1,862.6,953.3,854.6z M954.4,886.5c-5.8,8.6-17.6,10.8-26.2,5s-10.8-17.6-5-26.2s17.6-10.8,26.2-5
			C957.9,866.2,960.2,877.9,954.4,886.5z"/>
	</g>
	<path class="st0" d="M955.5,225.8c-2.6,30.2,1.7,53.6,12,65.7l0.1,0.1c0.1,0.1,0.1,0.1,0.2,0.2s0.2,0.2,0.3,0.2
		c0.1,0.1,0.1,0.1,0.2,0.1c0.1,0.1,0.2,0.1,0.4,0.2c0.1,0,0.1,0.1,0.2,0.1c0.2,0.1,0.4,0.1,0.6,0.2l0,0l0,0l19.1,3.8l0,0l0,0
		c0.2,0,0.4,0.1,0.6,0.1c0.1,0,0.1,0,0.2,0s0.3,0,0.4,0s0.2,0,0.2-0.1c0.1,0,0.2-0.1,0.4-0.1c0.1,0,0.2-0.1,0.2-0.1s0.1,0,0.1-0.1
		c3.1-1.6,6.2-3.9,9.1-6.7V279c-3.7,4.6-7.5,8-11.3,10.3l-4.9-1l8.3-42.1l7.9,1.6v-7.1l-38-7.5c0.1-2.2,0.3-4.5,0.5-6.8
		c0.1-0.9,0.2-1.9,0.3-2.8l37.3,7.3v-7.1l-3.4-0.7l3.4-17.3v-36.3l-10.3,52.3l-26.2-5.2c4.4-33.9,17.2-73.6,36.5-102.6v-12.1
		c-9.3,12.2-17.7,27.3-24.9,44.6C964.7,171.8,957.7,199.9,955.5,225.8z M985.2,244.9l-8.3,42.1l-4.9-1c-6.9-9-10.5-25.2-10.3-45.7
		L985.2,244.9z"/>
	<path class="st0" d="M872.2,510c0-23.8-19.3-43.1-43.1-43.1S786,486.2,786,510s19.3,43.1,43.1,43.1S872.2,533.8,872.2,510z
		 M793,510c0-19.9,16.2-36.1,36.1-36.1c19.9,0,36.1,16.2,36.1,36.1s-16.2,36.1-36.1,36.1S793,529.9,793,510z"/>
	<path class="st0" d="M829.1,416.9c-1.9,0-3.5,1.6-3.5,3.5v28.1c0,1.9,1.6,3.5,3.5,3.5s3.5-1.6,3.5-3.5v-28.1
		C832.6,418.4,831.1,416.9,829.1,416.9z"/>
	<path class="st0" d="M739.5,513.5h28.1c1.9,0,3.5-1.6,3.5-3.5s-1.6-3.5-3.5-3.5h-28.1c-1.9,0-3.5,1.6-3.5,3.5
		S737.6,513.5,739.5,513.5z"/>
	<path class="st0" d="M832.6,571.6c0-1.9-1.6-3.5-3.5-3.5s-3.5,1.6-3.5,3.5v28.1c0,1.9,1.6,3.5,3.5,3.5s3.5-1.6,3.5-3.5V571.6z"/>
	<path class="st0" d="M922.3,510c0-1.9-1.6-3.5-3.5-3.5h-28.1c-1.9,0-3.5,1.6-3.5,3.5s1.6,3.5,3.5,3.5h28.1
		C920.7,513.5,922.3,511.9,922.3,510z"/>
	<path class="st0" d="M785.6,470c0.9,0,1.8-0.3,2.5-1c1.4-1.4,1.4-3.6,0-5l-26.4-26.4c-1.4-1.4-3.6-1.4-5,0s-1.4,3.6,0,5l26.4,26.4
		C783.8,469.6,784.7,470,785.6,470z"/>
	<path class="st0" d="M783.1,551.1l-26.4,26.4c-1.4,1.4-1.4,3.6,0,5c0.7,0.7,1.6,1,2.5,1s1.8-0.3,2.5-1l26.4-26.4
		c1.4-1.4,1.4-3.6,0-5C786.7,549.7,784.5,549.7,783.1,551.1z"/>
	<path class="st0" d="M870.2,556l26.4,26.4c0.7,0.7,1.6,1,2.5,1s1.8-0.3,2.5-1c1.4-1.4,1.4-3.6,0-5L875.2,551c-1.4-1.4-3.6-1.4-5,0
		S868.8,554.7,870.2,556z"/>
	<path class="st0" d="M901.6,442.5c1.4-1.4,1.4-3.6,0-5s-3.6-1.4-5,0l-26.4,26.4c-1.4,1.4-1.4,3.6,0,5c0.7,0.7,1.6,1,2.5,1
		s1.8-0.3,2.5-1L901.6,442.5z"/>
	<path class="st0" d="M715.8,774.6c-1.9-4.8-4.7-9.2-8.3-12.9c-0.7-0.7-1.7-1.1-2.8-1c-1,0.1-2,0.6-2.6,1.5c-2.1,3-5,5.3-8.3,6.6
		c-5.4,2.1-11.3,2-16.2-0.2c-5.1-2.3-9-6.7-11.3-12.8c-0.3-0.9-1-1.6-1.9-2s-1.8-0.4-2.7-0.1l-3.8,1.5c-20.1,7.8-30,30.6-22.2,50.6
		l26.4,67.6c3.2,8.2,12.4,12.2,20.6,9l22-8.6l20.1,51.5c0.7,1.8,2.7,2.7,4.5,2s2.7-2.7,2-4.5l-20.1-51.5l22-8.6
		c8.2-3.2,12.2-12.4,9-20.6L715.8,774.6z M642.2,803.3c-6.4-16.5,1.7-35.1,18.2-41.6l0.7-0.3c3.1,6.2,7.7,10.8,13.6,13.4
		c6.6,3,14.5,3.1,21.6,0.3c3.2-1.3,6.2-3.2,8.7-5.7c1.8,2.3,3.2,4.9,4.3,7.6l4,10.1l-33.5,13.1c-1.8,0.7-2.7,2.7-2,4.5l11.1,28.4
		c1.2,3-0.3,6.4-3.3,7.5c-3,1.2-6.4-0.3-7.5-3.3L667,808.9c-0.7-1.8-2.7-2.7-4.5-2l-16.2,6.3L642.2,803.3z M730.6,856.3L680.1,876
		c-4.6,1.8-9.8-0.5-11.5-5.1l-19.9-51l12.9-5.1l9.8,25.1c2.6,6.6,10,9.8,16.6,7.3c6.6-2.6,9.8-10,7.3-16.6l-9.8-25.1l30.3-11.8
		l19.9,51C737.5,849.3,735.2,854.5,730.6,856.3z"/>
	<path class="st0" d="M735.1,293.7c0.6,1.9,2.5,2.9,4.4,2.3l45.7-13.7c1.9-0.6,2.9-2.5,2.3-4.4c-0.6-1.9-2.5-2.9-4.4-2.3l-19.5,5.8
		l-18.8-62.8l40.9-93c0.6-1.2,0.3-2.7-0.6-3.7c-0.9-1-2.3-1.4-3.6-1l-36.4,10.9l1.8-19.6c0.3-1.1,2.1-5.8,7-6.5l27.4-3.5
		c1.9-0.2,3.3-2,3-3.9c-0.2-1.9-2-3.3-3.9-3l-27.5,3.5c-10.1,1.5-12.8,11.5-12.9,11.9c0,0.2-0.1,0.4-0.1,0.5l-2.1,22.7l-84.3,25.3
		c-1.3,0.4-2.3,1.5-2.5,2.9s0.4,2.7,1.6,3.4l85.4,55.1l18.8,62.8l-19.5,5.8C735.6,289.9,734.6,291.8,735.1,293.7z M744.4,139.3
		l31.9-9.6l-11.4,25.8c-0.2,0-0.5,0.1-0.7,0.1l-21.9,6.6L744.4,139.3z M686.6,179l-23.7-15.3l74.3-22.3l-2.1,22.9l-47.8,14.3
		C687,178.8,686.8,178.9,686.6,179z M694.2,184l40.1-12l-2.5,27.4c-0.2,1.9,1.2,3.6,3.2,3.8c0.5,0,0.9,0,1.3-0.1
		c1.3-0.4,2.3-1.6,2.5-3l2.8-30.2l19.7-5.9l-21.7,49.3L694.2,184z"/>
	<path class="st0" d="M233.2,80.6h45.7c1,0,1.9-0.4,2.6-1.2c0.7-0.7,1-1.7,0.9-2.7l-1.9-19L274.7,0h-7l5.8,57.7l1.6,15.9h-38
		l1.6-15.9L244.5,0h-7l-5.8,57.7l-1.9,19c-0.1,1,0.2,2,0.9,2.7C231.3,80.2,232.2,80.6,233.2,80.6z"/>
	<path class="st0" d="M208,426.5c5.9,7.8,15.6,13.2,26.8,12.1c8.5-0.9,15.8-6.2,22.2-10.9c1.7-1.3,3.4-2.5,5-3.6
		c4.3-2.9,9-5.9,14-8.2c4.4-2,9.2-3.9,13.9-5.6c17.8-6.8,30.6-14.5,39.2-23.5c3.9-4.1,6.8-8.8,8.8-14.2c1.9-5.2,2.8-10.6,2.6-16.2
		c-0.1-5.6-1.3-11.1-3.5-16.4c-2.2-5.4-5.4-10.3-9.5-14.6c-0.1-0.1-0.2-0.2-0.3-0.3c-5-4.6-10.3-7.5-15.8-8.8
		c-5.2-1.2-10.5-0.9-15.9,1c-4.6,1.6-9.3,4.2-14.3,8.1l0,0c-4.1,3.2-8.5,7.3-13.5,12.5c-0.1,0.1-0.2,0.2-0.3,0.3
		c-5.2,6.1-8.8,10.6-12.2,15c-2.2,2.8-4.3,5.6-6.8,8.5c-0.1,0.1-0.1,0.1-0.2,0.2c-0.4,0.3-0.7,0.7-0.9,1.2c-0.7,0.9-1.5,1.7-2.2,2.6
		c-4.1,4.7-9.6,8.3-13.7,11c-1.3,0.8-2.4,1.5-3.2,2.2c-1.3,1-2.7,1.9-4.2,3c-10.1,7-24,16.6-21.7,32
		C203.1,418.2,205.1,422.6,208,426.5z M272.3,342.2L272.3,342.2c4.8-5,9-8.9,12.8-11.9c4.4-3.4,8.5-5.8,12.5-7.1
		c4.3-1.4,8.5-1.7,12.5-0.8c4.4,1,8.7,3.5,13,7.3c3.5,3.7,6.3,7.9,8.2,12.6c1.9,4.5,2.9,9.3,3,14.1c0.1,4.8-0.6,9.5-2.3,13.9
		c-1.7,4.5-4.2,8.6-7.4,12c-7.2,7.6-17.8,14.2-32.3,20.2c9.2-12.1,15.8-26.8,10.6-45.3l5.2-3.9c1.4-1,1.7-3,0.6-4.4
		c-1-1.4-3-1.7-4.4-0.6l-5.1,3.8c-9-6.1-22.9-4.8-35.5,0.6C266.1,349.6,268.9,346.2,272.3,342.2z M227.7,386.9
		c1.5-1.1,3-2.1,4.4-3.1c0.7-0.5,1.8-1.2,3-2c4.1-2.7,10.3-6.8,14.9-12.1c1.1-1.2,2.1-2.4,3-3.5c13.6-10.5,33.7-16.1,43.5-8.3
		c6.2,20.2-3.6,35.1-15.3,48.2c-0.3,0.3-0.5,0.7-0.6,1.1c-2.4,1-4.8,2-7.1,3c-5.4,2.5-10.3,5.7-14.9,8.7c-1.7,1.2-3.5,2.5-5.2,3.7
		c-6.1,4.4-12.4,9-19.2,9.7c-13.1,1.4-23.9-9.2-25.5-19.5C206.9,401.2,217.9,393.6,227.7,386.9z"/>
	<path class="st0" d="M223.3,357.8c6.4-3.3,11.5-6.5,15.7-9.6l0,0c5.1-3.8,8.9-7.5,11.7-11.6c3.2-4.7,5-9.8,5.3-15
		c0.3-5.6-1.1-11.5-4.1-17.6c-0.1-0.1-0.1-0.3-0.2-0.4c-3-5.1-6.8-9.5-11.4-13.2c-4.5-3.5-9.4-6.1-14.8-7.8
		c-5.4-1.7-10.9-2.3-16.3-1.9c-5.7,0.4-11.1,2-16,4.6c-11.1,5.8-22,16-33.3,31.3c-3,4-6,8.1-9.2,11.8c-3.6,4.2-7.8,7.9-11.7,11.3
		c-1.5,1.3-3.1,2.5-4.8,3.9c-6.3,4.9-13.4,10.5-16.6,18.4c-4.2,10.5-1.6,21.3,4.3,29.1c2.9,3.9,6.7,7,10.8,8.9
		c14.2,6.5,27.2-4.3,36.7-12.1c1.4-1.2,2.7-2.3,4-3.3c0.8-0.7,1.8-1.5,3-2.5c3.7-3.2,8.7-7.5,14.3-10.1c1.1-0.5,2.1-1,3.1-1.4
		c0.5-0.1,0.9-0.2,1.4-0.5c0.1-0.1,0.2-0.1,0.2-0.2c3.5-1.5,6.7-2.8,10-4.2c5.2-2.1,10.5-4.3,17.8-7.6
		C223,358,223.1,357.9,223.3,357.8z M191.9,364.3c-1.4,0.6-2.8,1.2-4.2,1.9c-6.4,3-12,7.9-15.7,11.1c-1.1,0.9-2,1.7-2.7,2.3
		c-1.3,1.1-2.7,2.2-4.1,3.4c-9.1,7.5-19.5,16.1-30.1,11.2c-9.5-4.3-16.7-17.7-11.8-29.9c2.5-6.3,8.7-11.1,14.6-15.8
		c1.7-1.3,3.4-2.7,5-4c4.2-3.5,8.6-7.5,12.4-12c1.7-1.9,3.3-3.9,4.8-6c0.4,0,0.8-0.1,1.2-0.3c15.8-7.6,32.8-13.1,50.6-1.6
		C216.6,336.3,205.7,354.2,191.9,364.3z M220.2,352.3c-4.8,2.2-8.8,3.9-12.4,5.4c8.7-10.7,13.7-23.7,10.3-34l5.1-3.8
		c1.4-1,1.7-3,0.6-4.4c-1-1.4-3-1.7-4.4-0.6l-5.2,3.9c-16.4-10.1-32.3-7.7-46.5-2.2c9.7-12.3,19-20.7,28.2-25.6
		c4.2-2.2,8.8-3.5,13.6-3.9c4.7-0.4,9.4,0.2,14,1.6s8.9,3.7,12.8,6.7c2.7,2.1,5.1,4.6,7.1,7.3c1,1.3,1.9,2.7,2.7,4.1
		c2.5,5.1,3.7,10,3.5,14.5c-0.2,4.1-1.6,8.1-4.2,11.8c-2.4,3.4-5.7,6.7-10.2,10.1c-3.9,2.9-8.8,5.9-14.8,9L220.2,352.3z"/>
	<path class="st0" d="M584.5,493.9c-7.6-26-11.3-39.6-12.7-44.7l-0.5-1.8c-1.2-4.3-2.7-9.6-5.4-14c-3.6-5.7-9.1-8.5-15-7.6
		c-5.6,0.9-10.4,5-11.6,10c-0.5,1.9,0.7,3.8,2.6,4.2c1.9,0.5,3.8-0.7,4.2-2.6c0.6-2.3,3.1-4.4,5.9-4.8c2.2-0.3,5.4,0.1,8,4.3
		c2.2,3.5,3.5,8.3,4.6,12.2l0.5,1.8c1.1,3.9,3.5,12.8,8,28.4c-4.5-3.3-10.4-6.2-18.1-8.5c-7.4-2.1-25.7-6.2-37.1,1
		c-2.5,1.6-4.5,3.6-6,6c-1.2-4-4.1-9.7-11.3-12c-0.1,0-0.3-0.1-0.4-0.1l-1.9-0.3c-0.2,0-0.3,0-0.5,0c-7.5-0.3-12.2,4.1-14.7,7.4
		c-0.6-2.8-1.8-5.3-3.6-7.6c-8.3-10.7-26.9-13.1-34.6-13.7c-8-0.6-14.5,0.2-19.9,1.8c9.5-13.1,14.9-20.6,17.2-23.9l1.1-1.5
		c2.3-3.3,5.2-7.3,8.5-9.9c3.9-3.1,7-2.4,9-1.3c2.5,1.4,4.2,4.2,3.9,6.5c-0.2,1.9,1.2,3.6,3.1,3.9c1.9,0.2,3.6-1.2,3.9-3.1
		c0.5-5.2-2.5-10.7-7.5-13.4c-5.3-2.9-11.4-2.2-16.7,2c-4.1,3.2-7.3,7.7-9.9,11.3l-1.1,1.5c-3.1,4.3-11.2,15.8-27.2,37.7
		c-0.2,0.3-0.4,0.7-0.5,1c-4.1,5.3-6,11.2-6.8,15.9c-1.8,10.2,0.9,21.5,7.1,29.5c4.6,6,10.8,9.7,17.9,11c1,0.2,2.1,0.3,3.1,0.4
		c27.7,2,49.5-21.7,52.9-39.6v-0.1c1.7,0.5,3.5-0.2,4.3-1.9c0.1-0.3,3.2-6.9,9.9-6.8l1.4,0.2c6.3,2.1,7,9.4,7,9.8
		c0.1,1.6,1.3,2.9,2.9,3.2c0.2,0,0.3,0,0.5,0v0.1c-2.9,18,9.4,47.7,36.2,55.3c1,0.3,2,0.5,3.1,0.7c7.1,1.3,14.2-0.2,20.6-4.2
		c8.5-5.3,14.9-15,16.8-25.3c0.8-4.7,1.1-11-1-17.3C584.7,494.7,584.7,494.3,584.5,493.9z M476.2,479.9c-2.8,15-22,35.6-45.5,33.9
		c-8.1-0.6-13.2-5-16-8.7c-5-6.4-7.2-15.6-5.7-24c2.9-16.5,14.9-24.1,35.5-22.7c1.7,0.1,4.7,0.4,8.2,1c7.3,1.3,16.8,4.1,21.3,9.9
		C476.3,472.4,477,475.8,476.2,479.9z M578.7,511.1c-1.5,8.4-6.7,16.2-13.6,20.5c-3.9,2.4-10.2,4.9-18,2.7
		c-22.7-6.4-33.6-32.4-31.2-47.4c0.7-4.1,2.5-7,5.6-9c6.3-4,16.2-3.3,23.4-2.1c3.5,0.6,6.4,1.4,8,1.8
		C573,483.4,581.6,494.7,578.7,511.1z"/>
	<path class="st0" d="M233,621.3c-3.3-15.1-28.4-22.8-67.5-21l-3-13.6l0,0l0,0c0-0.1-0.1-0.3-0.1-0.4s0-0.2-0.1-0.3l0,0l0,0
		c-11.4-25.9-43.9-30.5-58.8-27.2S61,579.7,61.4,608l0,0l0,0c0,0.1,0,0.2,0,0.3c0,0.1,0,0.3,0,0.4l0,0l0,0l3,13.6
		C28.2,637,8.6,654.6,11.9,669.6c2.4,11.1,16.2,18.1,39.8,20.5c22,2.2,50.1-0.1,79.1-6.4s55.4-16,74.5-27.2
		C225.9,644.5,235.5,632.4,233,621.3z M161.9,617.7c1.4,2.4,1.4,5.3-0.2,7.7c-2.6,3.9-3.1,8.8-1.3,13.2c1.1,2.6,0.6,5.5-1.3,7.6
		c-1.9,2.1-4.6,2.9-7.4,2.2c-4.5-1.2-9.3-0.2-12.9,2.8c-2.2,1.8-5,2.2-7.6,1.1s-4.2-3.5-4.4-6.3c-0.2-4.7-2.7-8.9-6.7-11.4
		c-2.4-1.5-3.7-4.1-3.4-6.9c0.3-2.8,2-5.1,4.7-6.1c4.4-1.6,7.7-5.3,8.8-9.9c0.7-2.8,2.7-4.8,5.5-5.4s5.5,0.4,7.3,2.6l0,0
		c2.9,3.7,7.5,5.6,12.1,5.3C157.9,613.9,160.5,615.3,161.9,617.7z M105,565.4c12.5-2.7,41.1,1.3,50.9,23l4.3,19.5
		c-1.7-0.6-3.6-0.8-5.5-0.7c-2.4,0.2-4.7-0.8-6.2-2.7c-3.4-4.3-8.8-6.2-14.1-5s-9.4,5.2-10.8,10.5c-0.6,2.3-2.3,4.2-4.5,5.1
		c-5.1,1.9-8.6,6.5-9.1,11.9c-0.5,4.8,1.5,9.5,5.2,12.4c-23,4.5-36.7,3.6-39.3,2.1l-7.4-33.9C68.2,583.8,92.5,568.2,105,565.4z
		 M129.4,677c-61.1,13.4-107.4,6.1-110.6-8.8c-2.4-10.8,16.5-26.3,47.2-39l3.2,14.8c0.2,0.7,0.6,1.4,1.1,1.8
		c2.3,2.7,7.7,3.9,16.8,3.7c8.9-0.1,20.5-1.6,32.7-4.2c0,0.3,0.1,0.5,0.1,0.8c0.2,5.4,3.5,10.2,8.5,12.4c2.8,1.2,5.9,1.5,8.7,0.9
		c2.2-0.5,4.3-1.5,6.1-3s4.3-2.1,6.6-1.5c5.3,1.4,10.8-0.2,14.4-4.3c3.6-4.1,4.6-9.7,2.5-14.8c-0.9-2.2-0.7-4.7,0.7-6.7
		c2.3-3.6,2.9-7.9,1.8-11.8l-1.6-7.3l-0.7-3c33.3-1.3,56.8,4.8,59.2,15.7C229.5,637.7,190.6,663.6,129.4,677z"/>
	<path class="st0" d="M138.3,618c-6.5,1.4-10.7,7.9-9.3,14.4s7.9,10.7,14.4,9.3c6.5-1.4,10.7-7.9,9.3-14.4S144.9,616.6,138.3,618z
		 M142,635c-2.8,0.6-5.6-1.2-6.2-4c-0.6-2.8,1.2-5.6,4-6.2s5.6,1.2,6.2,4C146.6,631.6,144.8,634.4,142,635z"/>
	<path class="st0" d="M526.6,732.9c-1.7-0.9-3.8-0.3-4.8,1.4l-18.2,32.9l0,0H443c-1.9,0-3.5,1.6-3.5,3.5s1.6,3.5,3.5,3.5h7.7
		l-7.3,10.1h-22.3l-14.9-78.2c7.7,0,15.1,4,15.1,4c0.9,0.5,2,0.6,3,0.2c0.1,0,0.1-0.1,0.2-0.1c0.1-0.1,0.2-0.1,0.3-0.2
		c0.5-0.3,0.9-0.7,1.2-1.2c2.8-4.8,7.6-8,14.6-9.6c5.5-1.3,14.2,1.4,16.8,3.3c0.2,0.1,0.4,0.2,0.5,0.3c0.7,0.4,1.6,0.6,2.5,0.4
		c1.9-0.4,3.1-2.2,2.8-4.1l0,0c-2.8-14.3-11.6-26.5-24.8-34.5c-13.1-7.9-29-10.6-44.8-7.8h-0.1l-2.3,0.5c0,0,0,0-0.1,0l0,0
		c-15.7,3.4-29.4,12-38.5,24.2c-9.2,12.4-12.7,27-9.9,41.3l0,0c0.3,1.7,1.8,2.8,3.4,2.8c0.2,0,0.5,0,0.7-0.1
		c0.9-0.2,1.6-0.7,2.1-1.4c0.1-0.2,0.3-0.3,0.4-0.5c1.7-2.8,8.7-8.5,14.3-9.4c7.1-1.1,12.7,0,17.1,3.4c0.3,0.2,0.6,0.3,0.9,0.5
		c0.1,0,0.2,0.1,0.3,0.1c0.1,0,0.2,0.1,0.2,0.1l0,0c0.1,0,0.2,0,0.2,0c0.2,0,0.3,0.1,0.5,0.1c0,0,0,0,0.1,0c0.2,0,0.4,0,0.5-0.1h0.1
		l0,0c0.2,0,0.3-0.1,0.5-0.1c0.1,0,0.2,0,0.2-0.1c0.1-0.1,0.3-0.1,0.4-0.2s0.2-0.1,0.3-0.2c0.1-0.1,0.2-0.2,0.3-0.3
		c0.1-0.1,0.2-0.2,0.2-0.2l0.1-0.1c0.1-0.1,5.9-7.1,13.5-9.9l14.7,77h-48c-1.9,0-3.5,1.6-3.5,3.5s1.6,3.5,3.5,3.5h19.7l-8.7,19.4
		c-0.8,1.8,0,3.8,1.8,4.6c0.5,0.2,1,0.3,1.4,0.3c1.3,0,2.6-0.8,3.2-2.1l10-22.2h51.8l0,0l0,0h25.4l10,22.2c0.6,1.3,1.9,2.1,3.2,2.1
		c0.5,0,1-0.1,1.4-0.3c1.8-0.8,2.5-2.9,1.8-4.6l-8.7-19.4h17.8l0,0c0.2,0,0.4,0,0.6-0.1c0.1,0,0.1,0,0.2,0c0.2,0,0.4-0.1,0.6-0.2
		c0,0,0,0,0.1,0c0.2-0.1,0.3-0.2,0.5-0.3l0.1-0.1c0.2-0.1,0.3-0.2,0.5-0.4l0,0c0.1-0.1,0.3-0.3,0.4-0.5l0.1-0.1
		c0-0.1,0.1-0.1,0.1-0.2l28.7-51.8C529,736,528.3,733.8,526.6,732.9z M384.3,666.8c-0.3,0.7-0.6,1.3-0.9,2c-0.1,0.3-0.2,0.6-0.3,0.8
		c-0.2,0.5-0.4,1-0.6,1.5c-0.1,0.3-0.2,0.6-0.3,0.8c-0.3,0.7-0.5,1.4-0.7,2.1c-0.1,0.2-0.1,0.4-0.2,0.7c-0.2,0.5-0.3,1.1-0.5,1.7
		c-0.1,0.3-0.2,0.6-0.2,0.9c-0.2,0.6-0.3,1.2-0.5,1.8c0,0.2-0.1,0.4-0.1,0.6c-0.2,0.7-0.3,1.5-0.5,2.2c-0.1,0.3-0.1,0.6-0.2,0.8
		c-0.1,0.6-0.2,1.1-0.3,1.7c0,0.2-0.1,0.5-0.1,0.7c-0.1,0.8-0.2,1.5-0.3,2.3c0,0.2-0.1,0.5-0.1,0.7c-0.1,0.6-0.1,1.2-0.2,1.7
		c0,0.3-0.1,0.5-0.1,0.8c-0.1,0.8-0.1,1.5-0.2,2.3c0,0.1,0,0.3,0,0.4c0,0.7-0.1,1.3-0.1,2c0,0.3,0,0.5,0,0.8c0,0.6,0,1.2,0,1.8
		c0,0.2,0,0.4,0,0.5c0,0.8,0,1.5,0,2.3c0,0.2,0,0.5,0,0.7c0,0.6,0.1,1.2,0.1,1.7c0,0.2,0,0.4,0,0.6c0,0.7,0.1,1.5,0.2,2.2
		c0,0.2,0,0.3,0,0.5c0.1,0.6,0.1,1.2,0.2,1.8c0,0.1,0,0.2,0,0.3c-4.6-1.6-9.9-2-15.7-1c-4.7,0.8-9.9,3.7-13.7,6.9
		c-0.4-20.4,14-39.7,35.5-47.7C384.4,666.6,384.4,666.7,384.3,666.8z M454.4,693.5c-4.8-1.5-10.6-2.2-15.3-1.1
		c-5.8,1.3-10.5,3.7-14.1,6.9c0-0.1-0.1-0.2-0.1-0.3c-0.2-0.6-0.3-1.2-0.5-1.7c0-0.1-0.1-0.3-0.1-0.4c-0.2-0.7-0.4-1.4-0.7-2.1
		c-0.1-0.2-0.1-0.4-0.2-0.6c-0.2-0.5-0.4-1.1-0.6-1.6c-0.1-0.2-0.2-0.4-0.2-0.6c-0.3-0.7-0.5-1.4-0.8-2.1c-0.1-0.2-0.1-0.3-0.2-0.5
		c-0.2-0.6-0.5-1.1-0.7-1.7c-0.1-0.2-0.2-0.5-0.3-0.7c-0.3-0.6-0.6-1.2-0.8-1.8c-0.1-0.1-0.1-0.2-0.2-0.3c-0.3-0.7-0.7-1.4-1-2.1
		c-0.1-0.2-0.2-0.5-0.4-0.7c-0.3-0.5-0.6-1-0.9-1.6c-0.1-0.2-0.2-0.4-0.3-0.6c-0.4-0.7-0.8-1.3-1.2-2c-0.1-0.2-0.3-0.4-0.4-0.6
		c-0.3-0.5-0.6-1-0.9-1.5c-0.1-0.2-0.3-0.5-0.5-0.7c-0.4-0.6-0.9-1.3-1.3-1.9c-0.1-0.1-0.2-0.3-0.3-0.4c-0.4-0.5-0.7-1-1.1-1.5
		c-0.2-0.2-0.4-0.5-0.5-0.7c-0.4-0.5-0.7-0.9-1.1-1.4c-0.1-0.2-0.3-0.3-0.4-0.5c-0.5-0.6-1-1.1-1.5-1.7c-0.2-0.2-0.4-0.4-0.6-0.6
		c-0.4-0.4-0.7-0.8-1.1-1.2c-0.2-0.2-0.4-0.4-0.6-0.6c-0.5-0.5-1.1-1-1.6-1.5c-0.1,0-0.1-0.1-0.2-0.2
		C426.4,662,447.1,674.5,454.4,693.5z M400.9,699.6c-6.3,1.2-11.8,4.9-15.5,8.1c0-0.1,0-0.2,0-0.2c-0.1-0.8-0.2-1.5-0.3-2.3
		c0,0,0,0,0-0.1c-0.1-0.8-0.1-1.6-0.2-2.4c0-0.1,0-0.2,0-0.3c0-0.8-0.1-1.6-0.1-2.4c0-0.1,0-0.3,0-0.4c0-1.7,0-3.4,0.1-5.2
		c0-0.1,0-0.2,0-0.3c0-0.9,0.1-1.7,0.2-2.6c0-0.1,0-0.2,0-0.4c0.2-1.8,0.4-3.6,0.7-5.4c0-0.1,0-0.2,0-0.3c0.2-0.9,0.3-1.7,0.5-2.6
		c0-0.1,0-0.2,0.1-0.3c0.4-1.8,0.8-3.5,1.4-5.3c0-0.1,0-0.2,0.1-0.2c0.3-0.9,0.6-1.7,0.9-2.5c0-0.1,0.1-0.2,0.1-0.3
		c0.6-1.7,1.3-3.4,2.1-5c0-0.1,0.1-0.1,0.1-0.2c0.4-0.8,0.8-1.6,1.3-2.3c0-0.1,0.1-0.1,0.1-0.2c0.5-0.8,0.9-1.5,1.4-2.3
		c0.7,0.5,1.5,1,2.2,1.6c0.1,0,0.1,0.1,0.2,0.1c0.7,0.5,1.4,1.1,2.1,1.7c0.1,0,0.1,0.1,0.2,0.1c1.4,1.2,2.7,2.5,3.9,3.8
		c0.1,0.1,0.1,0.1,0.2,0.2c0.6,0.7,1.2,1.3,1.8,2c0.1,0.1,0.1,0.1,0.2,0.2c1.2,1.4,2.2,2.9,3.3,4.4c0.1,0.1,0.1,0.2,0.2,0.3
		c0.5,0.7,1,1.5,1.5,2.2c0.1,0.1,0.1,0.2,0.2,0.3c0.9,1.5,1.8,3.1,2.7,4.7c0.1,0.1,0.1,0.2,0.2,0.3c0.4,0.8,0.8,1.5,1.1,2.3
		c0,0.1,0.1,0.2,0.1,0.3c0.4,0.8,0.7,1.6,1.1,2.4l0,0c0.3,0.8,0.7,1.6,1,2.4c0,0.1,0.1,0.3,0.1,0.4c0.3,0.8,0.6,1.5,0.8,2.3
		c0,0.1,0.1,0.2,0.1,0.3c0.3,0.8,0.5,1.5,0.7,2.2v0.1c0.2,0.8,0.4,1.5,0.6,2.2c0,0.1,0,0.2,0.1,0.2
		C413.6,699.7,407.1,698.3,400.9,699.6z M494.2,784.3h-42l7.3-10.1h40.3L494.2,784.3z"/>
	<path class="st0" d="M513.1,123.5l-6-29.7c-0.4-1.9-2.2-3.1-4.1-2.7s-3.1,2.2-2.7,4.1l6,29.7c-14.5,15.4-20.9,36.1-17.6,57.2
		l-18.1,3.6c-5.2-20.8-19-37.3-38.4-45.9l-6-29.7c-0.4-1.9-2.2-3.1-4.1-2.7s-3.1,2.2-2.7,4.1l6,29.7c-15.3,16.3-21.5,38.3-17,60.7
		c0.4,1.9,2.2,3.1,4.1,2.7l53.7-10.8l2-0.4l25.3-5.1l2.5-0.5l53.1-10.7c0.1,0,0.2,0,0.3-0.1c0.1,0,0.2,0,0.3,0
		c1.9-0.4,3.1-2.2,2.7-4.1C547.8,150.5,533.6,132.6,513.1,123.5z M414.6,197c-2.7-18.7,2.8-36.8,15.4-50.5
		c17,7.8,29.1,22.4,33.7,40.7L414.6,197z M495.5,180.7c-2.7-18.7,2.8-36.8,15.4-50.5c17,7.8,29.1,22.4,33.7,40.7L495.5,180.7z"/>
	<path class="st0" d="M559.7,226.6c1.8-0.4,3-2.2,2.6-4.1l-3.7-18.2c-0.4-1.9-2.2-3.1-4.1-2.7l-137.1,27.6c-1.9,0.4-3.1,2.2-2.7,4.1
		l3.7,18.2c0.4,1.9,2.1,3.1,4,2.8c29-4.8,51.5,7,58.6,30.9c0.5,1.7,2.3,2.8,4,2.4l29.8-6c1.8-0.4,3-2,2.8-3.8
		C514.9,253,531,233.4,559.7,226.6z M510.3,275.3l-23.7,4.8c-8.8-24.5-32.2-37-62.1-33.2l-2.3-11.5l130.3-26.2l2.3,11.5
		C525.7,228.7,509,249.2,510.3,275.3z"/>
	<path class="st0" d="M37.5,867.7L6.1,846.4l7.3-10.7c3.2-4.8,2-11.3-2.8-14.5L0,813.9v8.5l6.7,4.5c1.6,1.1,2,3.2,0.9,4.8l-7.3,10.7
		l-0.4-0.3v8.5l33.6,22.8c4.5,3,5.6,9.1,2.6,13.6L0,940.5V953l42-61.9C47.2,883.4,45.2,872.9,37.5,867.7z"/>
	<path class="st0" d="M17.2,883.2c1.6,1.1,3.8,0.7,4.9-0.9s0.7-3.8-0.9-4.9l-14.5-9.8c-1.6-1.1-3.8-0.7-4.9,0.9s-0.7,3.8,0.9,4.9
		L17.2,883.2z"/>
	<path class="st0" d="M302.3,908c-0.3,0-0.5,0-0.8,0l22.4-15.3c1.1-0.8,1.7-2.1,1.5-3.5s-1.2-2.4-2.6-2.8
		c-19.1-4.9-36.8-2.3-49.8,7.3c-7.8,5.8-13.5,13.7-16.9,23c-3.4-9.3-9.1-17.2-16.9-23c-13-9.6-30.7-12.2-49.8-7.3
		c-1.3,0.3-2.3,1.4-2.6,2.8c-0.2,1.4,0.3,2.7,1.5,3.5l22.4,15.3c-0.3,0-0.5,0-0.8,0c-18.9,0.9-36.8,11.7-50.4,30.3
		c-0.8,1.1-0.9,2.6-0.2,3.8c0.6,1.1,1.8,1.8,3.1,1.8c0.1,0,0.2,0,0.3,0l32.8-2.8c-11.4,10.3-19,25.5-21.7,43.9
		c-0.2,1.4,0.4,2.7,1.6,3.5c0.6,0.4,1.2,0.6,1.9,0.6s1.3-0.2,1.9-0.6l63.8-41.3l-5.3,52.9h7l5.8-57.8l5.7-3.7l5.8,3.8l5.8,57.7h7
		l-5.3-52.8l63.7,41.1c0.6,0.4,1.2,0.6,1.9,0.6c0.7,0,1.3-0.2,1.9-0.6c1.2-0.7,1.8-2.1,1.6-3.5c-2.7-18.5-10.3-33.7-21.7-43.9
		l32.8,2.8c0.1,0,0.2,0,0.3,0c1.3,0,2.4-0.7,3.1-1.8c0.7-1.2,0.6-2.7-0.2-3.8C339.1,919.6,321.2,908.9,302.3,908z M184.3,934.3
		c-0.2,0.2-0.4,0.4-0.5,0.6l-13.8,1.2c11.6-13.1,25.3-20.4,40.1-21.1c0.8,0,1.6-0.1,2.4-0.1c3.5,0,6.9,0.4,10.3,1.1h0.1
		c8.5,1.9,16.5,6,23.6,12c-6.7-1.4-13.3-1.7-19.7-1c0.3-1,0.1-2.2-0.6-3.1c-1.2-1.5-3.4-1.8-4.9-0.7l-10.2,7.7
		c-1.4,0.6-2.8,1.2-4.2,1.9l-11,0.9l5.6-4.6c1.5-1.2,1.7-3.4,0.5-4.9s-3.4-1.7-4.9-0.5L184.3,934.3z M225.7,949.8l1.9-4.2
		c0.8-1.8,0-3.8-1.7-4.6c-1.8-0.8-3.8,0-4.6,1.7l-6.6,14.2l-10.8,7l2.8-6.7c0.7-1.8-0.1-3.8-1.9-4.6c-1.8-0.7-3.8,0.1-4.6,1.9
		l-6.3,15.2c-0.1,0.2-0.2,0.5-0.2,0.8L182,978c4.1-17,12.8-29.9,25.5-37.4c0.6-0.4,1.3-0.7,2-1.1h0.1c0.3-0.1,0.6-0.3,0.8-0.4
		c0.1,0,0.3,0.1,0.4,0.1c0.7,0,1.5-0.2,2.1-0.7l1.5-1.2c10.1-3.9,21.7-4.5,33.3-1.6L225.7,949.8z M240.7,915.5
		c0.4-0.6,0.7-1.3,0.8-2c0.1-1.9-1.4-3.6-3.4-3.6l-13-0.5c-0.1,0-0.2,0-0.2-0.1l-7.4-5.1h4.4c1.9,0,3.5-1.6,3.5-3.5
		s-1.6-3.5-3.5-3.5l0,0l-14,0.1c-0.2,0-0.4,0-0.5,0.1l-8.5-5.8c14-2,26.3,0.6,36,7.8c7.5,5.6,12.8,13.5,15.5,22.9
		C247.3,919.6,244.1,917.4,240.7,915.5z M261.5,922.2c2.7-9.4,8-17.3,15.5-22.9c7.6-5.6,16.7-8.4,27.1-8.4c2.9,0,5.9,0.2,8.9,0.7
		l-8.5,5.8c-0.2,0-0.4-0.1-0.5-0.1l-13.9-0.1l0,0c-1.9,0-3.5,1.6-3.5,3.5s1.6,3.5,3.5,3.5h4.4l-7.4,5.1c-0.1,0-0.1,0-0.2,0.1
		l-13,0.5c-1.9,0.1-3.4,1.7-3.4,3.6c0,0.8,0.3,1.5,0.8,2C267.9,917.4,264.6,919.6,261.5,922.2z M330,978l-11.7-7.5
		c0-0.3-0.1-0.5-0.2-0.8l-6.3-15.2c-0.7-1.8-2.8-2.6-4.6-1.9c-1.8,0.7-2.6,2.8-1.9,4.6l2.8,6.7l-10.8-7l-6.6-14.2
		c-0.8-1.8-2.9-2.5-4.6-1.7c-1.8,0.8-2.5,2.9-1.7,4.6l1.9,4.2l-19.4-12.5c0,0,0,0-0.1,0l-2.6-1.7c11.6-2.9,23.2-2.3,33.3,1.6
		l1.5,1.2c0.6,0.5,1.4,0.7,2.1,0.7c0.1,0,0.3,0,0.4-0.1c0.3,0.1,0.6,0.3,0.8,0.4h0.1c0.7,0.4,1.3,0.7,2,1.1
		C317.2,948.1,325.9,961,330,978z M328.2,934.9c-0.2-0.2-0.3-0.4-0.5-0.6L315,923.8c-1.5-1.2-3.7-1-4.9,0.5c-1.2,1.5-1,3.7,0.5,4.9
		l5.6,4.6l-11-0.9c-1.4-0.7-2.8-1.3-4.2-1.9l-10.2-7.7c-1.5-1.2-3.7-0.9-4.9,0.7c-0.7,0.9-0.9,2-0.6,3.1c-6.4-0.7-13-0.4-19.7,1
		c7.1-6,15.2-10.1,23.6-12h0.1c4.1-0.9,8.4-1.3,12.6-1c14.8,0.7,28.5,8,40.1,21.1L328.2,934.9z"/>
	<path class="st0" d="M26.8,239.8c7.7-24.8,11.9-53.5,11.8-80.9c-0.1-30.2-5.5-56.2-15.5-75l0,0c0-0.1-0.1-0.1-0.1-0.2
		c-0.1-0.1-0.1-0.2-0.2-0.3c0,0-0.1-0.1-0.1-0.2l0,0c0,0,0,0-0.1-0.1l0,0c-0.1-0.1-0.2-0.2-0.2-0.2c-0.1,0-0.1-0.1-0.2-0.1l-0.1-0.1
		c-0.1-0.1-0.2-0.1-0.3-0.2c-0.1,0-0.1-0.1-0.2-0.1c0,0-0.1,0-0.2-0.1c-0.1,0-0.2-0.1-0.3-0.1c-0.1,0-0.1-0.1-0.2-0.1s-0.1,0-0.2,0
		h-0.1h-0.1c-0.1,0-0.1,0-0.2,0s-0.1,0-0.2,0s-0.2,0-0.3,0c-0.1,0-0.1,0-0.2,0s-0.1,0-0.2,0s-0.2,0-0.3,0.1H19
		c-0.1,0-0.1,0.1-0.2,0.1s-0.2,0.1-0.3,0.1l0,0h-0.1l0,0c-0.1,0-0.1,0.1-0.2,0.1c-0.1,0.1-0.2,0.1-0.3,0.2l-0.1,0.1l0,0
		C11.6,88,5.6,94.3,0,101.8v12.1c4.5-6.8,9.3-13,14.5-18.4L0,169.5v36.3L21.4,96.9c14.5,36.8,12.2,90.5,1.5,131.3
		c-0.1,0-0.2-0.1-0.4-0.1L0,223.8v7.1l20.9,4.1c-0.3,0.9-0.5,1.8-0.8,2.7c-0.7,2.2-1.4,4.4-2.2,6.5l-18-3.5v7.1l15.5,3
		C10.8,262.4,5.5,272-0.1,279v10.4C10.5,279.5,19.8,262.4,26.8,239.8z"/>
</g>
</svg>
