<?xml version="1.0" encoding="utf-8"?>
<!-- Generator: Adobe Illustrator 25.4.1, SVG Export Plug-In . SVG Version: 6.00 Build 0)  -->
<svg version="1.1" id="Layer_1" xmlns="http://www.w3.org/2000/svg" xmlns:xlink="http://www.w3.org/1999/xlink" x="0px" y="0px"
	 viewBox="0 0 205.7 249.8" style="enable-background:new 0 0 205.7 249.8;" xml:space="preserve">
<style type="text/css">
	.st0{fill:#55B68C;}
	.st1{fill:#F7F8EB;}
	.st2{fill:#CFE0E9;}
	.st3{fill:#BCBEC0;}
	.st4{fill:#5A6570;}
</style>
<g>
	<path class="st0" d="M0.3,76.1C-3.4,45.6,24,4.3,55.7,0.4C87.5-3.5,92,25.1,95,49.6c6.1,49.7-14,67.2-10.8,93.6
		c3.2,26.3,8.7,46.1,10.8,63c2.1,16.9,0.2,39.6-29,43.1c-29.2,3.6-37.8-11.9-40.8-36.6c-3-24.7-2.1-47.5-8.6-74.9
		C10.3,110.4,4.7,111.7,0.3,76.1z"/>
	<g>
		<path class="st1" d="M74.9,13.9H42.9c0.8-0.4,1.6-0.9,2.4-1.2h28.3C74.1,13,74.5,13.4,74.9,13.9z"/>
		<path class="st1" d="M78,17.9H36.7c0.5-0.4,1-0.8,1.6-1.1c0,0,0.1-0.1,0.2-0.1h38.8C77.5,17.1,77.8,17.5,78,17.9z"/>
		<path class="st1" d="M80.1,22H31.8c0.5-0.4,0.9-0.8,1.4-1.2h46.3C79.7,21.2,79.9,21.6,80.1,22z"/>
		<path class="st1" d="M81.6,26.1H27.8c0.4-0.4,0.8-0.8,1.2-1.2h52.2C81.3,25.2,81.5,25.6,81.6,26.1z"/>
		<path class="st1" d="M82.8,30.1H24.4c0.3-0.4,0.7-0.8,1-1.2h57.1C82.6,29.3,82.7,29.7,82.8,30.1z"/>
		<path class="st1" d="M83.7,34.2H21.4c0.2-0.3,0.4-0.5,0.6-0.8c0.1-0.1,0.2-0.3,0.3-0.4h61.2C83.5,33.3,83.6,33.8,83.7,34.2z"/>
		<path class="st1" d="M84.5,38.2H18.8c0.2-0.4,0.5-0.8,0.8-1.2h64.7C84.3,37.4,84.4,37.8,84.5,38.2z"/>
		<path class="st1" d="M85.1,42.3H16.5c0.2-0.4,0.4-0.8,0.7-1.2H85C85,41.5,85.1,41.9,85.1,42.3z"/>
		<path class="st1" d="M85.7,46.4H14.5c0.2-0.4,0.4-0.8,0.6-1.2h70.4C85.6,45.5,85.7,45.9,85.7,46.4z"/>
		<path class="st1" d="M86.2,50.4H12.9c0.2-0.4,0.3-0.8,0.5-1.2h72.7C86.1,49.6,86.2,50,86.2,50.4z"/>
		<path class="st1" d="M86.7,54.5H11.5c0.1-0.4,0.3-0.8,0.4-1.2h74.7C86.6,53.6,86.6,54.1,86.7,54.5z"/>
		<path class="st1" d="M87,58.5H10.4c0.1-0.4,0.2-0.8,0.3-1.2h76.3C87,57.7,87,58.1,87,58.5z"/>
		<path class="st1" d="M87.2,62.6H9.5c0.1-0.4,0.1-0.8,0.2-1.2h77.4C87.2,61.8,87.2,62.2,87.2,62.6z"/>
		<path class="st1" d="M87.3,66.7H9c0-0.4,0.1-0.8,0.1-1.2h78.2C87.3,65.8,87.3,66.2,87.3,66.7z"/>
		<path class="st1" d="M87.3,69.5c0,0.4,0,0.8,0,1.2H8.9c0-0.4,0-0.8,0-1.2H87.3z"/>
		<path class="st1" d="M87.2,73.5c0,0.4,0,0.8-0.1,1.2h-78c0-0.4-0.1-0.8-0.1-1.2H87.2z"/>
		<path class="st1" d="M86.9,77.6c0,0.4-0.1,0.8-0.1,1.2H9.6c-0.1-0.4-0.1-0.8-0.2-1.2H86.9z"/>
		<path class="st1" d="M86.5,81.6c0,0.4-0.1,0.8-0.2,1.2H10.2c-0.1-0.4-0.1-0.8-0.2-1.2H86.5z"/>
		<path class="st1" d="M86,85.7c-0.1,0.4-0.1,0.8-0.2,1.2H10.9c-0.1-0.4-0.1-0.8-0.2-1.2H86z"/>
		<path class="st1" d="M85.3,89.8c-0.1,0.4-0.2,0.8-0.2,1.2H11.6c-0.1-0.4-0.2-0.8-0.2-1.2H85.3z"/>
		<path class="st1" d="M84.5,93.8c-0.1,0.4-0.2,0.8-0.3,1.2H12.5c-0.1-0.4-0.2-0.8-0.3-1.2H84.5z"/>
		<path class="st1" d="M83.5,97.9c-0.1,0.4-0.2,0.8-0.3,1.2H13.5c-0.1-0.4-0.2-0.8-0.3-1.2H83.5z"/>
		<path class="st1" d="M82.4,101.9c-0.1,0.4-0.2,0.8-0.3,1.2H14.7c-0.1-0.4-0.3-0.8-0.4-1.2H82.4z"/>
		<path class="st1" d="M81.3,106c-0.1,0.4-0.2,0.8-0.4,1.2H16.2c-0.1-0.4-0.3-0.8-0.4-1.2H81.3z"/>
		<path class="st1" d="M80.1,110.1c-0.1,0.4-0.2,0.8-0.4,1.2H17.7c-0.2-0.4-0.3-0.8-0.5-1.2H80.1z"/>
		<path class="st1" d="M78.9,114.1c-0.1,0.4-0.2,0.8-0.3,1.2H19.2c-0.2-0.4-0.3-0.8-0.5-1.2H78.9z"/>
		<path class="st1" d="M77.8,118.2c-0.1,0.4-0.2,0.8-0.3,1.2H20.6c-0.1-0.4-0.3-0.8-0.4-1.2H77.8z"/>
		<path class="st1" d="M76.9,122.3c-0.1,0.4-0.2,0.8-0.3,1.2H22c-0.1-0.4-0.3-0.8-0.4-1.2H76.9z"/>
		<path class="st1" d="M76.1,126.3c-0.1,0.4-0.1,0.8-0.2,1.2H23.2c-0.1-0.4-0.2-0.8-0.4-1.2H76.1z"/>
		<path class="st1" d="M75.5,130.4c-0.1,0.4-0.1,0.8-0.1,1.2H24.3c-0.1-0.4-0.2-0.8-0.3-1.2H75.5z"/>
		<path class="st1" d="M75.1,134.4c0,0.4,0,0.8,0,1.2H25.3c-0.1-0.4-0.2-0.8-0.3-1.2H75.1z"/>
		<path class="st1" d="M75.1,139.7H26.2c-0.1-0.4-0.2-0.8-0.3-1.2h49.2C75.1,138.9,75.1,139.3,75.1,139.7z"/>
		<path class="st1" d="M75.4,143.8H27c-0.1-0.4-0.2-0.8-0.2-1.2h48.5C75.3,143,75.4,143.4,75.4,143.8z"/>
		<path class="st1" d="M75.9,147.9H27.8c-0.1-0.4-0.1-0.8-0.2-1.2h48.2C75.8,147,75.9,147.4,75.9,147.9z"/>
		<path class="st1" d="M76.5,151.9H28.4c-0.1-0.4-0.1-0.8-0.2-1.2h48.1C76.4,151.1,76.4,151.5,76.5,151.9z"/>
		<path class="st1" d="M77.1,156H29c-0.1-0.4-0.1-0.8-0.2-1.2h48.1C77,155.2,77,155.6,77.1,156z"/>
		<path class="st1" d="M77.8,160H29.5c0-0.4-0.1-0.8-0.2-1.2h48.2C77.6,159.2,77.7,159.6,77.8,160z"/>
		<path class="st1" d="M78.4,164.1H30c0-0.4-0.1-0.8-0.1-1.2h48.4C78.3,163.3,78.4,163.7,78.4,164.1z"/>
		<path class="st1" d="M79.2,168.2H30.4c0-0.4-0.1-0.8-0.1-1.2h48.6C79,167.3,79.1,167.8,79.2,168.2z"/>
		<path class="st1" d="M79.9,172.2H30.8c0-0.4-0.1-0.8-0.1-1.2h49C79.8,171.4,79.8,171.8,79.9,172.2z"/>
		<path class="st1" d="M80.7,176.3H31.1c0-0.4-0.1-0.8-0.1-1.2h49.4C80.5,175.5,80.6,175.9,80.7,176.3z"/>
		<path class="st1" d="M81.5,180.3H31.4c0-0.4-0.1-0.8-0.1-1.2h49.9C81.3,179.5,81.4,179.9,81.5,180.3z"/>
		<path class="st1" d="M82.3,184.4H31.7c0-0.4-0.1-0.8-0.1-1.2H82c0,0,0,0.1,0,0.1C82.1,183.7,82.2,184,82.3,184.4z"/>
		<path class="st1" d="M83.1,188.5H32c0-0.4-0.1-0.8-0.1-1.2h50.9C82.9,187.6,83,188.1,83.1,188.5z"/>
		<path class="st1" d="M83.9,192.5H32.3c0-0.4-0.1-0.8-0.1-1.2h51.5C83.7,191.7,83.8,192.1,83.9,192.5z"/>
		<path class="st1" d="M84.6,196.6h-52c0-0.4-0.1-0.8-0.1-1.2h51.9C84.5,195.8,84.5,196.2,84.6,196.6z"/>
		<path class="st1" d="M85.3,200.6H32.9c0-0.4-0.1-0.8-0.1-1.2h52.3C85.2,199.8,85.2,200.2,85.3,200.6z"/>
		<path class="st1" d="M85.9,204.7H33.3c0-0.4-0.1-0.8-0.1-1.2h52.6C85.8,203.9,85.9,204.3,85.9,204.7z"/>
		<path class="st1" d="M86.4,208.8H33.7c0-0.4-0.1-0.8-0.1-1.2h52.7C86.3,207.9,86.4,208.4,86.4,208.8z"/>
		<path class="st1" d="M86.7,212.8H34.2c-0.1-0.4-0.1-0.8-0.2-1.2h52.6C86.7,212,86.7,212.4,86.7,212.8z"/>
		<path class="st1" d="M86.8,215.6c0,0.4,0,0.8,0,1.2h-52c-0.1-0.4-0.1-0.8-0.2-1.2H86.8z"/>
		<path class="st1" d="M86.6,219.7c0,0.4-0.1,0.8-0.1,1.2H35.6c-0.1-0.4-0.2-0.8-0.3-1.2H86.6z"/>
		<path class="st1" d="M86,223.8c-0.1,0.4-0.2,0.8-0.3,1.2h-49c-0.1-0.4-0.2-0.8-0.4-1.2H86z"/>
		<path class="st1" d="M84.7,227.8c-0.2,0.4-0.3,0.8-0.5,1.1c0,0,0,0.1-0.1,0.1h-46c-0.2-0.4-0.3-0.8-0.5-1.2H84.7z"/>
		<path class="st1" d="M82.5,231.9c-0.3,0.4-0.6,0.8-1,1.2H40.4c-0.3-0.4-0.5-0.8-0.8-1.2H82.5z"/>
		<path class="st1" d="M78.4,235.9c-0.6,0.4-1.3,0.9-2,1.2H44.2c-0.5-0.4-1-0.8-1.5-1.2H78.4z"/>
	</g>
	<g>
		<path class="st2" d="M91.4,149.6c-1.5-16-5.3-26.3-5.6-26.9c0,0,0,0,0,0c-5.1-15.8-18.5-38.5-24.4-47.2c-6.8-10.2-4.8-7.3-7.2-11
			l1-15.2c13.4,16.2,34.9,46.9,38,71.7C94.4,130.4,93.4,140.5,91.4,149.6z"/>
		<path class="st2" d="M13.5,110c0,0-6.5,10.1-3.1,27.8l0,0c0,0,0,0,0,0c-1.1-3.2-1.9-6.1-2.2-8.7C2.2,80.7,55.3,49.3,55.3,49.3
			l-1,15.2c-6.8,5.3-12.5,9.4-19.8,17.1C28.4,88.1,17.9,101.2,13.5,110C13.5,110,13.5,110,13.5,110"/>
		<path class="st3" d="M31.4,180.8c2.1,4,4.4,4.4,6.3,3.5c3.2-1.6,3.3-5.8,2.7-9.2c-0.8-4.2-3-6.8-7.2-4.1
			C30.2,172.9,27.9,174,31.4,180.8z"/>
		<path class="st4" d="M10.3,137.8C7,120.1,13.5,110,13.5,110v0c0,0,0,0,0,0c-0.7,1.4-1.2,2.7-1.5,3.8c-1.8,6.4,0.7,14.7,4.6,21.6
			c3.8,6.9,19.3,27.7,22.1,37.2c3,10.1-3.5,12.5-5.4,8.8C31.5,178.3,16.3,154.6,10.3,137.8C10.3,137.8,10.3,137.8,10.3,137.8"/>
		<path class="st3" d="M69.4,179.4c-0.9,2.3,1.3,4.5,4,4.6c3.4,0.1,5.5-0.7,7.7-3.8c2.2-3.1,2.7-7.1,0.5-8.6
			C78.1,169.1,73.5,168.7,69.4,179.4z"/>
		<path class="st4" d="M91.4,148.8c-1.6-16.5-5-24.6-5-24.6s0.8,4,1,5.7c1.3,9.6-1.6,15.4-5.8,24.9c-0.1,0-5.8,12.2-10.1,22.2
			c-2,4.7,0.3,5.7,4.8,5.1c3.4-0.4,11.2-14.5,15-32.6"/>
		<path class="st3" d="M58.3,38.9c1.9,0,2.8,2.1,2.8,3.6c0,1.5-0.9,3.7-3.7,3.7s-4-2.3-3.3-4.1C54.8,40.2,56.3,38.9,58.3,38.9z"/>
		<path class="st4" d="M51.3,51.9c0,0,2.5-7.6,3.7-9.6c0.8-1.3,2.3-2.7,3.7-2c1.4,0.7,1.6,2.5,0.9,4.5c-0.8,2.1-1.5,4.6-2.1,7.3
			l-2.3-2.8L51.3,51.9z"/>
	</g>
	<path class="st0" d="M205.3,76.1c3.7-30.6-23.6-71.9-55.4-75.8c-31.8-3.9-36.3,24.7-39.3,49.3c-6.1,49.7,14,67.2,10.8,93.6
		c-3.2,26.3-8.7,46.1-10.8,63c-2.1,16.9-0.2,39.6,29,43.1c29.2,3.6,37.8-11.9,40.8-36.6c3-24.7,2.1-47.5,8.6-74.9
		C195.4,110.4,201,111.7,205.3,76.1z"/>
	<g>
		<path class="st1" d="M130.7,13.9h32.1c-0.8-0.4-1.6-0.9-2.4-1.2h-28.3C131.6,13,131.2,13.4,130.7,13.9z"/>
		<path class="st1" d="M127.7,17.9H169c-0.5-0.4-1-0.8-1.6-1.1c-0.1,0-0.1-0.1-0.2-0.1h-38.8C128.2,17.1,127.9,17.5,127.7,17.9z"/>
		<path class="st1" d="M125.6,22h48.2c-0.5-0.4-0.9-0.8-1.4-1.2h-46.3C126,21.2,125.8,21.6,125.6,22z"/>
		<path class="st1" d="M124.1,26.1h53.8c-0.4-0.4-0.8-0.8-1.2-1.2h-52.2C124.4,25.2,124.2,25.6,124.1,26.1z"/>
		<path class="st1" d="M122.9,30.1h58.4c-0.3-0.4-0.7-0.8-1-1.2h-57.1C123.1,29.3,123,29.7,122.9,30.1z"/>
		<path class="st1" d="M122,34.2h62.3c-0.2-0.3-0.4-0.5-0.6-0.8c-0.1-0.1-0.2-0.3-0.3-0.4h-61.2C122.1,33.3,122.1,33.8,122,34.2z"/>
		<path class="st1" d="M121.2,38.2h65.7c-0.2-0.4-0.5-0.8-0.8-1.2h-64.7C121.3,37.4,121.3,37.8,121.2,38.2z"/>
		<path class="st1" d="M120.5,42.3h68.6c-0.2-0.4-0.4-0.8-0.7-1.2h-67.8C120.7,41.5,120.6,41.9,120.5,42.3z"/>
		<path class="st1" d="M120,46.4h71.2c-0.2-0.4-0.4-0.8-0.6-1.2h-70.4C120.1,45.5,120,45.9,120,46.4z"/>
		<path class="st1" d="M119.5,50.4h73.4c-0.2-0.4-0.3-0.8-0.5-1.2h-72.7C119.6,49.6,119.5,50,119.5,50.4z"/>
		<path class="st1" d="M119,54.5h75.2c-0.1-0.4-0.3-0.8-0.4-1.2h-74.7C119.1,53.6,119,54.1,119,54.5z"/>
		<path class="st1" d="M118.7,58.5h76.7c-0.1-0.4-0.2-0.8-0.3-1.2h-76.3C118.7,57.7,118.7,58.1,118.7,58.5z"/>
		<path class="st1" d="M118.4,62.6h77.7c-0.1-0.4-0.1-0.8-0.2-1.2h-77.4C118.5,61.8,118.5,62.2,118.4,62.6z"/>
		<path class="st1" d="M118.3,66.7h78.3c0-0.4-0.1-0.8-0.1-1.2h-78.2C118.4,65.8,118.3,66.2,118.3,66.7z"/>
		<path class="st1" d="M118.3,69.5c0,0.4,0,0.8,0,1.2h78.5c0-0.4,0-0.8,0-1.2H118.3z"/>
		<path class="st1" d="M118.5,73.5c0,0.4,0,0.8,0.1,1.2h78c0-0.4,0.1-0.8,0.1-1.2H118.5z"/>
		<path class="st1" d="M118.7,77.6c0,0.4,0.1,0.8,0.1,1.2h77.2c0.1-0.4,0.1-0.8,0.2-1.2H118.7z"/>
		<path class="st1" d="M119.1,81.6c0,0.4,0.1,0.8,0.2,1.2h76.2c0.1-0.4,0.1-0.8,0.2-1.2H119.1z"/>
		<path class="st1" d="M119.7,85.7c0.1,0.4,0.1,0.8,0.2,1.2h74.9c0.1-0.4,0.1-0.8,0.2-1.2H119.7z"/>
		<path class="st1" d="M120.4,89.8c0.1,0.4,0.2,0.8,0.2,1.2h73.4c0.1-0.4,0.2-0.8,0.2-1.2H120.4z"/>
		<path class="st1" d="M121.2,93.8c0.1,0.4,0.2,0.8,0.3,1.2h71.7c0.1-0.4,0.2-0.8,0.3-1.2H121.2z"/>
		<path class="st1" d="M122.2,97.9c0.1,0.4,0.2,0.8,0.3,1.2h69.6c0.1-0.4,0.2-0.8,0.3-1.2H122.2z"/>
		<path class="st1" d="M123.3,101.9c0.1,0.4,0.2,0.8,0.3,1.2h67.3c0.1-0.4,0.3-0.8,0.4-1.2H123.3z"/>
		<path class="st1" d="M124.4,106c0.1,0.4,0.2,0.8,0.4,1.2h64.8c0.1-0.4,0.3-0.8,0.4-1.2H124.4z"/>
		<path class="st1" d="M125.6,110.1c0.1,0.4,0.2,0.8,0.4,1.2H188c0.2-0.4,0.3-0.8,0.5-1.2H125.6z"/>
		<path class="st1" d="M126.7,114.1c0.1,0.4,0.2,0.8,0.3,1.2h59.4c0.2-0.4,0.3-0.8,0.5-1.2H126.7z"/>
		<path class="st1" d="M127.8,118.2c0.1,0.4,0.2,0.8,0.3,1.2H185c0.1-0.4,0.3-0.8,0.4-1.2H127.8z"/>
		<path class="st1" d="M128.8,122.3c0.1,0.4,0.2,0.8,0.3,1.2h54.6c0.1-0.4,0.3-0.8,0.4-1.2H128.8z"/>
		<path class="st1" d="M129.6,126.3c0.1,0.4,0.1,0.8,0.2,1.2h52.7c0.1-0.4,0.2-0.8,0.4-1.2H129.6z"/>
		<path class="st1" d="M130.2,130.4c0.1,0.4,0.1,0.8,0.1,1.2h51.1c0.1-0.4,0.2-0.8,0.3-1.2H130.2z"/>
		<path class="st1" d="M130.5,134.4c0,0.4,0,0.8,0.1,1.2h49.8c0.1-0.4,0.2-0.8,0.3-1.2H130.5z"/>
		<path class="st1" d="M130.6,139.7h48.9c0.1-0.4,0.2-0.8,0.3-1.2h-49.2C130.6,138.9,130.6,139.3,130.6,139.7z"/>
		<path class="st1" d="M130.3,143.8h48.4c0.1-0.4,0.2-0.8,0.2-1.2h-48.5C130.3,143,130.3,143.4,130.3,143.8z"/>
		<path class="st1" d="M129.7,147.9h48.2c0.1-0.4,0.1-0.8,0.2-1.2h-48.2C129.9,147,129.8,147.4,129.7,147.9z"/>
		<path class="st1" d="M129.2,151.9h48.1c0.1-0.4,0.1-0.8,0.2-1.2h-48.1C129.3,151.1,129.2,151.5,129.2,151.9z"/>
		<path class="st1" d="M128.6,156h48.1c0.1-0.4,0.1-0.8,0.2-1.2h-48.1C128.7,155.2,128.6,155.6,128.6,156z"/>
		<path class="st1" d="M127.9,160h48.2c0.1-0.4,0.1-0.8,0.2-1.2h-48.2C128.1,159.2,128,159.6,127.9,160z"/>
		<path class="st1" d="M127.2,164.1h48.4c0-0.4,0.1-0.8,0.1-1.2h-48.4C127.4,163.3,127.3,163.7,127.2,164.1z"/>
		<path class="st1" d="M126.5,168.2h48.8c0-0.4,0.1-0.8,0.1-1.2h-48.6C126.7,167.3,126.6,167.8,126.5,168.2z"/>
		<path class="st1" d="M125.8,172.2h49.1c0-0.4,0.1-0.8,0.1-1.2h-49C125.9,171.4,125.8,171.8,125.8,172.2z"/>
		<path class="st1" d="M125,176.3h49.6c0-0.4,0.1-0.8,0.1-1.2h-49.4C125.1,175.5,125.1,175.9,125,176.3z"/>
		<path class="st1" d="M124.2,180.3h50.1c0-0.4,0.1-0.8,0.1-1.2h-49.9C124.4,179.5,124.3,179.9,124.2,180.3z"/>
		<path class="st1" d="M123.4,184.4H174c0-0.4,0.1-0.8,0.1-1.2h-50.4c0,0,0,0.1,0,0.1C123.5,183.7,123.5,184,123.4,184.4z"/>
		<path class="st1" d="M122.6,188.5h51.1c0-0.4,0.1-0.8,0.1-1.2h-50.9C122.8,187.6,122.7,188.1,122.6,188.5z"/>
		<path class="st1" d="M121.8,192.5h51.6c0-0.4,0.1-0.8,0.1-1.2h-51.5C122,191.7,121.9,192.1,121.8,192.5z"/>
		<path class="st1" d="M121.1,196.6h52c0-0.4,0.1-0.8,0.1-1.2h-51.9C121.2,195.8,121.1,196.2,121.1,196.6z"/>
		<path class="st1" d="M120.4,200.6h52.4c0-0.4,0.1-0.8,0.1-1.2h-52.3C120.5,199.8,120.4,200.2,120.4,200.6z"/>
		<path class="st1" d="M119.8,204.7h52.7c0-0.4,0.1-0.8,0.1-1.2h-52.6C119.9,203.9,119.8,204.3,119.8,204.7z"/>
		<path class="st1" d="M119.3,208.8H172c0-0.4,0.1-0.8,0.1-1.2h-52.7C119.3,207.9,119.3,208.4,119.3,208.8z"/>
		<path class="st1" d="M119,212.8h52.5c0.1-0.4,0.1-0.8,0.2-1.2H119C119,212,119,212.4,119,212.8z"/>
		<path class="st1" d="M118.9,215.6c0,0.4,0,0.8,0,1.2h52c0.1-0.4,0.1-0.8,0.2-1.2H118.9z"/>
		<path class="st1" d="M119.1,219.7c0,0.4,0.1,0.8,0.1,1.2h50.8c0.1-0.4,0.2-0.8,0.3-1.2H119.1z"/>
		<path class="st1" d="M119.7,223.8c0.1,0.4,0.2,0.8,0.3,1.2h49c0.1-0.4,0.2-0.8,0.4-1.2H119.7z"/>
		<path class="st1" d="M121,227.8c0.2,0.4,0.3,0.8,0.5,1.1c0,0,0,0.1,0.1,0.1h46c0.2-0.4,0.3-0.8,0.5-1.2H121z"/>
		<path class="st1" d="M123.2,231.9c0.3,0.4,0.6,0.8,1,1.2h41.1c0.3-0.4,0.5-0.8,0.8-1.2H123.2z"/>
		<path class="st1" d="M127.3,235.9c0.6,0.4,1.3,0.9,2,1.2h32.1c0.5-0.4,1-0.8,1.5-1.2H127.3z"/>
	</g>
	<g>
		<path class="st2" d="M114.3,149.6c1.5-16,5.3-26.3,5.6-26.9c0,0,0,0,0,0c5.1-15.8,18.5-38.5,24.4-47.2c6.8-10.2,4.8-7.3,7.2-11
			l-1-15.2c-13.4,16.2-34.9,46.9-38,71.7C111.3,130.4,112.3,140.5,114.3,149.6z"/>
		<path class="st2" d="M192.1,110c0,0,6.5,10.1,3.1,27.8l0,0c0,0,0,0,0,0c1.1-3.2,1.9-6.1,2.2-8.7c5.9-48.4-47.1-79.8-47.1-79.8
			l1,15.2c6.8,5.3,12.5,9.4,19.8,17.1C177.3,88.1,187.8,101.2,192.1,110C192.1,110,192.1,110,192.1,110"/>
		<path class="st3" d="M174.3,180.8c-2.1,4-4.4,4.4-6.3,3.5c-3.2-1.6-3.3-5.8-2.7-9.2c0.8-4.2,3-6.8,7.2-4.1
			C175.5,172.9,177.8,174,174.3,180.8z"/>
		<path class="st4" d="M195.3,137.8c3.3-17.7-3.1-27.8-3.1-27.8v0c0,0,0,0,0,0c0.7,1.4,1.2,2.7,1.5,3.8c1.8,6.4-0.7,14.7-4.6,21.6
			c-3.8,6.9-19.3,27.7-22.1,37.2c-3,10.1,3.5,12.5,5.4,8.8C174.2,178.3,189.4,154.6,195.3,137.8
			C195.3,137.8,195.3,137.8,195.3,137.8"/>
		<path class="st3" d="M136.2,179.4c0.9,2.3-1.3,4.5-4,4.6c-3.4,0.1-5.5-0.7-7.7-3.8c-2.2-3.1-2.7-7.1-0.5-8.6
			C127.6,169.1,132.2,168.7,136.2,179.4z"/>
		<path class="st4" d="M114.3,148.8c1.6-16.5,5-24.6,5-24.6s-0.8,4-1,5.7c-1.3,9.6,1.6,15.4,5.8,24.9c0.1,0,5.8,12.2,10.1,22.2
			c2,4.7-0.3,5.7-4.8,5.1c-3.4-0.4-11.2-14.5-15-32.6"/>
		<path class="st3" d="M147.3,38.9c-1.9,0-2.8,2.1-2.8,3.6c0,1.5,0.9,3.7,3.7,3.7c2.8,0,4-2.3,3.3-4.1
			C150.9,40.2,149.4,38.9,147.3,38.9z"/>
		<path class="st4" d="M154.3,51.9c0,0-2.5-7.6-3.7-9.6c-0.8-1.3-2.3-2.7-3.7-2c-1.4,0.7-1.6,2.5-0.9,4.5c0.8,2.1,1.5,4.6,2.1,7.3
			l2.3-2.8L154.3,51.9z"/>
	</g>
</g>
</svg>
