<?xml version="1.0" encoding="utf-8"?>
<!-- Generator: Adobe Illustrator 25.4.1, SVG Export Plug-In . SVG Version: 6.00 Build 0)  -->
<svg version="1.1" id="Capa_1" xmlns="http://www.w3.org/2000/svg" xmlns:xlink="http://www.w3.org/1999/xlink" x="0px" y="0px"
	 viewBox="0 0 1563 1816.6" style="enable-background:new 0 0 1563 1816.6;" xml:space="preserve">
<style type="text/css">
	.st0{fill:#32BABF;}
	.st1{fill:#00ADBD;}
	.st2{fill:#00ABA4;}
	.st3{fill:#00A2B1;}
	.st4{fill:#F39332;}
	.st5{fill:#FFE32C;}
</style>
<g>
	<g>
		<g>
			<path class="st0" d="M117.6,1236.9c0,0,29.3-205.7-62.8-432.3c-92.1-226.7-99.2-651.7,226.7-765
				C607.4-73.9,741.7,61.9,741.7,380.7c0,403.8-128.3,360.9-73.4,630.5c53.8,264.3,139.7,674.4-181.3,721.3
				C196.5,1775,110.5,1552.3,117.6,1236.9z"/>
			<path class="st1" d="M145,1215.9c0,0,26.1-193.9-56-407.7C6.8,594.5,0.5,193.7,291.2,86.8C581.8-20.1,701.6,108,701.6,408.6
				c0,380.7-114.4,340.3-65.5,594.5c48,249.2,124.6,635.9-161.7,680.2C215.3,1723.3,138.7,1513.3,145,1215.9z"/>
			<path class="st2" d="M519.5,1423.2c20-81.1,22.8-167.4,7.3-249.6c-17.4-92.5-63.4-182-66.4-276.9
				c-3.2-103.3,47.5-196.6,82.2-291.2c31.5-85.8,47.2-172.4,48.3-263.8c0.8-68.5-4.5-141.9-36.9-203.7
				c-19.6-37.3-46.9-66.4-79.8-88.3c159,3.1,227.5,131.6,227.5,358.8c0,380.7-114.4,340.3-65.5,594.5
				c48,249.2,124.6,635.9-161.7,680.2c-60.2,9.3-110.4,5-152.1-10.7C420.6,1629.8,494.6,1523.8,519.5,1423.2z"/>
			<path class="st3" d="M677.9,658.1c-7.9-28.5-20-56.5-37.7-83.9c-37-57.1-80.5-118.3-127.5-167.6c-36.5-38.2-96.7-99.4-153.5-68.6
				c-125.7,68-183.8,199.3-226.8,328.5c-17.4,52.4-30.7,105.6-37.2,158.7c26.7,74.2,40.6,145.3,47.5,206.1c2.1,0,4.1,0.3,6.1,0.9
				c5.1,0.7,10,2.9,13.3,7c6.3,7.9,12.4,15.8,18.6,23.7c15.4-4.2,29.9-9.6,44.6-18.6c-1.3-6.6-3.5-12.9-6.9-18.8
				c-8-15.2-17.6-30.2-23.5-46.4c-27.1-74.3-8.1-155.6,15.8-228.1c23.9-72.5,52.1-144.8,94.7-208.6c20.6-30.8,63.9-115,113.4-82
				c58.1,38.7,95.1,110,118.9,173.8c27.8,74.7,45.7,156.1,37.5,236.2c-4.1,39.9-13.7,77.1-24.1,115.7c-5.2,19.4-12.3,42,5.2,57.8
				c6.4,5.8,13.2,11,20.3,15.7c16.7-23.2,36.5-44.8,58.1-63.2C603.2,824.9,647.8,790.1,677.9,658.1z"/>
		</g>
		<g>
			<g>
				<path class="st4" d="M643.6,775.1c0,0-28.4,155-111.4,256.1c-83,101.1,1.8,115.7,58.3,59.7c0,0,106.3-115.2,100.4-251
					C687,751.4,643.6,775.1,643.6,775.1z"/>
			</g>
			<path class="st5" d="M386.3,360.6l3.4-92C424.7,285.1,719,433.9,719,774c0,0-5.8,209.2-128.7,316.9
				C590.4,1090.9,832.5,814,386.3,360.6z"/>
		</g>
		<g>
			<g>
				<path class="st4" d="M129.1,775.1c0,0,28.4,155,111.4,256.1c83,101.1-1.8,115.7-58.3,59.7c0,0-106.3-115.2-100.4-251
					C85.7,751.4,129.1,775.1,129.1,775.1z"/>
			</g>
			<path class="st5" d="M386.3,360.6l-3.4-92C348,285.1,53.7,433.9,53.7,774c0,0,5.8,209.2,128.7,316.9
				C182.3,1090.9-59.8,814,386.3,360.6z"/>
		</g>
		<rect x="374.5" y="222.5" class="st4" width="23.7" height="151.1"/>
		<path class="st4" d="M374.5,224.9c0,9.1,5.3,16.5,11.9,16.5c6.6,0,11.9-7.4,11.9-16.5c0-9.1-5.3-16.5-11.9-16.5
			C379.8,208.3,374.5,215.7,374.5,224.9z"/>
	</g>
	<g>
		<g>
			<path class="st0" d="M1445.4,1315.8c0,0-29.3-205.7,62.8-432.3c92.1-226.7,99.2-651.7-226.7-765
				C955.6,5.1,821.3,140.9,821.3,459.6c0,403.8,128.3,360.9,73.4,630.4c-53.8,264.3-139.7,674.4,181.3,721.3
				C1366.5,1853.9,1452.5,1631.2,1445.4,1315.8z"/>
			<path class="st1" d="M1418,1294.8c0,0-26.1-193.9,56-407.7c82.1-213.7,88.5-614.5-202.2-721.4
				C981.2,58.9,861.4,186.9,861.4,487.5c0,380.7,114.4,340.3,65.5,594.5c-48,249.2-124.6,635.9,161.7,680.2
				C1347.7,1802.2,1424.4,1592.2,1418,1294.8z"/>
			<path class="st2" d="M1043.6,1502.1c-20-81.1-22.7-167.4-7.3-249.6c17.4-92.5,63.4-182,66.4-276.9
				c3.2-103.3-47.5-196.6-82.2-291.2C989,598.6,973.3,512,972.2,420.6c-0.8-68.5,4.5-141.9,36.9-203.7
				c19.6-37.3,46.9-66.4,79.8-88.3c-159,3.1-227.5,131.6-227.5,358.8c0,380.7,114.4,340.3,65.5,594.5
				c-48,249.2-124.6,635.9,161.7,680.2c60.2,9.3,110.4,5,152.1-10.7C1142.4,1708.7,1068.4,1602.7,1043.6,1502.1z"/>
			<path class="st3" d="M885.1,737c7.9-28.5,20-56.5,37.7-83.9c37-57.1,80.5-118.3,127.5-167.6c36.5-38.2,96.7-99.4,153.5-68.7
				c125.7,68,183.8,199.3,226.8,328.5c17.4,52.4,30.7,105.6,37.2,158.7c-26.7,74.2-40.6,145.3-47.5,206.1c-2.1,0-4.1,0.3-6.1,0.9
				c-5.1,0.7-10,2.8-13.3,7c-6.3,7.9-12.4,15.8-18.6,23.7c-15.4-4.2-29.9-9.6-44.6-18.6c1.3-6.6,3.5-12.9,6.9-18.8
				c8-15.2,17.5-30.2,23.5-46.4c27.1-74.3,8.1-155.6-15.8-228.1c-23.9-72.5-52.1-144.8-94.7-208.6c-20.6-30.8-63.9-115-113.4-82
				c-58.1,38.7-95.1,110-118.9,173.8c-27.8,74.7-45.7,156.1-37.5,236.2c4.1,39.9,13.7,77.1,24.1,115.7c5.2,19.4,12.3,42-5.2,57.8
				c-6.4,5.8-13.1,11-20.3,15.7c-16.7-23.2-36.5-44.8-58.2-63.2C959.8,903.8,915.3,869,885.1,737z"/>
		</g>
		<g>
			<g>
				<path class="st4" d="M919.4,854c0,0,28.4,155,111.5,256.1c83,101.1-1.8,115.7-58.3,59.7c0,0-106.3-115.2-100.4-251
					C876.1,830.3,919.4,854,919.4,854z"/>
			</g>
			<path class="st5" d="M1176.7,439.6l-3.4-92.1C1138.3,364,844,512.8,844,852.9c0,0,5.8,209.2,128.7,316.9
				C972.6,1169.8,730.5,892.9,1176.7,439.6z"/>
		</g>
		<g>
			<g>
				<path class="st4" d="M1433.9,854c0,0-28.4,155-111.4,256.1c-83,101.1,1.7,115.7,58.3,59.7c0,0,106.3-115.2,100.4-251
					C1477.3,830.3,1433.9,854,1433.9,854z"/>
			</g>
			<path class="st5" d="M1176.7,439.6l3.4-92.1c35,16.5,329.3,165.3,329.3,505.4c0,0-5.8,209.2-128.7,316.9
				C1380.7,1169.8,1622.8,892.9,1176.7,439.6z"/>
		</g>
		<rect x="1164.8" y="301.4" class="st4" width="23.7" height="151.1"/>
		<path class="st4" d="M1188.5,303.8c0,9.1-5.3,16.5-11.9,16.5c-6.6,0-11.9-7.4-11.9-16.5c0-9.1,5.3-16.5,11.9-16.5
			C1183.2,287.3,1188.5,294.7,1188.5,303.8z"/>
	</g>
</g>
</svg>
