<?xml version="1.0" encoding="utf-8"?>
<!-- Generator: Adobe Illustrator 25.4.1, SVG Export Plug-In . SVG Version: 6.00 Build 0)  -->
<svg version="1.1" id="Flip_flops" xmlns="http://www.w3.org/2000/svg" xmlns:xlink="http://www.w3.org/1999/xlink" x="0px" y="0px"
	 viewBox="0 0 216.8 90.2" style="enable-background:new 0 0 216.8 90.2;" xml:space="preserve">
<style type="text/css">
	.st0{clip-path:url(#SVGID_00000094581794257220220330000008575191933289862561_);}
	.st1{fill:#09C9A4;}
	.st2{fill:#09C9A4;stroke:#04BF9D;}
</style>
<g>
	<g>
		<defs>
			<path id="SVGID_1_" d="M215.6,36.3c3.1,31.9-27.2,31.1-49.8,34.5c-27.3,4.1-54.3,9.4-81.5,14c-24.1,4.1-46.2,5.6-65.9-12
				C5.7,61.2-9.7,29.9,8,16c36.7-29,88.5,6.2,129.3-2.4C166.7,7.3,210.8-13.2,215.6,36.3z"/>
		</defs>
		<use xlink:href="#SVGID_1_"  style="overflow:visible;fill:#04BF9D;"/>
		<clipPath id="SVGID_00000165948059414850688770000001414219805773908671_">
			<use xlink:href="#SVGID_1_"  style="overflow:visible;"/>
		</clipPath>
		<g style="clip-path:url(#SVGID_00000165948059414850688770000001414219805773908671_);">
			<polygon class="st1" points="169,47.1 156.9,42 170,43.5 163.9,31.8 173,41.3 175.9,28.4 176.7,41.6 187.2,33.6 179.4,44.2 
				192.5,44.8 179.7,47.9 189.4,56.8 177.6,51 179.3,64 174,52 166.9,63.1 170.6,50.4 158,54.4 			"/>
			<polygon class="st1" points="111.7,36.5 99.6,31.4 112.7,32.9 106.6,21.2 115.7,30.7 118.6,17.9 119.4,31 129.9,23 122.1,33.6 
				135.3,34.2 122.4,37.3 132.1,46.3 120.3,40.4 122,53.5 116.7,41.4 109.6,52.5 113.3,39.9 100.8,43.8 			"/>
			<polygon class="st1" points="91.7,15 79.6,9.9 92.7,11.3 86.6,-0.4 95.7,9.2 98.6,-3.7 99.4,9.5 109.9,1.5 102.1,12.1 
				115.3,12.7 102.4,15.8 112.1,24.7 100.3,18.9 102,31.9 96.7,19.9 89.6,31 93.4,18.3 80.8,22.2 			"/>
			<polygon class="st1" points="92.7,69.2 80.6,64.1 93.7,65.6 87.6,53.9 96.7,63.4 99.6,50.6 100.4,63.7 110.9,55.7 103.1,66.3 
				116.3,66.9 103.4,70.1 113.1,79 101.3,73.1 103,86.2 97.7,74.1 90.6,85.2 94.3,72.6 81.8,76.5 			"/>
			<polygon class="st1" points="63.2,48.8 51,43.7 64.1,45.1 58,33.4 67.1,43 70,30.1 70.8,43.3 81.3,35.3 73.5,45.9 86.7,46.5 
				73.9,49.6 83.6,58.5 71.8,52.7 73.4,65.7 68.2,53.7 61.1,64.8 64.8,52.1 52.2,56.1 			"/>
			<polygon class="st1" points="22.9,16.6 10.8,11.5 23.9,12.9 17.8,1.2 26.9,10.8 29.8,-2.1 30.6,11.1 41.1,3.1 33.3,13.7 
				46.4,14.3 33.6,17.4 43.3,26.3 31.5,20.5 33.2,33.5 27.9,21.5 20.8,32.6 24.5,19.9 12,23.9 			"/>
			<polygon class="st1" points="11.8,50.3 -0.3,45.2 12.8,46.7 6.7,35 15.8,44.5 18.7,31.6 19.5,44.8 30,36.8 22.2,47.4 35.3,48 
				22.5,51.1 32.2,60 20.4,54.2 22.1,67.3 16.8,55.2 9.7,66.3 13.4,53.6 0.9,57.6 			"/>
			<polygon class="st1" points="40.3,82 28.1,77 41.2,78.4 35.1,66.7 44.2,76.3 47.1,63.4 48,76.6 58.4,68.6 50.6,79.2 63.8,79.8 
				51,82.9 60.7,91.8 48.9,86 50.6,99 45.3,87 38.2,98.1 41.9,85.4 29.3,89.3 			"/>
			<polygon class="st1" points="143.1,63.5 131,58.4 144.1,59.9 138,48.2 147.1,57.7 150,44.9 150.8,58 161.3,50 153.5,60.6 
				166.6,61.3 153.8,64.4 163.5,73.3 151.7,67.4 153.4,80.5 148.1,68.4 141,79.5 144.7,66.9 132.2,70.8 			"/>
			<polygon class="st1" points="156.1,11.8 143.9,6.7 157,8.2 151,-3.5 160.1,6 162.9,-6.9 163.8,6.3 174.2,-1.7 166.4,8.9 
				179.6,9.5 166.8,12.6 176.5,21.5 164.7,15.7 166.4,28.8 161.1,16.7 154,27.8 157.7,15.1 145.1,19.1 			"/>
			<polygon class="st1" points="198.5,24.8 186.4,19.7 199.5,21.2 193.4,9.5 202.5,19 205.4,6.1 206.2,19.3 216.7,11.3 208.9,21.9 
				222,22.5 209.2,25.6 218.9,34.5 207.1,28.7 208.8,41.8 203.5,29.7 196.4,40.8 200.1,28.1 187.5,32.1 			"/>
			<polygon class="st1" points="203.1,58.5 190.9,53.4 204,54.9 197.9,43.2 207,52.7 209.9,39.9 210.7,53 221.2,45 213.4,55.6 
				226.6,56.2 213.8,59.3 223.4,68.3 211.6,62.4 213.3,75.5 208,63.4 200.9,74.5 204.7,61.9 192.1,65.8 			"/>
		</g>
	</g>
	<g>
		<g>
			<path class="st1" d="M8.9,11.9c-4.6,3.7-7,8.5-7.7,13.9c1.2-3.6,3.4-6.9,6.7-9.5c36.7-29,88.5,6.2,129.3-2.4
				c29.4-6.2,73.5-26.7,78.3,22.7c0.5,3.6,0.5,6.8,0.1,9.7c1.3-3.8,1.7-8.4,0.9-14.1c-4.8-49.5-48.9-28.9-78.3-22.7
				C97.4,18.1,45.6-17.1,8.9,11.9z"/>
			<path class="st1" d="M32,48c0,0-3.6-5.3-5.6-7c-2-1.7-2.2-5.4,0.6-5.7c2.8-0.3,7.6,3.2,9,5.2L32,48z"/>
			<g>
				<path class="st2" d="M102.7,88.4c0,0,20.6,0.3,38.4-12.7c0,0,6.7-3.9,3.6-8.8c-3.1-4.9-9.8-0.1-11.8,1.1
					c-2.1,1.2-11.3,9-13.2,10.6c-2.9,2.4-12.4,6.2-15.5,7c-3,0.8-8,1.1-12.3,0.1C91.9,85.7,98.6,88.2,102.7,88.4z"/>
				<path class="st2" d="M76.5,16c0,0,20.3-3.5,23.7-3.1c3.4,0.4,13.2,4.7,16.9,8.2c3.7,3.5,14.1,9.1,16.6,9.4
					c2.5,0.4,8,2.7,10.8-2.3c2.9-5-1.7-8.4-3.7-10.3c0,0-5.8-4.4-11-6.3c-5.1-1.9-17.2-6.2-31.2-3.2C85.2,11.4,76.5,16,76.5,16z"/>
				<path class="st2" d="M113.6,87.2c0,0-29.7-0.6-44.9-15C49.5,53.9,43.2,43.8,43.2,43.8S58,25.2,79,15.8
					c22.4-8.3,25.9-8.2,25.9-8.2S77.8,5.5,66.4,10c-13.1,5.1-24,9.5-32,23.1c-1.4,2.4-4.3,8.2-4.1,11.4c0.2,3.6,4.1,8.4,5.8,10.9
					c4.6,6.8,9.9,12.8,15.9,18c8.1,7.1,16.2,14,26.8,15.5C92.8,91,100,88.5,113.6,87.2z"/>
			</g>
		</g>
	</g>
</g>
</svg>
